AtkinsonHyperlegibleNext-Bold.sfdir
StartChar: exclam
Encoding: 33 33 263
Width: 304
GlyphClass: 1
Flags: W
LayerCount: 2
Fore
SplineSet
75 495 m 1,0,-1
 75 668 l 1,1,-1
 228 668 l 1,2,-1
 228 495 l 1,3,-1
 199 236 l 1,4,-1
 104 236 l 1,5,-1
 75 495 l 1,0,-1
86.5 15.5 m 128,-1,7
 59 43 59 43 59 81 c 256,8,9
 59 119 59 119 86.5 146 c 128,-1,10
 114 173 114 173 152 173 c 256,11,12
 190 173 190 173 217 146 c 128,-1,13
 244 119 244 119 244 81 c 256,14,15
 244 43 244 43 217 15.5 c 128,-1,16
 190 -12 190 -12 152 -12 c 256,17,6
 114 -12 114 -12 86.5 15.5 c 128,-1,7
EndSplineSet
EndChar
StartChar: quotedbl
Encoding: 34 34 293
Width: 393
GlyphClass: 1
Flags: W
LayerCount: 2
Fore
SplineSet
221 668 m 1,0,-1
 353 668 l 1,1,-1
 339 436 l 1,2,-1
 235 436 l 1,3,-1
 221 668 l 1,0,-1
40 668 m 1,4,-1
 172 668 l 1,5,-1
 158 436 l 1,6,-1
 54 436 l 1,7,-1
 40 668 l 1,4,-1
EndSplineSet
EndChar
StartChar: numbersign
Encoding: 35 35 270
Width: 769
GlyphClass: 1
Flags: W
LayerCount: 2
Fore
SplineSet
157 134 m 1,0,-1
 29 134 l 1,1,-1
 48 265 l 1,2,-1
 175 265 l 1,3,-1
 196 403 l 1,4,-1
 68 403 l 1,5,-1
 87 534 l 1,6,-1
 214 534 l 1,7,-1
 234 668 l 1,8,-1
 365 668 l 1,9,-1
 345 534 l 1,10,-1
 480 534 l 1,11,-1
 500 668 l 1,12,-1
 632 668 l 1,13,-1
 612 534 l 1,14,-1
 740 534 l 1,15,-1
 721 403 l 1,16,-1
 593 403 l 1,17,-1
 574 265 l 1,18,-1
 701 265 l 1,19,-1
 682 134 l 1,20,-1
 554 134 l 1,21,-1
 535 0 l 1,22,-1
 403 0 l 1,23,-1
 422 134 l 1,24,-1
 288 134 l 1,25,-1
 269 0 l 1,26,-1
 138 0 l 1,27,-1
 157 134 l 1,0,-1
442 265 m 1,28,-1
 461 403 l 1,29,-1
 326 403 l 1,30,-1
 307 265 l 1,31,-1
 442 265 l 1,28,-1
EndSplineSet
EndChar
StartChar: dollar
Encoding: 36 36 313
Width: 611
GlyphClass: 1
Flags: W
LayerCount: 2
Fore
SplineSet
116 40.5 m 128,-1,1
 52 83 52 83 25 155 c 1,2,-1
 156 204 l 1,3,4
 166 166 166 166 196.5 141 c 128,-1,5
 227 116 227 116 271 107 c 1,6,-1
 271 286 l 1,7,-1
 237 293 l 2,8,9
 41 332 41 332 41 476 c 0,10,11
 41 560 41 560 106 614 c 128,-1,12
 171 668 171 668 271 678 c 1,13,-1
 271 758 l 1,14,-1
 340 758 l 1,15,-1
 340 679 l 1,16,17
 418 674 418 674 479 639 c 128,-1,18
 540 604 540 604 567 538 c 1,19,-1
 437 489 l 1,20,21
 425 518 425 518 400 536 c 128,-1,22
 375 554 375 554 340 560 c 1,23,-1
 340 401 l 1,24,-1
 360 397 l 2,25,26
 472 374 472 374 528.5 332 c 128,-1,27
 585 290 585 290 585 206 c 0,28,29
 585 144 585 144 552 96.5 c 128,-1,30
 519 49 519 49 463.5 22 c 128,-1,31
 408 -5 408 -5 340 -11 c 1,32,-1
 340 -90 l 1,33,-1
 271 -90 l 1,34,-1
 271 -10 l 1,35,0
 180 -2 180 -2 116 40.5 c 128,-1,1
413 130.5 m 128,-1,37
 441 151 441 151 441 189 c 0,38,39
 441 222 441 222 419 239.5 c 128,-1,40
 397 257 397 257 348 269 c 2,41,-1
 340 271 l 1,42,-1
 340 106 l 1,43,36
 385 110 385 110 413 130.5 c 128,-1,37
208 538 m 128,-1,45
 185 519 185 519 185 489 c 0,46,47
 185 462 185 462 205 444 c 128,-1,48
 225 426 225 426 261 417 c 2,49,-1
 271 415 l 1,50,-1
 271 562 l 1,51,44
 231 557 231 557 208 538 c 128,-1,45
EndSplineSet
EndChar
StartChar: percent
Encoding: 37 37 341
Width: 970
GlyphClass: 1
Flags: W
LayerCount: 2
Fore
SplineSet
657 668 m 1,0,-1
 778 668 l 1,1,-1
 311 0 l 1,2,-1
 190 0 l 1,3,-1
 657 668 l 1,0,-1
126 315.5 m 128,-1,5
 81 342 81 342 55 387 c 128,-1,6
 29 432 29 432 29 485 c 256,7,8
 29 538 29 538 55 582.5 c 128,-1,9
 81 627 81 627 126 653.5 c 128,-1,10
 171 680 171 680 224 680 c 256,11,12
 277 680 277 680 322 653.5 c 128,-1,13
 367 627 367 627 393 582.5 c 128,-1,14
 419 538 419 538 419 485 c 256,15,16
 419 432 419 432 393 387 c 128,-1,17
 367 342 367 342 322 315.5 c 128,-1,18
 277 289 277 289 224 289 c 256,19,4
 171 289 171 289 126 315.5 c 128,-1,5
283 425.5 m 128,-1,21
 307 450 307 450 307 485 c 256,22,23
 307 520 307 520 283 544 c 128,-1,24
 259 568 259 568 224 568 c 0,25,26
 190 568 190 568 165.5 544 c 128,-1,27
 141 520 141 520 141 485 c 256,28,29
 141 450 141 450 165 425.5 c 128,-1,30
 189 401 189 401 224 401 c 256,31,20
 259 401 259 401 283 425.5 c 128,-1,21
649 14.5 m 128,-1,33
 604 41 604 41 578 86 c 128,-1,34
 552 131 552 131 552 184 c 256,35,36
 552 237 552 237 578 281.5 c 128,-1,37
 604 326 604 326 649 352.5 c 128,-1,38
 694 379 694 379 747 379 c 256,39,40
 800 379 800 379 844.5 352.5 c 128,-1,41
 889 326 889 326 915 281.5 c 128,-1,42
 941 237 941 237 941 184 c 256,43,44
 941 131 941 131 915 86 c 128,-1,45
 889 41 889 41 844.5 14.5 c 128,-1,46
 800 -12 800 -12 747 -12 c 256,47,32
 694 -12 694 -12 649 14.5 c 128,-1,33
805 124.5 m 128,-1,49
 829 149 829 149 829 184 c 0,50,51
 829 218 829 218 805 242.5 c 128,-1,52
 781 267 781 267 747 267 c 256,53,54
 713 267 713 267 688.5 243 c 128,-1,55
 664 219 664 219 664 184 c 256,56,57
 664 149 664 149 688 124.5 c 128,-1,58
 712 100 712 100 747 100 c 0,59,48
 781 100 781 100 805 124.5 c 128,-1,49
EndSplineSet
EndChar
StartChar: ampersand
Encoding: 38 38 298
Width: 725
GlyphClass: 1
Flags: W
LayerCount: 2
Fore
SplineSet
160 14.5 m 128,-1,1
 105 42 105 42 74.5 88 c 128,-1,2
 44 134 44 134 44 186 c 0,3,4
 44 247 44 247 84 299.5 c 128,-1,5
 124 352 124 352 204 385 c 1,6,7
 141 463 141 463 141 535 c 0,8,9
 141 584 141 584 165.5 621.5 c 128,-1,10
 190 659 190 659 235 680 c 128,-1,11
 280 701 280 701 339 701 c 0,12,13
 395 701 395 701 439.5 679 c 128,-1,14
 484 657 484 657 509 618 c 128,-1,15
 534 579 534 579 534 532 c 0,16,17
 534 423 534 423 406 354 c 1,18,-1
 507 240 l 1,19,20
 542 302 542 302 556 364 c 1,21,-1
 678 364 l 1,22,23
 667 303 667 303 642 246.5 c 128,-1,24
 617 190 617 190 587 147 c 1,25,-1
 715 0 l 1,26,-1
 548 0 l 1,27,-1
 497 58 l 1,28,29
 393 -13 393 -13 284 -13 c 0,30,0
 215 -13 215 -13 160 14.5 c 128,-1,1
417 146 m 1,32,-1
 282 298 l 1,33,34
 237 281 237 281 214.5 254 c 128,-1,35
 192 227 192 227 192 195 c 0,36,37
 192 157 192 157 222.5 130.5 c 128,-1,38
 253 104 253 104 301 104 c 0,39,31
 360 104 360 104 417 146 c 1,32,-1
394.5 478 m 128,-1,41
 414 503 414 503 414 528 c 0,42,43
 414 557 414 557 392.5 576 c 128,-1,44
 371 595 371 595 340 595 c 0,45,46
 311 595 311 595 291.5 579 c 128,-1,47
 272 563 272 563 272 537 c 0,48,49
 272 492 272 492 337 434 c 1,50,40
 375 453 375 453 394.5 478 c 128,-1,41
EndSplineSet
EndChar
StartChar: parenleft
Encoding: 40 40 277
Width: 336
GlyphClass: 1
Flags: W
LayerCount: 2
Fore
SplineSet
77.5 50 m 128,-1,1
 44 163 44 163 44 273 c 256,2,3
 44 383 44 383 77.5 496 c 128,-1,4
 111 609 111 609 170 708 c 1,5,-1
 310 708 l 1,6,7
 245 612 245 612 210 499 c 128,-1,8
 175 386 175 386 175 273 c 256,9,10
 175 160 175 160 210 47 c 128,-1,11
 245 -66 245 -66 310 -162 c 1,12,-1
 170 -162 l 1,13,0
 111 -63 111 -63 77.5 50 c 128,-1,1
EndSplineSet
EndChar
StartChar: parenright
Encoding: 41 41 278
Width: 336
GlyphClass: 1
Flags: W
LayerCount: 2
Fore
SplineSet
126 48 m 128,-1,1
 161 161 161 161 161 274 c 256,2,3
 161 387 161 387 126 500 c 128,-1,4
 91 613 91 613 27 709 c 1,5,-1
 167 709 l 1,6,7
 226 610 226 610 259 497.5 c 128,-1,8
 292 385 292 385 292 274 c 256,9,10
 292 163 292 163 259 50.5 c 128,-1,11
 226 -62 226 -62 167 -161 c 1,12,-1
 27 -161 l 1,13,0
 91 -65 91 -65 126 48 c 128,-1,1
EndSplineSet
EndChar
StartChar: asterisk
Encoding: 42 42 269
Width: 485
GlyphClass: 1
Flags: W
LayerCount: 2
Fore
SplineSet
99 361 m 1,0,-1
 173 463 l 1,1,-1
 54 500 l 1,2,-1
 81 582 l 1,3,-1
 199 543 l 1,4,-1
 199 668 l 1,5,-1
 285 668 l 1,6,-1
 285 543 l 1,7,-1
 402 582 l 1,8,-1
 429 500 l 1,9,-1
 310 463 l 1,10,-1
 384 361 l 1,11,-1
 315 311 l 1,12,-1
 242 412 l 1,13,-1
 168 311 l 1,14,-1
 99 361 l 1,0,-1
EndSplineSet
EndChar
StartChar: plus
Encoding: 43 43 320
Width: 594
GlyphClass: 1
Flags: W
LayerCount: 2
Fore
SplineSet
237 188 m 1,0,-1
 42 188 l 1,1,-1
 42 308 l 1,2,-1
 237 308 l 1,3,-1
 237 496 l 1,4,-1
 357 496 l 1,5,-1
 357 308 l 1,6,-1
 552 308 l 1,7,-1
 552 188 l 1,8,-1
 357 188 l 1,9,-1
 357 0 l 1,10,-1
 237 0 l 1,11,-1
 237 188 l 1,0,-1
EndSplineSet
EndChar
StartChar: comma
Encoding: 44 44 259
Width: 273
GlyphClass: 1
Flags: W
LayerCount: 2
Fore
SplineSet
64.5 23 m 128,-1,1
 44 48 44 48 44 81 c 0,2,3
 44 119 44 119 71.5 146 c 128,-1,4
 99 173 99 173 137 173 c 256,5,6
 175 173 175 173 202 146 c 128,-1,7
 229 119 229 119 229 80 c 0,8,9
 229 63 229 63 223 46 c 2,10,-1
 148 -144 l 1,11,-1
 64 -144 l 1,12,-1
 116 -9 l 1,13,0
 85 -2 85 -2 64.5 23 c 128,-1,1
EndSplineSet
EndChar
StartChar: hyphen
Encoding: 45 45 273
Width: 373
GlyphClass: 1
Flags: W
LayerCount: 2
Fore
SplineSet
27 309 m 1,0,-1
 347 309 l 1,1,-1
 347 188 l 1,2,-1
 27 188 l 1,3,-1
 27 309 l 1,0,-1
EndSplineSet
EndChar
StartChar: period
Encoding: 46 46 258
Width: 274
GlyphClass: 1
Flags: W
LayerCount: 2
Fore
SplineSet
71.5 15.5 m 128,-1,1
 44 43 44 43 44 81 c 256,2,3
 44 119 44 119 71.5 146.5 c 128,-1,4
 99 174 99 174 137 174 c 256,5,6
 175 174 175 174 202.5 146.5 c 128,-1,7
 230 119 230 119 230 81 c 256,8,9
 230 43 230 43 202.5 15.5 c 128,-1,10
 175 -12 175 -12 137 -12 c 256,11,0
 99 -12 99 -12 71.5 15.5 c 128,-1,1
EndSplineSet
EndChar
StartChar: zero
Encoding: 48 48 229
Width: 660
GlyphClass: 1
Flags: W
LayerCount: 2
Fore
SplineSet
120 80 m 128,-1,1
 47 172 47 172 47 335 c 0,2,3
 47 499 47 499 120 589.5 c 128,-1,4
 193 680 193 680 330 680 c 256,5,6
 467 680 467 680 539.5 589.5 c 128,-1,7
 612 499 612 499 612 335 c 256,8,9
 612 171 612 171 539.5 79.5 c 128,-1,10
 467 -12 467 -12 330 -12 c 256,11,0
 193 -12 193 -12 120 80 c 128,-1,1
418 133 m 1,13,-1
 203 440 l 1,14,15
 193 394 193 394 193 335 c 0,16,17
 193 95 193 95 330 95 c 0,18,12
 384 95 384 95 418 133 c 1,13,-1
467 335 m 0,20,21
 467 438 467 438 434.5 505.5 c 128,-1,22
 402 573 402 573 330 573 c 0,23,24
 276 573 276 573 245 537 c 1,25,-1
 458 233 l 1,26,19
 467 277 467 277 467 335 c 0,20,21
EndSplineSet
Substitution2: "'tnum' Tabular Numbers in Latin lookup 10 subtable" zero.tf
AlternateSubs2: "'aalt' Access All Alternates in Latin lookup 0 subtable" zero.tf
EndChar
StartChar: one
Encoding: 49 49 230
Width: 442
GlyphClass: 5
Flags: W
LayerCount: 2
Fore
SplineSet
200 457 m 1,0,-1
 43 457 l 1,1,-1
 43 571 l 1,2,3
 102 571 102 571 135.5 577 c 128,-1,4
 169 583 169 583 193 604 c 128,-1,5
 217 625 217 625 234 668 c 1,6,-1
 340 668 l 1,7,-1
 340 0 l 1,8,-1
 200 0 l 1,9,-1
 200 457 l 1,0,-1
EndSplineSet
Substitution2: "'tnum' Tabular Numbers in Latin lookup 10 subtable" one.tf
Substitution2: "'sups' Superscript in Latin lookup 6 subtable" uni00B9
AlternateSubs2: "'aalt' Access All Alternates in Latin lookup 0 subtable" uni00B9 one.tf
EndChar
StartChar: two
Encoding: 50 50 231
Width: 580
GlyphClass: 5
Flags: W
LayerCount: 2
Fore
SplineSet
222.5 262.5 m 128,-1,1
 297 323 297 323 343 381 c 128,-1,2
 389 439 389 439 389 489 c 0,3,4
 389 529 389 529 361.5 551.5 c 128,-1,5
 334 574 334 574 292 574 c 0,6,7
 254 574 254 574 224.5 553 c 128,-1,8
 195 532 195 532 184 487 c 1,9,-1
 55 533 l 1,10,11
 80 603 80 603 145 641.5 c 128,-1,12
 210 680 210 680 299 680 c 0,13,14
 403 680 403 680 468 629 c 128,-1,15
 533 578 533 578 533 487 c 0,16,17
 533 389 533 389 451.5 301 c 128,-1,18
 370 213 370 213 211 118 c 1,19,-1
 538 118 l 1,20,-1
 538 0 l 1,21,-1
 30 0 l 1,22,-1
 30 118 l 1,23,0
 148 202 148 202 222.5 262.5 c 128,-1,1
EndSplineSet
Substitution2: "'tnum' Tabular Numbers in Latin lookup 10 subtable" two.tf
Substitution2: "'sups' Superscript in Latin lookup 6 subtable" uni00B2
AlternateSubs2: "'aalt' Access All Alternates in Latin lookup 0 subtable" uni00B2 two.tf
EndChar
StartChar: three
Encoding: 51 51 232
Width: 600
GlyphClass: 5
Flags: W
LayerCount: 2
Fore
SplineSet
130.5 27 m 128,-1,1
 63 66 63 66 35 142 c 1,2,-1
 164 188 l 1,3,4
 176 141 176 141 210.5 117.5 c 128,-1,5
 245 94 245 94 292 94 c 0,6,7
 343 94 343 94 373 120 c 128,-1,8
 403 146 403 146 403 192 c 0,9,10
 403 295 403 295 237 295 c 2,11,-1
 212 295 l 1,12,-1
 212 396 l 1,13,-1
 237 396 l 2,14,15
 309 396 309 396 351 421.5 c 128,-1,16
 393 447 393 447 393 492 c 0,17,18
 393 531 393 531 361.5 552.5 c 128,-1,19
 330 574 330 574 285 574 c 0,20,21
 242 574 242 574 211 552.5 c 128,-1,22
 180 531 180 531 171 487 c 1,23,-1
 42 533 l 1,24,25
 69 606 69 606 137 643 c 128,-1,26
 205 680 205 680 293 680 c 0,27,28
 357 680 357 680 412 660.5 c 128,-1,29
 467 641 467 641 501.5 601.5 c 128,-1,30
 536 562 536 562 536 503 c 0,31,32
 536 448 536 448 506 409 c 128,-1,33
 476 370 476 370 425 350 c 1,34,35
 486 330 486 330 517 288.5 c 128,-1,36
 548 247 548 247 548 194 c 0,37,38
 548 128 548 128 512.5 81.5 c 128,-1,39
 477 35 477 35 418 11.5 c 128,-1,40
 359 -12 359 -12 289 -12 c 0,41,0
 198 -12 198 -12 130.5 27 c 128,-1,1
EndSplineSet
Substitution2: "'tnum' Tabular Numbers in Latin lookup 10 subtable" three.tf
Substitution2: "'sups' Superscript in Latin lookup 6 subtable" uni00B3
AlternateSubs2: "'aalt' Access All Alternates in Latin lookup 0 subtable" uni00B3 three.tf
EndChar
StartChar: four
Encoding: 52 52 233
Width: 624
GlyphClass: 5
Flags: W
LayerCount: 2
Fore
SplineSet
351 145 m 1,0,-1
 25 145 l 1,1,-1
 25 251 l 1,2,-1
 351 668 l 1,3,-1
 493 668 l 1,4,-1
 493 270 l 1,5,-1
 590 270 l 1,6,-1
 590 145 l 1,7,-1
 493 145 l 1,8,-1
 493 0 l 1,9,-1
 351 0 l 1,10,-1
 351 145 l 1,0,-1
351 270 m 1,11,-1
 351 482 l 1,12,-1
 179 270 l 1,13,-1
 351 270 l 1,11,-1
EndSplineSet
Substitution2: "'tnum' Tabular Numbers in Latin lookup 10 subtable" four.tf
AlternateSubs2: "'aalt' Access All Alternates in Latin lookup 0 subtable" four.tf
EndChar
StartChar: five
Encoding: 53 53 234
Width: 608
GlyphClass: 1
Flags: W
LayerCount: 2
Fore
SplineSet
138.5 28 m 128,-1,1
 73 68 73 68 44 141 c 1,2,-1
 168 185 l 1,3,4
 194 94 194 94 287 94 c 0,5,6
 343 94 343 94 378 127.5 c 128,-1,7
 413 161 413 161 413 221 c 0,8,9
 413 282 413 282 377 314.5 c 128,-1,10
 341 347 341 347 290 347 c 0,11,12
 251 347 251 347 222 329.5 c 128,-1,13
 193 312 193 312 177 280 c 1,14,-1
 50 326 l 1,15,-1
 92 668 l 1,16,-1
 529 668 l 1,17,-1
 529 551 l 1,18,-1
 209 551 l 1,19,-1
 193 416 l 1,20,21
 215 433 215 433 252.5 443 c 128,-1,22
 290 453 290 453 327 453 c 0,23,24
 388 453 388 453 441 426.5 c 128,-1,25
 494 400 494 400 526.5 347.5 c 128,-1,26
 559 295 559 295 559 221 c 256,27,28
 559 147 559 147 523 94.5 c 128,-1,29
 487 42 487 42 426.5 15 c 128,-1,30
 366 -12 366 -12 294 -12 c 0,31,0
 204 -12 204 -12 138.5 28 c 128,-1,1
EndSplineSet
Substitution2: "'tnum' Tabular Numbers in Latin lookup 10 subtable" five.tf
AlternateSubs2: "'aalt' Access All Alternates in Latin lookup 0 subtable" five.tf
EndChar
StartChar: six
Encoding: 54 54 235
Width: 627
GlyphClass: 1
Flags: W
LayerCount: 2
Fore
SplineSet
171.5 29.5 m 128,-1,1
 112 71 112 71 82.5 144 c 128,-1,2
 53 217 53 217 53 311 c 0,3,4
 53 474 53 474 122.5 577 c 128,-1,5
 192 680 192 680 337 680 c 0,6,7
 416 680 416 680 466 651.5 c 128,-1,8
 516 623 516 623 544 571 c 1,9,-1
 417 525 l 1,10,11
 406 548 406 548 382 561 c 128,-1,12
 358 574 358 574 328 574 c 0,13,14
 270 574 270 574 235.5 526 c 128,-1,15
 201 478 201 478 199 391 c 1,16,17
 225 418 225 418 264 434.5 c 128,-1,18
 303 451 303 451 352 451 c 0,19,20
 414 451 414 451 465 422.5 c 128,-1,21
 516 394 516 394 545.5 342.5 c 128,-1,22
 575 291 575 291 575 226 c 0,23,24
 575 157 575 157 542 103 c 128,-1,25
 509 49 509 49 451 18.5 c 128,-1,26
 393 -12 393 -12 319 -12 c 0,27,0
 231 -12 231 -12 171.5 29.5 c 128,-1,1
399 128.5 m 128,-1,29
 429 162 429 162 429 219 c 0,30,31
 429 275 429 275 399 309 c 128,-1,32
 369 343 369 343 317 343 c 0,33,34
 266 343 266 343 235 309 c 128,-1,35
 204 275 204 275 204 219 c 256,36,37
 204 163 204 163 235 129 c 128,-1,38
 266 95 266 95 318 95 c 0,39,28
 369 95 369 95 399 128.5 c 128,-1,29
EndSplineSet
Substitution2: "'tnum' Tabular Numbers in Latin lookup 10 subtable" six.tf
AlternateSubs2: "'aalt' Access All Alternates in Latin lookup 0 subtable" six.tf
EndChar
StartChar: eight
Encoding: 56 56 237
Width: 624
GlyphClass: 1
Flags: W
LayerCount: 2
Fore
SplineSet
173 13.5 m 128,-1,1
 111 39 111 39 76 87 c 128,-1,2
 41 135 41 135 41 200 c 0,3,4
 41 259 41 259 70 301 c 128,-1,5
 99 343 99 343 157 375 c 1,6,7
 121 427 121 427 121 489 c 0,8,9
 121 541 121 541 145.5 585 c 128,-1,10
 170 629 170 629 213.5 654.5 c 128,-1,11
 257 680 257 680 312 680 c 256,12,13
 367 680 367 680 410.5 654.5 c 128,-1,14
 454 629 454 629 478.5 585 c 128,-1,15
 503 541 503 541 503 489 c 0,16,17
 503 425 503 425 467 375 c 1,18,19
 525 343 525 343 554 301 c 128,-1,20
 583 259 583 259 583 200 c 0,21,22
 583 135 583 135 548 87 c 128,-1,23
 513 39 513 39 451 13.5 c 128,-1,24
 389 -12 389 -12 312 -12 c 256,25,0
 235 -12 235 -12 173 13.5 c 128,-1,1
402 133 m 128,-1,27
 436 160 436 160 436 204 c 256,28,29
 436 248 436 248 402 273 c 128,-1,30
 368 298 368 298 312 298 c 256,31,32
 256 298 256 298 222 273 c 128,-1,33
 188 248 188 248 188 204 c 256,34,35
 188 160 188 160 222 133 c 128,-1,36
 256 106 256 106 312 106 c 256,37,26
 368 106 368 106 402 133 c 128,-1,27
365 435 m 128,-1,39
 387 457 387 457 387 488 c 256,40,41
 387 519 387 519 365 541 c 128,-1,42
 343 563 343 563 312 563 c 256,43,44
 281 563 281 563 259 541 c 128,-1,45
 237 519 237 519 237 488 c 256,46,47
 237 457 237 457 259 435 c 128,-1,48
 281 413 281 413 312 413 c 256,49,38
 343 413 343 413 365 435 c 128,-1,39
EndSplineSet
Substitution2: "'tnum' Tabular Numbers in Latin lookup 10 subtable" eight.tf
AlternateSubs2: "'aalt' Access All Alternates in Latin lookup 0 subtable" eight.tf
EndChar
StartChar: nine
Encoding: 57 57 238
Width: 570
GlyphClass: 1
Flags: W
LayerCount: 2
Fore
SplineSet
166 223.5 m 128,-1,1
 108 255 108 255 73.5 311.5 c 128,-1,2
 39 368 39 368 39 436 c 0,3,4
 39 501 39 501 71.5 556.5 c 128,-1,5
 104 612 104 612 159 644.5 c 128,-1,6
 214 677 214 677 280 677 c 256,7,8
 346 677 346 677 402 644.5 c 128,-1,9
 458 612 458 612 491 556 c 128,-1,10
 524 500 524 500 524 435 c 0,11,12
 524 397 524 397 511.5 357.5 c 128,-1,13
 499 318 499 318 468 260 c 2,14,-1
 329 0 l 1,15,-1
 180 0 l 1,16,-1
 291 195 l 1,17,0
 224 192 224 192 166 223.5 c 128,-1,1
364 353 m 128,-1,19
 398 387 398 387 398 434 c 0,20,21
 398 461 398 461 384 488 c 128,-1,22
 370 515 370 515 343.5 532.5 c 128,-1,23
 317 550 317 550 282 550 c 0,24,25
 232 550 232 550 199 515.5 c 128,-1,26
 166 481 166 481 166 435 c 0,27,28
 166 402 166 402 182.5 375.5 c 128,-1,29
 199 349 199 349 225.5 334 c 128,-1,30
 252 319 252 319 282 319 c 0,31,18
 330 319 330 319 364 353 c 128,-1,19
EndSplineSet
Substitution2: "'tnum' Tabular Numbers in Latin lookup 10 subtable" nine.tf
AlternateSubs2: "'aalt' Access All Alternates in Latin lookup 0 subtable" nine.tf
EndChar
StartChar: less
Encoding: 60 60 327
Width: 570
GlyphClass: 1
Flags: W
LayerCount: 2
Fore
SplineSet
40 202 m 1,0,-1
 40 297 l 1,1,-1
 530 508 l 1,2,-1
 530 374 l 1,3,-1
 199 250 l 1,4,-1
 530 124 l 1,5,-1
 530 -10 l 1,6,-1
 40 202 l 1,0,-1
EndSplineSet
EndChar
StartChar: equal
Encoding: 61 61 324
Width: 611
GlyphClass: 1
Flags: W
LayerCount: 2
Fore
SplineSet
51 406 m 1,0,-1
 560 406 l 1,1,-1
 560 286 l 1,2,-1
 51 286 l 1,3,-1
 51 406 l 1,0,-1
51 220 m 1,4,-1
 560 220 l 1,5,-1
 560 100 l 1,6,-1
 51 100 l 1,7,-1
 51 220 l 1,4,-1
EndSplineSet
EndChar
StartChar: greater
Encoding: 62 62 326
Width: 570
GlyphClass: 1
Flags: W
LayerCount: 2
Fore
SplineSet
40 124 m 1,0,-1
 372 250 l 1,1,-1
 40 374 l 1,2,-1
 40 508 l 1,3,-1
 530 297 l 1,4,-1
 530 202 l 1,5,-1
 40 -10 l 1,6,-1
 40 124 l 1,0,-1
EndSplineSet
EndChar
StartChar: question
Encoding: 63 63 265
Width: 549
GlyphClass: 1
Flags: W
LayerCount: 2
Fore
SplineSet
191 346 m 128,-1,1
 217 383 217 383 289 418 c 0,2,3
 342 444 342 444 363 462 c 128,-1,4
 384 480 384 480 384 502 c 0,5,6
 384 531 384 531 354.5 548.5 c 128,-1,7
 325 566 325 566 276 566 c 256,8,9
 227 566 227 566 193.5 546 c 128,-1,10
 160 526 160 526 148 488 c 1,11,-1
 20 534 l 1,12,13
 45 604 45 604 114 642 c 128,-1,14
 183 680 183 680 281 680 c 0,15,16
 347 680 347 680 403.5 661 c 128,-1,17
 460 642 460 642 494.5 603 c 128,-1,18
 529 564 529 564 529 508 c 256,19,20
 529 452 529 452 498.5 413 c 128,-1,21
 468 374 468 374 403 342 c 0,22,23
 351 316 351 316 330 295 c 128,-1,24
 309 274 309 274 309 245 c 2,25,-1
 309 226 l 1,26,-1
 165 226 l 1,27,-1
 165 246 l 2,28,0
 165 309 165 309 191 346 c 128,-1,1
172.5 15.5 m 128,-1,30
 145 43 145 43 145 81 c 256,31,32
 145 119 145 119 172.5 146 c 128,-1,33
 200 173 200 173 238 173 c 256,34,35
 276 173 276 173 303 146 c 128,-1,36
 330 119 330 119 330 81 c 256,37,38
 330 43 330 43 303 15.5 c 128,-1,39
 276 -12 276 -12 238 -12 c 256,40,29
 200 -12 200 -12 172.5 15.5 c 128,-1,30
EndSplineSet
EndChar
StartChar: at
Encoding: 64 64 297
Width: 781
GlyphClass: 1
Flags: W
LayerCount: 2
Fore
SplineSet
213 -55 m 128,-1,1
 129 -9 129 -9 80.5 72 c 128,-1,2
 32 153 32 153 32 252 c 256,3,4
 32 351 32 351 81 433 c 128,-1,5
 130 515 130 515 214 562 c 128,-1,6
 298 609 298 609 399 609 c 0,7,8
 491 609 491 609 571.5 567.5 c 128,-1,9
 652 526 652 526 700.5 452 c 128,-1,10
 749 378 749 378 749 285 c 0,11,12
 749 214 749 214 725 166.5 c 128,-1,13
 701 119 701 119 663.5 96 c 128,-1,14
 626 73 626 73 585 73 c 0,15,16
 549 73 549 73 517 91 c 128,-1,17
 485 109 485 109 473 138 c 1,18,19
 454 105 454 105 422 90 c 128,-1,20
 390 75 390 75 354 75 c 0,21,22
 317 75 317 75 282.5 94.5 c 128,-1,23
 248 114 248 114 226.5 151 c 128,-1,24
 205 188 205 188 205 239 c 0,25,26
 205 342 205 342 264.5 390 c 128,-1,27
 324 438 324 438 411 438 c 0,28,29
 470 438 470 438 532 418 c 1,30,-1
 532 221 l 2,31,32
 532 184 532 184 549 167.5 c 128,-1,33
 566 151 566 151 592 151 c 0,34,35
 628 151 628 151 649.5 187 c 128,-1,36
 671 223 671 223 671 289 c 0,37,38
 671 359 671 359 634 416 c 128,-1,39
 597 473 597 473 534 505.5 c 128,-1,40
 471 538 471 538 397 538 c 0,41,42
 317 538 317 538 251.5 499.5 c 128,-1,43
 186 461 186 461 149 396 c 128,-1,44
 112 331 112 331 112 253 c 0,45,46
 112 174 112 174 150.5 109 c 128,-1,47
 189 44 189 44 255 7 c 128,-1,48
 321 -30 321 -30 399 -30 c 0,49,50
 470 -30 470 -30 533 6 c 1,51,-1
 533 -73 l 1,52,53
 469 -101 469 -101 397 -101 c 0,54,0
 297 -101 297 -101 213 -55 c 128,-1,1
420 186 m 128,-1,56
 442 211 442 211 442 255 c 2,57,-1
 442 351 l 1,58,59
 420 355 420 355 400 355 c 0,60,61
 305 355 305 355 305 244 c 0,62,63
 305 205 305 205 324.5 183 c 128,-1,64
 344 161 344 161 370 161 c 0,65,55
 398 161 398 161 420 186 c 128,-1,56
EndSplineSet
EndChar
StartChar: A
Encoding: 65 65 2
Width: 680
GlyphClass: 2
Flags: W
AnchorPoint: "Anchor-2" 674 10 basechar 0
AnchorPoint: "Anchor-1" 340 668 basechar 0
AnchorPoint: "Anchor-0" 340 0 basechar 0
LayerCount: 2
Fore
SplineSet
258 668 m 1,0,-1
 422 668 l 1,1,-1
 674 0 l 1,2,-1
 513 0 l 1,3,-1
 472 123 l 1,4,-1
 208 123 l 1,5,-1
 167 0 l 1,6,-1
 6 0 l 1,7,-1
 258 668 l 1,0,-1
431 244 m 1,8,-1
 339 512 l 1,9,-1
 248 244 l 1,10,-1
 431 244 l 1,8,-1
EndSplineSet
Substitution2: "Single Substitution lookup 15 subtable" ordfeminine
AlternateSubs2: "'aalt' Access All Alternates in Latin lookup 0 subtable" ordfeminine
EndChar
StartChar: B
Encoding: 66 66 13
Width: 644
GlyphClass: 2
Flags: W
AnchorPoint: "Anchor-1" 332 668 basechar 0
AnchorPoint: "Anchor-0" 332 0 basechar 0
LayerCount: 2
Fore
SplineSet
59 668 m 1,0,-1
 346 668 l 2,1,2
 466 668 466 668 530 623.5 c 128,-1,3
 594 579 594 579 594 495 c 0,4,5
 594 447 594 447 570.5 411.5 c 128,-1,6
 547 376 547 376 502 354 c 1,7,8
 559 334 559 334 590.5 294 c 128,-1,9
 622 254 622 254 622 196 c 0,10,11
 622 102 622 102 553 51 c 128,-1,12
 484 0 484 0 358 0 c 2,13,-1
 59 0 l 1,14,-1
 59 668 l 1,0,-1
440.5 145 m 128,-1,16
 467 167 467 167 467 206 c 0,17,18
 467 243 467 243 440.5 264.5 c 128,-1,19
 414 286 414 286 363 286 c 2,20,-1
 207 286 l 1,21,-1
 207 123 l 1,22,-1
 363 123 l 2,23,15
 414 123 414 123 440.5 145 c 128,-1,16
419 420.5 m 128,-1,25
 442 440 442 440 442 474 c 256,26,27
 442 508 442 508 418.5 527.5 c 128,-1,28
 395 547 395 547 351 547 c 2,29,-1
 207 547 l 1,30,-1
 207 401 l 1,31,-1
 352 401 l 2,32,24
 396 401 396 401 419 420.5 c 128,-1,25
EndSplineSet
EndChar
StartChar: C
Encoding: 67 67 14
Width: 659
GlyphClass: 2
Flags: W
AnchorPoint: "Anchor-1" 364 668 basechar 0
AnchorPoint: "Anchor-0" 362 0 basechar 0
LayerCount: 2
Fore
SplineSet
185.5 30.5 m 128,-1,1
 111 73 111 73 71.5 151 c 128,-1,2
 32 229 32 229 32 334 c 256,3,4
 32 439 32 439 73 517 c 128,-1,5
 114 595 114 595 189.5 637.5 c 128,-1,6
 265 680 265 680 366 680 c 0,7,8
 457 680 457 680 527.5 639 c 128,-1,9
 598 598 598 598 637 526 c 1,10,-1
 506 478 l 1,11,12
 484 518 484 518 445.5 538 c 128,-1,13
 407 558 407 558 361 558 c 0,14,15
 312 558 312 558 272.5 531.5 c 128,-1,16
 233 505 233 505 210.5 454 c 128,-1,17
 188 403 188 403 188 334 c 0,18,19
 188 264 188 264 210.5 213.5 c 128,-1,20
 233 163 233 163 273 136.5 c 128,-1,21
 313 110 313 110 363 110 c 0,22,23
 409 110 409 110 449 129 c 128,-1,24
 489 148 489 148 511 189 c 1,25,-1
 641 142 l 1,26,27
 601 69 601 69 527.5 28.5 c 128,-1,28
 454 -12 454 -12 361 -12 c 0,29,0
 260 -12 260 -12 185.5 30.5 c 128,-1,1
EndSplineSet
EndChar
StartChar: D
Encoding: 68 68 19
Width: 689
GlyphClass: 2
Flags: W
AnchorPoint: "Anchor-1" 331 668 basechar 0
AnchorPoint: "Anchor-0" 351 0 basechar 0
LayerCount: 2
Fore
SplineSet
59 668 m 1,0,-1
 274 668 l 2,1,2
 455 668 455 668 556 588.5 c 128,-1,3
 657 509 657 509 657 334 c 0,4,5
 657 0 657 0 274 0 c 2,6,-1
 59 0 l 1,7,-1
 59 668 l 1,0,-1
398 142 m 128,-1,9
 448 159 448 159 476.5 205 c 128,-1,10
 505 251 505 251 505 334 c 0,11,12
 505 455 505 455 445.5 500 c 128,-1,13
 386 545 386 545 276 545 c 2,14,-1
 207 545 l 1,15,-1
 207 125 l 1,16,-1
 276 125 l 2,17,8
 348 125 348 125 398 142 c 128,-1,9
EndSplineSet
EndChar
StartChar: E
Encoding: 69 69 23
Width: 599
GlyphClass: 2
Flags: W
AnchorPoint: "Anchor-2" 564 10 basechar 0
AnchorPoint: "Anchor-1" 313 668 basechar 0
AnchorPoint: "Anchor-0" 300 0 basechar 0
LayerCount: 2
Fore
SplineSet
59 668 m 1,0,-1
 560 668 l 1,1,-1
 560 538 l 1,2,-1
 207 538 l 1,3,-1
 207 408 l 1,4,-1
 432 408 l 1,5,-1
 432 279 l 1,6,-1
 207 279 l 1,7,-1
 207 130 l 1,8,-1
 564 130 l 1,9,-1
 564 0 l 1,10,-1
 59 0 l 1,11,-1
 59 668 l 1,0,-1
EndSplineSet
EndChar
StartChar: F
Encoding: 70 70 32
Width: 566
GlyphClass: 2
Flags: W
AnchorPoint: "Anchor-1" 283 668 basechar 0
AnchorPoint: "Anchor-0" 283 0 basechar 0
LayerCount: 2
Fore
SplineSet
59 668 m 1,0,-1
 531 668 l 1,1,-1
 531 538 l 1,2,-1
 207 538 l 1,3,-1
 207 383 l 1,4,-1
 527 383 l 1,5,-1
 527 253 l 1,6,-1
 207 253 l 1,7,-1
 207 0 l 1,8,-1
 59 0 l 1,9,-1
 59 668 l 1,0,-1
EndSplineSet
EndChar
StartChar: G
Encoding: 71 71 33
Width: 719
GlyphClass: 2
Flags: W
AnchorPoint: "Anchor-1" 354 668 basechar 0
AnchorPoint: "Anchor-0" 354 0 basechar 0
LayerCount: 2
Fore
SplineSet
179 30.5 m 128,-1,1
 108 73 108 73 70 152 c 128,-1,2
 32 231 32 231 32 336 c 0,3,4
 32 440 32 440 74.5 517.5 c 128,-1,5
 117 595 117 595 193.5 637.5 c 128,-1,6
 270 680 270 680 370 680 c 0,7,8
 461 680 461 680 533.5 642.5 c 128,-1,9
 606 605 606 605 641 535 c 1,10,-1
 507 486 l 1,11,12
 489 518 489 518 453.5 538 c 128,-1,13
 418 558 418 558 367 558 c 256,14,15
 316 558 316 558 275.5 532.5 c 128,-1,16
 235 507 235 507 211.5 457 c 128,-1,17
 188 407 188 407 188 336 c 0,18,19
 188 229 188 229 237 169.5 c 128,-1,20
 286 110 286 110 368 110 c 0,21,22
 433 110 433 110 478.5 139 c 128,-1,23
 524 168 524 168 524 233 c 2,24,-1
 524 252 l 1,25,-1
 367 252 l 1,26,-1
 367 373 l 1,27,-1
 671 373 l 1,28,-1
 671 0 l 1,29,-1
 575 0 l 1,30,-1
 553 76 l 1,31,32
 490 -12 490 -12 347 -12 c 0,33,0
 250 -12 250 -12 179 30.5 c 128,-1,1
EndSplineSet
EndChar
StartChar: H
Encoding: 72 72 37
Width: 702
GlyphClass: 2
Flags: W
AnchorPoint: "Anchor-1" 351 668 basechar 0
AnchorPoint: "Anchor-0" 351 0 basechar 0
LayerCount: 2
Fore
SplineSet
59 668 m 1,0,-1
 207 668 l 1,1,-1
 207 408 l 1,2,-1
 494 408 l 1,3,-1
 494 668 l 1,4,-1
 642 668 l 1,5,-1
 642 0 l 1,6,-1
 494 0 l 1,7,-1
 494 279 l 1,8,-1
 207 279 l 1,9,-1
 207 0 l 1,10,-1
 59 0 l 1,11,-1
 59 668 l 1,0,-1
EndSplineSet
EndChar
StartChar: I
Encoding: 73 73 39
Width: 426
GlyphClass: 2
Flags: W
AnchorPoint: "Anchor-2" 380 10 basechar 0
AnchorPoint: "Anchor-1" 213 668 basechar 0
AnchorPoint: "Anchor-0" 213 0 basechar 0
LayerCount: 2
Fore
SplineSet
46 109 m 1,0,-1
 139 109 l 1,1,-1
 139 559 l 1,2,-1
 46 559 l 1,3,-1
 46 668 l 1,4,-1
 380 668 l 1,5,-1
 380 559 l 1,6,-1
 287 559 l 1,7,-1
 287 109 l 1,8,-1
 380 109 l 1,9,-1
 380 0 l 1,10,-1
 46 0 l 1,11,-1
 46 109 l 1,0,-1
EndSplineSet
EndChar
StartChar: J
Encoding: 74 74 48
Width: 563
GlyphClass: 2
Flags: W
AnchorPoint: "Anchor-1" 429 668 basechar 0
AnchorPoint: "Anchor-0" 276 0 basechar 0
LayerCount: 2
Fore
SplineSet
87 38 m 128,-1,1
 25 88 25 88 7 177 c 1,2,-1
 143 226 l 1,3,4
 149 174 149 174 177 140 c 128,-1,5
 205 106 205 106 251 106 c 0,6,7
 302 106 302 106 328.5 138.5 c 128,-1,8
 355 171 355 171 355 249 c 2,9,-1
 355 668 l 1,10,-1
 503 668 l 1,11,-1
 503 249 l 2,12,13
 503 125 503 125 438 56.5 c 128,-1,14
 373 -12 373 -12 250 -12 c 0,15,0
 149 -12 149 -12 87 38 c 128,-1,1
EndSplineSet
Substitution2: "Single Substitution lookup 14 subtable" uni004A0301
AlternateSubs2: "'aalt' Access All Alternates in Latin lookup 0 subtable" uni004A0301
EndChar
StartChar: K
Encoding: 75 75 50
Width: 665
GlyphClass: 2
Flags: W
AnchorPoint: "Anchor-1" 338 668 basechar 0
AnchorPoint: "Anchor-0" 338 0 basechar 0
LayerCount: 2
Fore
SplineSet
59 668 m 1,0,-1
 207 668 l 1,1,-1
 207 392 l 1,2,-1
 458 668 l 1,3,-1
 639 668 l 1,4,-1
 376 383 l 1,5,-1
 654 0 l 1,6,-1
 482 0 l 1,7,-1
 281 280 l 1,8,-1
 207 199 l 1,9,-1
 207 0 l 1,10,-1
 59 0 l 1,11,-1
 59 668 l 1,0,-1
EndSplineSet
EndChar
StartChar: L
Encoding: 76 76 52
Width: 552
GlyphClass: 2
Flags: W
AnchorPoint: "Anchor-3" 258 459 basechar 0
AnchorPoint: "Anchor-1" 280 668 basechar 0
AnchorPoint: "Anchor-0" 280 0 basechar 0
LayerCount: 2
Fore
SplineSet
59 668 m 1,0,-1
 207 668 l 1,1,-1
 207 130 l 1,2,-1
 534 130 l 1,3,-1
 534 0 l 1,4,-1
 59 0 l 1,5,-1
 59 668 l 1,0,-1
EndSplineSet
EndChar
StartChar: M
Encoding: 77 77 56
Width: 859
GlyphClass: 2
Flags: W
AnchorPoint: "Anchor-1" 430 668 basechar 0
AnchorPoint: "Anchor-0" 430 0 basechar 0
LayerCount: 2
Fore
SplineSet
59 668 m 1,0,-1
 285 668 l 1,1,-1
 430 179 l 1,2,-1
 577 668 l 1,3,-1
 800 668 l 1,4,-1
 800 0 l 1,5,-1
 655 0 l 1,6,-1
 655 532 l 1,7,-1
 491 0 l 1,8,-1
 367 0 l 1,9,-1
 203 532 l 1,10,-1
 203 0 l 1,11,-1
 59 0 l 1,12,-1
 59 668 l 1,0,-1
EndSplineSet
EndChar
StartChar: N
Encoding: 78 78 57
Width: 718
GlyphClass: 2
Flags: W
AnchorPoint: "Anchor-1" 360 668 basechar 0
AnchorPoint: "Anchor-0" 360 0 basechar 0
LayerCount: 2
Fore
SplineSet
59 668 m 1,0,-1
 251 668 l 1,1,-1
 516 178 l 1,2,-1
 516 668 l 1,3,-1
 659 668 l 1,4,-1
 659 0 l 1,5,-1
 468 0 l 1,6,-1
 202 491 l 1,7,-1
 202 0 l 1,8,-1
 59 0 l 1,9,-1
 59 668 l 1,0,-1
EndSplineSet
EndChar
StartChar: O
Encoding: 79 79 62
Width: 748
GlyphClass: 2
Flags: W
AnchorPoint: "Anchor-3" 731 668 basechar 0
AnchorPoint: "Anchor-2" 675 10 basechar 0
AnchorPoint: "Anchor-1" 374 668 basechar 0
AnchorPoint: "Anchor-0" 374 0 basechar 0
LayerCount: 2
Fore
SplineSet
196.5 31.5 m 128,-1,1
 119 75 119 75 75.5 153.5 c 128,-1,2
 32 232 32 232 32 334 c 256,3,4
 32 436 32 436 75.5 514.5 c 128,-1,5
 119 593 119 593 196.5 636.5 c 128,-1,6
 274 680 274 680 374 680 c 256,7,8
 474 680 474 680 551.5 636.5 c 128,-1,9
 629 593 629 593 672.5 514.5 c 128,-1,10
 716 436 716 436 716 334 c 256,11,12
 716 232 716 232 672.5 153.5 c 128,-1,13
 629 75 629 75 551.5 31.5 c 128,-1,14
 474 -12 474 -12 374 -12 c 256,15,0
 274 -12 274 -12 196.5 31.5 c 128,-1,1
468 136 m 128,-1,17
 510 162 510 162 534.5 212.5 c 128,-1,18
 559 263 559 263 559 334 c 256,19,20
 559 405 559 405 534.5 455.5 c 128,-1,21
 510 506 510 506 468 532 c 128,-1,22
 426 558 426 558 374 558 c 256,23,24
 322 558 322 558 280 532 c 128,-1,25
 238 506 238 506 213.5 455.5 c 128,-1,26
 189 405 189 405 189 334 c 256,27,28
 189 263 189 263 213.5 212.5 c 128,-1,29
 238 162 238 162 280 136 c 128,-1,30
 322 110 322 110 374 110 c 256,31,16
 426 110 426 110 468 136 c 128,-1,17
EndSplineSet
Substitution2: "Single Substitution lookup 15 subtable" ordmasculine
AlternateSubs2: "'aalt' Access All Alternates in Latin lookup 0 subtable" ordmasculine
EndChar
StartChar: P
Encoding: 80 80 71
Width: 630
GlyphClass: 2
Flags: W
AnchorPoint: "Anchor-1" 325 668 basechar 0
AnchorPoint: "Anchor-0" 325 0 basechar 0
LayerCount: 2
Fore
SplineSet
59 668 m 1,0,-1
 348 668 l 2,1,2
 463 668 463 668 536 614 c 128,-1,3
 609 560 609 560 609 452 c 256,4,5
 609 344 609 344 536.5 290 c 128,-1,6
 464 236 464 236 348 236 c 2,7,-1
 207 236 l 1,8,-1
 207 0 l 1,9,-1
 59 0 l 1,10,-1
 59 668 l 1,0,-1
424.5 383 m 128,-1,12
 454 405 454 405 454 452 c 0,13,14
 454 498 454 498 424.5 520 c 128,-1,15
 395 542 395 542 345 542 c 2,16,-1
 207 542 l 1,17,-1
 207 361 l 1,18,-1
 345 361 l 2,19,11
 395 361 395 361 424.5 383 c 128,-1,12
EndSplineSet
EndChar
StartChar: Q
Encoding: 81 81 73
Width: 758
GlyphClass: 1
Flags: W
LayerCount: 2
Fore
SplineSet
196.5 31.5 m 128,-1,1
 119 75 119 75 75.5 153.5 c 128,-1,2
 32 232 32 232 32 334 c 256,3,4
 32 436 32 436 75.5 514.5 c 128,-1,5
 119 593 119 593 196.5 636.5 c 128,-1,6
 274 680 274 680 374 680 c 256,7,8
 474 680 474 680 551.5 636.5 c 128,-1,9
 629 593 629 593 672.5 514.5 c 128,-1,10
 716 436 716 436 716 334 c 0,11,12
 716 221 716 221 662 135 c 1,13,-1
 770 32 l 1,14,-1
 691 -53 l 1,15,-1
 581 50 l 1,16,17
 494 -12 494 -12 374 -12 c 0,18,0
 274 -12 274 -12 196.5 31.5 c 128,-1,1
480 145 m 1,20,-1
 331 286 l 1,21,-1
 410 370 l 1,22,-1
 546 243 l 1,23,24
 559 287 559 287 559 334 c 0,25,26
 559 405 559 405 534.5 455.5 c 128,-1,27
 510 506 510 506 468 532 c 128,-1,28
 426 558 426 558 374 558 c 256,29,30
 322 558 322 558 280 532 c 128,-1,31
 238 506 238 506 213.5 455.5 c 128,-1,32
 189 405 189 405 189 334 c 256,33,34
 189 263 189 263 213.5 212.5 c 128,-1,35
 238 162 238 162 280 136 c 128,-1,36
 322 110 322 110 374 110 c 0,37,19
 436 110 436 110 480 145 c 1,20,-1
EndSplineSet
EndChar
StartChar: R
Encoding: 82 82 74
Width: 651
GlyphClass: 2
Flags: W
AnchorPoint: "Anchor-1" 332 668 basechar 0
AnchorPoint: "Anchor-0" 334 0 basechar 0
LayerCount: 2
Fore
SplineSet
59 668 m 1,0,-1
 355 668 l 2,1,2
 467 668 467 668 538 616 c 128,-1,3
 609 564 609 564 609 461 c 0,4,5
 609 381 609 381 565 332.5 c 128,-1,6
 521 284 521 284 446 267 c 1,7,-1
 639 0 l 1,8,-1
 465 0 l 1,9,-1
 286 254 l 1,10,-1
 207 254 l 1,11,-1
 207 0 l 1,12,-1
 59 0 l 1,13,-1
 59 668 l 1,0,-1
425.5 399.5 m 128,-1,15
 454 419 454 419 454 461 c 256,16,17
 454 503 454 503 425.5 522.5 c 128,-1,18
 397 542 397 542 349 542 c 2,19,-1
 207 542 l 1,20,-1
 207 380 l 1,21,-1
 349 380 l 2,22,14
 397 380 397 380 425.5 399.5 c 128,-1,15
EndSplineSet
EndChar
StartChar: S
Encoding: 83 83 77
Width: 611
GlyphClass: 2
Flags: W
AnchorPoint: "Anchor-1" 305 668 basechar 0
AnchorPoint: "Anchor-0" 305 0 basechar 0
LayerCount: 2
Fore
SplineSet
129 31.5 m 128,-1,1
 55 75 55 75 25 155 c 1,2,-1
 159 204 l 1,3,4
 172 159 172 159 213.5 133.5 c 128,-1,5
 255 108 255 108 312 108 c 0,6,7
 366 108 366 108 401.5 128 c 128,-1,8
 437 148 437 148 437 189 c 0,9,10
 437 223 437 223 410.5 241.5 c 128,-1,11
 384 260 384 260 320 273 c 2,12,-1
 237 290 l 2,13,14
 41 329 41 329 41 476 c 0,15,16
 41 538 41 538 77.5 584 c 128,-1,17
 114 630 114 630 176.5 655 c 128,-1,18
 239 680 239 680 315 680 c 0,19,20
 400 680 400 680 468.5 644.5 c 128,-1,21
 537 609 537 609 567 538 c 1,22,-1
 433 489 l 1,23,24
 419 523 419 523 384.5 542 c 128,-1,25
 350 561 350 561 303 561 c 0,26,27
 252 561 252 561 220.5 542 c 128,-1,28
 189 523 189 523 189 489 c 0,29,30
 189 435 189 435 270 418 c 2,31,-1
 360 399 l 2,32,33
 470 377 470 377 527.5 335 c 128,-1,34
 585 293 585 293 585 206 c 0,35,36
 585 138 585 138 547 89 c 128,-1,37
 509 40 509 40 445.5 14 c 128,-1,38
 382 -12 382 -12 308 -12 c 0,39,0
 203 -12 203 -12 129 31.5 c 128,-1,1
EndSplineSet
EndChar
StartChar: T
Encoding: 84 84 83
Width: 609
GlyphClass: 2
Flags: W
AnchorPoint: "Anchor-1" 304 668 basechar 0
AnchorPoint: "Anchor-0" 304 0 basechar 0
LayerCount: 2
Fore
SplineSet
230 538 m 1,0,-1
 14 538 l 1,1,-1
 14 668 l 1,2,-1
 594 668 l 1,3,-1
 594 538 l 1,4,-1
 378 538 l 1,5,-1
 378 0 l 1,6,-1
 230 0 l 1,7,-1
 230 538 l 1,0,-1
EndSplineSet
EndChar
StartChar: U
Encoding: 85 85 87
Width: 686
GlyphClass: 2
Flags: W
AnchorPoint: "Anchor-3" 658 668 basechar 0
AnchorPoint: "Anchor-2" 549 10 basechar 0
AnchorPoint: "Anchor-1" 344 668 basechar 0
AnchorPoint: "Anchor-0" 345 0 basechar 0
LayerCount: 2
Fore
SplineSet
124.5 61 m 128,-1,1
 58 134 58 134 58 290 c 2,2,-1
 58 668 l 1,3,-1
 206 668 l 1,4,-1
 206 274 l 2,5,6
 206 186 206 186 238 148 c 128,-1,7
 270 110 270 110 344 110 c 256,8,9
 418 110 418 110 449 147.5 c 128,-1,10
 480 185 480 185 480 274 c 2,11,-1
 480 668 l 1,12,-1
 628 668 l 1,13,-1
 628 290 l 2,14,15
 628 134 628 134 561 61 c 128,-1,16
 494 -12 494 -12 343 -12 c 0,17,0
 191 -12 191 -12 124.5 61 c 128,-1,1
EndSplineSet
EndChar
StartChar: W
Encoding: 87 87 97
Width: 887
GlyphClass: 2
Flags: W
AnchorPoint: "Anchor-1" 444 668 basechar 0
AnchorPoint: "Anchor-0" 444 0 basechar 0
LayerCount: 2
Fore
SplineSet
15 668 m 1,0,-1
 165 668 l 1,1,-1
 264 191 l 1,2,-1
 365 668 l 1,3,-1
 521 668 l 1,4,-1
 624 191 l 1,5,-1
 722 668 l 1,6,-1
 872 668 l 1,7,-1
 710 0 l 1,8,-1
 549 0 l 1,9,-1
 443 483 l 1,10,-1
 338 0 l 1,11,-1
 178 0 l 1,12,-1
 15 668 l 1,0,-1
EndSplineSet
EndChar
StartChar: Y
Encoding: 89 89 103
Width: 653
GlyphClass: 2
Flags: W
AnchorPoint: "Anchor-1" 327 668 basechar 0
AnchorPoint: "Anchor-0" 327 0 basechar 0
LayerCount: 2
Fore
SplineSet
253 260 m 1,0,-1
 0 668 l 1,1,-1
 171 668 l 1,2,-1
 326 401 l 1,3,-1
 480 668 l 1,4,-1
 653 668 l 1,5,-1
 401 261 l 1,6,-1
 401 0 l 1,7,-1
 253 0 l 1,8,-1
 253 260 l 1,0,-1
EndSplineSet
EndChar
StartChar: bracketright
Encoding: 93 93 282
Width: 344
GlyphClass: 1
Flags: W
LayerCount: 2
Fore
SplineSet
36 -53 m 1,0,-1
 164 -53 l 1,1,-1
 164 599 l 1,2,-1
 36 599 l 1,3,-1
 36 708 l 1,4,-1
 285 708 l 1,5,-1
 285 -162 l 1,6,-1
 36 -162 l 1,7,-1
 36 -53 l 1,0,-1
EndSplineSet
EndChar
StartChar: a
Encoding: 97 97 112
Width: 553
GlyphClass: 2
Flags: W
AnchorPoint: "Anchor-2" 511 10 basechar 0
AnchorPoint: "Anchor-1" 275 496 basechar 0
AnchorPoint: "Anchor-0" 275 0 basechar 0
LayerCount: 2
Fore
SplineSet
73.5 27.5 m 128,-1,1
 24 67 24 67 24 133 c 0,2,3
 24 216 24 216 110 257.5 c 128,-1,4
 196 299 196 299 359 311 c 1,5,-1
 359 326 l 2,6,7
 359 412 359 412 267 412 c 0,8,9
 232 412 232 412 208 396 c 128,-1,10
 184 380 184 380 177 350 c 1,11,-1
 57 392 l 1,12,13
 81 445 81 445 138 477 c 128,-1,14
 195 509 195 509 274 509 c 0,15,16
 384 509 384 509 439 460 c 128,-1,17
 494 411 494 411 494 303 c 2,18,-1
 494 193 l 2,19,20
 494 144 494 144 499 89 c 128,-1,21
 504 34 504 34 511 0 c 1,22,-1
 380 0 l 1,23,-1
 362 61 l 1,24,25
 310 -12 310 -12 196 -12 c 0,26,0
 123 -12 123 -12 73.5 27.5 c 128,-1,1
329.5 113 m 128,-1,28
 359 140 359 140 359 204 c 2,29,-1
 359 224 l 1,30,31
 265 218 265 218 218 199 c 128,-1,32
 171 180 171 180 171 143 c 0,33,34
 171 118 171 118 192 102 c 128,-1,35
 213 86 213 86 247 86 c 0,36,27
 300 86 300 86 329.5 113 c 128,-1,28
EndSplineSet
Substitution2: "Single Substitution lookup 15 subtable" ordfeminine
AlternateSubs2: "'aalt' Access All Alternates in Latin lookup 0 subtable" ordfeminine
EndChar
StartChar: b
Encoding: 98 98 123
Width: 597
GlyphClass: 2
Flags: W
AnchorPoint: "Anchor-1" 299 496 basechar 0
AnchorPoint: "Anchor-0" 299 0 basechar 0
LayerCount: 2
Fore
SplineSet
262.5 8.5 m 128,-1,1
 220 29 220 29 197 68 c 1,2,-1
 178 0 l 1,3,-1
 56 0 l 1,4,-1
 56 708 l 1,5,-1
 197 708 l 1,6,-1
 197 426 l 1,7,8
 220 466 220 466 262.5 487.5 c 128,-1,9
 305 509 305 509 350 509 c 0,10,11
 413 509 413 509 462.5 478 c 128,-1,12
 512 447 512 447 540 388.5 c 128,-1,13
 568 330 568 330 568 251 c 256,14,15
 568 172 568 172 540 112 c 128,-1,16
 512 52 512 52 462.5 20 c 128,-1,17
 413 -12 413 -12 350 -12 c 0,18,0
 305 -12 305 -12 262.5 8.5 c 128,-1,1
387.5 140 m 128,-1,20
 420 181 420 181 420 251 c 0,21,22
 420 320 420 320 387.5 359 c 128,-1,23
 355 398 355 398 306 398 c 0,24,25
 255 398 255 398 223 360.5 c 128,-1,26
 191 323 191 323 191 249 c 0,27,28
 191 173 191 173 223 136 c 128,-1,29
 255 99 255 99 306 99 c 0,30,19
 355 99 355 99 387.5 140 c 128,-1,20
EndSplineSet
EndChar
StartChar: c
Encoding: 99 99 124
Width: 511
GlyphClass: 2
Flags: W
AnchorPoint: "Anchor-1" 289 496 basechar 0
AnchorPoint: "Anchor-0" 280 0 basechar 0
LayerCount: 2
Fore
SplineSet
95 59.5 m 128,-1,1
 29 131 29 131 29 250 c 0,2,3
 29 327 29 327 60.5 385.5 c 128,-1,4
 92 444 92 444 149.5 476.5 c 128,-1,5
 207 509 207 509 281 509 c 0,6,7
 351 509 351 509 409.5 478 c 128,-1,8
 468 447 468 447 499 382 c 1,9,-1
 380 339 l 1,10,11
 368 369 368 369 343.5 383.5 c 128,-1,12
 319 398 319 398 288 398 c 0,13,14
 240 398 240 398 207 362 c 128,-1,15
 174 326 174 326 174 250 c 0,16,17
 174 173 174 173 207 136 c 128,-1,18
 240 99 240 99 288 99 c 0,19,20
 320 99 320 99 343.5 112.5 c 128,-1,21
 367 126 367 126 381 149 c 1,22,-1
 498 107 l 1,23,24
 463 46 463 46 404.5 17 c 128,-1,25
 346 -12 346 -12 280 -12 c 0,26,0
 161 -12 161 -12 95 59.5 c 128,-1,1
EndSplineSet
EndChar
StartChar: d
Encoding: 100 100 129
Width: 597
GlyphClass: 2
Flags: W
AnchorPoint: "Anchor-3" 564 496 basechar 0
AnchorPoint: "Anchor-1" 298 796 basechar 0
AnchorPoint: "Anchor-0" 298 0 basechar 0
LayerCount: 2
Fore
SplineSet
135 20 m 128,-1,1
 85 52 85 52 57 112 c 128,-1,2
 29 172 29 172 29 251 c 256,3,4
 29 330 29 330 57 388.5 c 128,-1,5
 85 447 85 447 134.5 478 c 128,-1,6
 184 509 184 509 247 509 c 0,7,8
 293 509 293 509 335 487.5 c 128,-1,9
 377 466 377 466 400 426 c 1,10,-1
 400 708 l 1,11,-1
 541 708 l 1,12,-1
 541 193 l 2,13,14
 541 91 541 91 558 0 c 1,15,-1
 424 0 l 1,16,-1
 404 65 l 1,17,18
 373 26 373 26 332.5 7 c 128,-1,19
 292 -12 292 -12 247 -12 c 0,20,0
 185 -12 185 -12 135 20 c 128,-1,1
374.5 136 m 128,-1,22
 406 173 406 173 406 249 c 0,23,24
 406 323 406 323 374 360.5 c 128,-1,25
 342 398 342 398 292 398 c 256,26,27
 242 398 242 398 209.5 359 c 128,-1,28
 177 320 177 320 177 251 c 0,29,30
 177 181 177 181 209.5 140 c 128,-1,31
 242 99 242 99 292 99 c 0,32,21
 343 99 343 99 374.5 136 c 128,-1,22
EndSplineSet
EndChar
StartChar: e
Encoding: 101 101 133
Width: 564
GlyphClass: 2
Flags: W
AnchorPoint: "Anchor-2" 469 10 basechar 0
AnchorPoint: "Anchor-1" 297 496 basechar 0
AnchorPoint: "Anchor-0" 284 0 basechar 0
LayerCount: 2
Fore
SplineSet
156.5 20 m 128,-1,1
 96 52 96 52 62.5 111.5 c 128,-1,2
 29 171 29 171 29 250 c 0,3,4
 29 327 29 327 64 386 c 128,-1,5
 99 445 99 445 159 477 c 128,-1,6
 219 509 219 509 291 509 c 0,7,8
 371 509 371 509 430 470.5 c 128,-1,9
 489 432 489 432 518.5 364 c 128,-1,10
 548 296 548 296 542 211 c 1,11,-1
 169 211 l 1,12,13
 179 154 179 154 213.5 126.5 c 128,-1,14
 248 99 248 99 293 99 c 0,15,16
 362 99 362 99 396 138 c 1,17,-1
 511 97 l 1,18,19
 474 44 474 44 417.5 16 c 128,-1,20
 361 -12 361 -12 297 -12 c 0,21,0
 217 -12 217 -12 156.5 20 c 128,-1,1
374.5 374 m 128,-1,23
 343 402 343 402 295 402 c 256,24,25
 247 402 247 402 213 377.5 c 128,-1,26
 179 353 179 353 168 299 c 1,27,-1
 409 299 l 1,28,22
 406 346 406 346 374.5 374 c 128,-1,23
EndSplineSet
EndChar
StartChar: f
Encoding: 102 102 142
Width: 367
GlyphClass: 2
Flags: W
AnchorPoint: "Anchor-1" 184 796 basechar 0
AnchorPoint: "Anchor-0" 184 0 basechar 0
LayerCount: 2
Fore
SplineSet
93 388 m 1,0,-1
 11 388 l 1,1,-1
 11 496 l 1,2,-1
 93 496 l 1,3,-1
 93 569 l 2,4,5
 93 627 93 627 111.5 659 c 128,-1,6
 130 691 130 691 169 704.5 c 128,-1,7
 208 718 208 718 275 718 c 2,8,-1
 342 718 l 1,9,-1
 342 606 l 1,10,-1
 298 606 l 2,11,12
 259 606 259 606 246.5 597 c 128,-1,13
 234 588 234 588 234 558 c 2,14,-1
 234 496 l 1,15,-1
 342 496 l 1,16,-1
 342 388 l 1,17,-1
 234 388 l 1,18,-1
 234 0 l 1,19,-1
 93 0 l 1,20,-1
 93 388 l 1,0,-1
EndSplineSet
EndChar
StartChar: g
Encoding: 103 103 143
Width: 594
GlyphClass: 2
Flags: W
AnchorPoint: "Anchor-1" 299 496 basechar 0
AnchorPoint: "Anchor-0" 299 -251 basechar 0
LayerCount: 2
Fore
SplineSet
164.5 -174.5 m 128,-1,1
 106 -148 106 -148 76 -88 c 1,2,-1
 192 -39 l 1,3,4
 222 -93 222 -93 297 -93 c 0,5,6
 341 -93 341 -93 370.5 -69 c 128,-1,7
 400 -45 400 -45 400 9 c 2,8,-1
 400 96 l 1,9,10
 370 57 370 57 329 37 c 128,-1,11
 288 17 288 17 243 17 c 0,12,13
 187 17 187 17 138 46 c 128,-1,14
 89 75 89 75 59 130 c 128,-1,15
 29 185 29 185 29 259 c 0,16,17
 29 340 29 340 58.5 397 c 128,-1,18
 88 454 88 454 136 482 c 128,-1,19
 184 510 184 510 238 510 c 0,20,21
 288 510 288 510 330 488 c 128,-1,22
 372 466 372 466 400 426 c 1,23,-1
 420 496 l 1,24,-1
 540 496 l 1,25,-1
 540 32 l 2,26,27
 540 -87 540 -87 475 -144 c 128,-1,28
 410 -201 410 -201 293 -201 c 0,29,0
 223 -201 223 -201 164.5 -174.5 c 128,-1,1
373.5 158.5 m 128,-1,31
 405 190 405 190 405 262 c 0,32,33
 405 333 405 333 373.5 365.5 c 128,-1,34
 342 398 342 398 291 398 c 0,35,36
 241 398 241 398 209 364 c 128,-1,37
 177 330 177 330 177 265 c 0,38,39
 177 199 177 199 209 163 c 128,-1,40
 241 127 241 127 291 127 c 0,41,30
 342 127 342 127 373.5 158.5 c 128,-1,31
EndSplineSet
EndChar
StartChar: k
Encoding: 107 107 161
Width: 558
GlyphClass: 2
Flags: W
AnchorPoint: "Anchor-1" 281 796 basechar 0
AnchorPoint: "Anchor-0" 281 0 basechar 0
LayerCount: 2
Fore
SplineSet
56 708 m 1,0,-1
 197 708 l 1,1,-1
 197 303 l 1,2,-1
 369 496 l 1,3,-1
 536 496 l 1,4,-1
 344 289 l 1,5,-1
 553 0 l 1,6,-1
 385 0 l 1,7,-1
 250 189 l 1,8,-1
 197 131 l 1,9,-1
 197 0 l 1,10,-1
 56 0 l 1,11,-1
 56 708 l 1,0,-1
EndSplineSet
EndChar
StartChar: l
Encoding: 108 108 163
Width: 320
GlyphClass: 2
Flags: W
AnchorPoint: "Anchor-3" 217 497 basechar 0
AnchorPoint: "Anchor-1" 151 796 basechar 0
AnchorPoint: "Anchor-0" 156 0 basechar 0
LayerCount: 2
Fore
SplineSet
115 11 m 128,-1,1
 82 22 82 22 67.5 51 c 128,-1,2
 53 80 53 80 53 137 c 2,3,-1
 53 708 l 1,4,-1
 194 708 l 1,5,-1
 194 172 l 2,6,7
 194 138 194 138 207 127 c 128,-1,8
 220 116 220 116 259 116 c 2,9,-1
 300 116 l 1,10,-1
 300 0 l 1,11,-1
 210 0 l 2,12,0
 148 0 148 0 115 11 c 128,-1,1
EndSplineSet
EndChar
StartChar: m
Encoding: 109 109 167
Width: 883
GlyphClass: 2
Flags: W
AnchorPoint: "Anchor-1" 442 496 basechar 0
AnchorPoint: "Anchor-0" 442 0 basechar 0
LayerCount: 2
Fore
SplineSet
56 496 m 1,0,-1
 178 496 l 1,1,-1
 197 429 l 1,2,3
 217 461 217 461 256.5 485 c 128,-1,4
 296 509 296 509 347 509 c 0,5,6
 405 509 405 509 440.5 488 c 128,-1,7
 476 467 476 467 494 425 c 1,8,9
 522 466 522 466 566 487.5 c 128,-1,10
 610 509 610 509 663 509 c 0,11,12
 753 509 753 509 791 458 c 128,-1,13
 829 407 829 407 829 304 c 2,14,-1
 829 0 l 1,15,-1
 688 0 l 1,16,-1
 688 268 l 2,17,18
 688 311 688 311 683 338 c 128,-1,19
 678 365 678 365 660 381.5 c 128,-1,20
 642 398 642 398 606 398 c 0,21,22
 513 398 513 398 513 263 c 2,23,-1
 513 0 l 1,24,-1
 371 0 l 1,25,-1
 371 268 l 2,26,27
 371 311 371 311 366 338 c 128,-1,28
 361 365 361 365 344 381.5 c 128,-1,29
 327 398 327 398 292 398 c 0,30,31
 197 398 197 398 197 261 c 2,32,-1
 197 0 l 1,33,-1
 56 0 l 1,34,-1
 56 496 l 1,0,-1
EndSplineSet
EndChar
StartChar: n
Encoding: 110 110 168
Width: 572
GlyphClass: 2
Flags: W
AnchorPoint: "Anchor-1" 287 496 basechar 0
AnchorPoint: "Anchor-0" 287 0 basechar 0
LayerCount: 2
Fore
SplineSet
56 496 m 1,0,-1
 178 496 l 1,1,-1
 197 429 l 1,2,3
 217 462 217 462 257.5 485.5 c 128,-1,4
 298 509 298 509 351 509 c 0,5,6
 443 509 443 509 480.5 458 c 128,-1,7
 518 407 518 407 518 304 c 2,8,-1
 518 0 l 1,9,-1
 377 0 l 1,10,-1
 377 268 l 2,11,12
 377 311 377 311 372 338 c 128,-1,13
 367 365 367 365 349 381.5 c 128,-1,14
 331 398 331 398 295 398 c 0,15,16
 197 398 197 398 197 257 c 2,17,-1
 197 0 l 1,18,-1
 56 0 l 1,19,-1
 56 496 l 1,0,-1
EndSplineSet
EndChar
StartChar: o
Encoding: 111 111 173
Width: 577
GlyphClass: 2
Flags: W
AnchorPoint: "Anchor-3" 553 496 basechar 0
AnchorPoint: "Anchor-2" 516 10 basechar 0
AnchorPoint: "Anchor-1" 288 496 basechar 0
AnchorPoint: "Anchor-0" 288 0 basechar 0
LayerCount: 2
Fore
SplineSet
159 16.5 m 128,-1,1
 100 45 100 45 64.5 104 c 128,-1,2
 29 163 29 163 29 249 c 256,3,4
 29 335 29 335 64.5 393.5 c 128,-1,5
 100 452 100 452 159 480.5 c 128,-1,6
 218 509 218 509 288 509 c 256,7,8
 358 509 358 509 417 480.5 c 128,-1,9
 476 452 476 452 511.5 393.5 c 128,-1,10
 547 335 547 335 547 249 c 256,11,12
 547 163 547 163 511.5 104 c 128,-1,13
 476 45 476 45 417 16.5 c 128,-1,14
 358 -12 358 -12 288 -12 c 256,15,0
 218 -12 218 -12 159 16.5 c 128,-1,1
371 135 m 128,-1,17
 403 171 403 171 403 249 c 0,18,19
 403 326 403 326 371 362 c 128,-1,20
 339 398 339 398 288 398 c 256,21,22
 237 398 237 398 205.5 362 c 128,-1,23
 174 326 174 326 174 249 c 0,24,25
 174 171 174 171 205.5 135 c 128,-1,26
 237 99 237 99 288 99 c 256,27,16
 339 99 339 99 371 135 c 128,-1,17
EndSplineSet
Substitution2: "Single Substitution lookup 15 subtable" ordmasculine
AlternateSubs2: "'aalt' Access All Alternates in Latin lookup 0 subtable" ordmasculine
EndChar
StartChar: p
Encoding: 112 112 182
Width: 597
GlyphClass: 2
Flags: W
AnchorPoint: "Anchor-1" 299 496 basechar 0
AnchorPoint: "Anchor-0" 299 0 basechar 0
LayerCount: 2
Fore
SplineSet
56 496 m 1,0,-1
 177 496 l 1,1,-1
 197 426 l 1,2,3
 220 466 220 466 262.5 487.5 c 128,-1,4
 305 509 305 509 350 509 c 0,5,6
 413 509 413 509 462.5 477 c 128,-1,7
 512 445 512 445 540 386 c 128,-1,8
 568 327 568 327 568 248 c 0,9,10
 568 168 568 168 540 109.5 c 128,-1,11
 512 51 512 51 462.5 19.5 c 128,-1,12
 413 -12 413 -12 350 -12 c 0,13,14
 305 -12 305 -12 262.5 10 c 128,-1,15
 220 32 220 32 197 72 c 1,16,-1
 197 -162 l 1,17,-1
 56 -162 l 1,18,-1
 56 496 l 1,0,-1
387.5 138.5 m 128,-1,20
 420 178 420 178 420 248 c 0,21,22
 420 317 420 317 387.5 357.5 c 128,-1,23
 355 398 355 398 306 398 c 0,24,25
 255 398 255 398 223 361.5 c 128,-1,26
 191 325 191 325 191 250 c 256,27,28
 191 175 191 175 223 137 c 128,-1,29
 255 99 255 99 306 99 c 0,30,19
 355 99 355 99 387.5 138.5 c 128,-1,20
EndSplineSet
EndChar
StartChar: q
Encoding: 113 113 184
Width: 600
GlyphClass: 2
Flags: W
AnchorPoint: "Anchor-1" 302 496 basechar 0
AnchorPoint: "Anchor-0" 302 0 basechar 0
LayerCount: 2
Fore
SplineSet
447 -136.5 m 128,-1,1
 400 -101 400 -101 400 -13 c 2,2,-1
 400 71 l 1,3,4
 378 32 378 32 335 10 c 128,-1,5
 292 -12 292 -12 247 -12 c 0,6,7
 184 -12 184 -12 134.5 19.5 c 128,-1,8
 85 51 85 51 57 109.5 c 128,-1,9
 29 168 29 168 29 248 c 0,10,11
 29 327 29 327 57 386 c 128,-1,12
 85 445 85 445 134.5 477 c 128,-1,13
 184 509 184 509 247 509 c 0,14,15
 293 509 293 509 335 487.5 c 128,-1,16
 377 466 377 466 400 426 c 1,17,-1
 420 496 l 1,18,-1
 541 496 l 1,19,-1
 541 28 l 2,20,21
 541 -8 541 -8 553.5 -26 c 128,-1,22
 566 -44 566 -44 604 -44 c 0,23,24
 635 -44 635 -44 667 -35 c 1,25,-1
 667 -157 l 1,26,27
 626 -172 626 -172 566 -172 c 0,28,0
 494 -172 494 -172 447 -136.5 c 128,-1,1
374 137.5 m 128,-1,30
 406 176 406 176 406 250 c 0,31,32
 406 325 406 325 374.5 361.5 c 128,-1,33
 343 398 343 398 292 398 c 0,34,35
 242 398 242 398 209.5 357.5 c 128,-1,36
 177 317 177 317 177 248 c 0,37,38
 177 178 177 178 209.5 138.5 c 128,-1,39
 242 99 242 99 292 99 c 256,40,29
 342 99 342 99 374 137.5 c 128,-1,30
EndSplineSet
EndChar
StartChar: s
Encoding: 115 115 188
Width: 510
GlyphClass: 2
Flags: W
AnchorPoint: "Anchor-1" 260 496 basechar 0
AnchorPoint: "Anchor-0" 262 0 basechar 0
LayerCount: 2
Fore
SplineSet
109 20 m 128,-1,1
 45 53 45 53 18 114 c 1,2,-1
 140 158 l 1,3,4
 149 127 149 127 183 109 c 128,-1,5
 217 91 217 91 261 91 c 0,6,7
 301 91 301 91 328.5 105 c 128,-1,8
 356 119 356 119 356 144 c 0,9,10
 356 163 356 163 338 174.5 c 128,-1,11
 320 186 320 186 276 194 c 2,12,-1
 195 208 l 2,13,14
 121 222 121 222 78.5 258 c 128,-1,15
 36 294 36 294 36 353 c 0,16,17
 36 402 36 402 66.5 437.5 c 128,-1,18
 97 473 97 473 148 491 c 128,-1,19
 199 509 199 509 258 509 c 0,20,21
 334 509 334 509 392.5 481.5 c 128,-1,22
 451 454 451 454 477 396 c 1,23,-1
 356 352 l 1,24,25
 334 406 334 406 254 406 c 0,26,27
 215 406 215 406 193 393.5 c 128,-1,28
 171 381 171 381 171 360 c 0,29,30
 171 342 171 342 185.5 332 c 128,-1,31
 200 322 200 322 235 316 c 2,32,-1
 319 300 l 2,33,34
 410 283 410 283 451 250 c 128,-1,35
 492 217 492 217 492 153 c 0,36,37
 492 74 492 74 426 30.5 c 128,-1,38
 360 -13 360 -13 259 -13 c 0,39,0
 173 -13 173 -13 109 20 c 128,-1,1
EndSplineSet
EndChar
StartChar: t
Encoding: 116 116 194
Width: 377
GlyphClass: 2
Flags: W
AnchorPoint: "Anchor-3" 255 552 basechar 0
AnchorPoint: "Anchor-1" 183 496 basechar 0
AnchorPoint: "Anchor-0" 213 0 basechar 0
LayerCount: 2
Fore
SplineSet
156 11 m 128,-1,1
 123 22 123 22 108.5 51 c 128,-1,2
 94 80 94 80 94 138 c 2,3,-1
 94 388 l 1,4,-1
 12 388 l 1,5,-1
 12 496 l 1,6,-1
 94 496 l 1,7,-1
 94 620 l 1,8,-1
 235 620 l 1,9,-1
 235 496 l 1,10,-1
 342 496 l 1,11,-1
 342 388 l 1,12,-1
 235 388 l 1,13,-1
 235 173 l 2,14,15
 235 138 235 138 247.5 127 c 128,-1,16
 260 116 260 116 297 116 c 2,17,-1
 342 116 l 1,18,-1
 342 0 l 1,19,-1
 251 0 l 2,20,0
 189 0 189 0 156 11 c 128,-1,1
EndSplineSet
EndChar
StartChar: u
Encoding: 117 117 198
Width: 568
GlyphClass: 2
Flags: W
AnchorPoint: "Anchor-3" 546 496 basechar 0
AnchorPoint: "Anchor-2" 512 10 basechar 0
AnchorPoint: "Anchor-1" 284 496 basechar 0
AnchorPoint: "Anchor-0" 284 0 basechar 0
LayerCount: 2
Fore
SplineSet
92.5 39.5 m 128,-1,1
 54 91 54 91 54 195 c 2,2,-1
 54 496 l 1,3,-1
 195 496 l 1,4,-1
 195 231 l 2,5,6
 195 187 195 187 200 160 c 128,-1,7
 205 133 205 133 222.5 116 c 128,-1,8
 240 99 240 99 276 99 c 0,9,10
 325 99 325 99 347.5 130.5 c 128,-1,11
 370 162 370 162 370 233 c 2,12,-1
 370 496 l 1,13,-1
 512 496 l 1,14,-1
 512 0 l 1,15,-1
 391 0 l 1,16,-1
 370 70 l 1,17,18
 346 30 346 30 312 9 c 128,-1,19
 278 -12 278 -12 224 -12 c 0,20,0
 131 -12 131 -12 92.5 39.5 c 128,-1,1
EndSplineSet
EndChar
StartChar: w
Encoding: 119 119 208
Width: 742
GlyphClass: 2
Flags: W
AnchorPoint: "Anchor-1" 372 496 basechar 0
AnchorPoint: "Anchor-0" 372 0 basechar 0
LayerCount: 2
Fore
SplineSet
15 496 m 1,0,-1
 156 496 l 1,1,-1
 234 155 l 1,2,-1
 303 496 l 1,3,-1
 438 496 l 1,4,-1
 508 155 l 1,5,-1
 586 496 l 1,6,-1
 727 496 l 1,7,-1
 600 0 l 1,8,-1
 448 0 l 1,9,-1
 371 363 l 1,10,-1
 294 0 l 1,11,-1
 142 0 l 1,12,-1
 15 496 l 1,0,-1
EndSplineSet
EndChar
StartChar: x
Encoding: 120 120 213
Width: 542
GlyphClass: 2
Flags: W
AnchorPoint: "Anchor-1" 271 496 basechar 0
AnchorPoint: "Anchor-0" 271 0 basechar 0
LayerCount: 2
Fore
SplineSet
194 258 m 1,0,-1
 24 496 l 1,1,-1
 180 496 l 1,2,-1
 271 367 l 1,3,-1
 362 496 l 1,4,-1
 518 496 l 1,5,-1
 348 258 l 1,6,-1
 532 0 l 1,7,-1
 376 0 l 1,8,-1
 271 150 l 1,9,-1
 166 0 l 1,10,-1
 10 0 l 1,11,-1
 194 258 l 1,0,-1
EndSplineSet
EndChar
StartChar: y
Encoding: 121 121 214
Width: 524
GlyphClass: 2
Flags: W
AnchorPoint: "Anchor-1" 262 496 basechar 0
AnchorPoint: "Anchor-0" 262 0 basechar 0
LayerCount: 2
Fore
SplineSet
66 -58 m 1,0,-1
 102 -58 l 2,1,2
 134 -58 134 -58 150 -55 c 128,-1,3
 166 -52 166 -52 175.5 -42 c 128,-1,4
 185 -32 185 -32 193 -11 c 2,5,-1
 198 2 l 1,6,-1
 10 496 l 1,7,-1
 162 496 l 1,8,-1
 264 175 l 1,9,-1
 362 496 l 1,10,-1
 514 496 l 1,11,-1
 327 -3 l 2,12,13
 302 -68 302 -68 279 -101 c 128,-1,14
 256 -134 256 -134 220.5 -148 c 128,-1,15
 185 -162 185 -162 124 -162 c 2,16,-1
 66 -162 l 1,17,-1
 66 -58 l 1,0,-1
EndSplineSet
EndChar
StartChar: braceleft
Encoding: 123 123 279
Width: 383
GlyphClass: 1
Flags: W
LayerCount: 2
Fore
SplineSet
154.5 -125.5 m 128,-1,1
 117 -89 117 -89 117 -6 c 2,2,-1
 117 119 l 2,3,4
 117 172 117 172 98.5 192.5 c 128,-1,5
 80 213 80 213 26 214 c 1,6,-1
 26 332 l 1,7,8
 80 333 80 333 98.5 353.5 c 128,-1,9
 117 374 117 374 117 427 c 2,10,-1
 117 552 l 2,11,12
 117 635 117 635 154.5 671.5 c 128,-1,13
 192 708 192 708 283 708 c 2,14,-1
 349 708 l 1,15,-1
 349 596 l 1,16,-1
 306 596 l 2,17,18
 274 596 274 596 263 586.5 c 128,-1,19
 252 577 252 577 252 549 c 2,20,-1
 252 401 l 2,21,22
 252 347 252 347 230.5 318.5 c 128,-1,23
 209 290 209 290 160 276 c 1,24,-1
 160 270 l 1,25,26
 209 256 209 256 230.5 227.5 c 128,-1,27
 252 199 252 199 252 145 c 2,28,-1
 252 -3 l 2,29,30
 252 -31 252 -31 263 -40.5 c 128,-1,31
 274 -50 274 -50 306 -50 c 2,32,-1
 349 -50 l 1,33,-1
 349 -162 l 1,34,-1
 283 -162 l 2,35,0
 192 -162 192 -162 154.5 -125.5 c 128,-1,1
EndSplineSet
EndChar
StartChar: braceright
Encoding: 125 125 280
Width: 383
GlyphClass: 1
Flags: W
LayerCount: 2
Fore
SplineSet
34 -50 m 1,0,-1
 77 -50 l 2,1,2
 109 -50 109 -50 120 -40.5 c 128,-1,3
 131 -31 131 -31 131 -3 c 2,4,-1
 131 145 l 2,5,6
 131 199 131 199 152.5 227.5 c 128,-1,7
 174 256 174 256 222 270 c 1,8,-1
 222 276 l 1,9,10
 174 290 174 290 152.5 318.5 c 128,-1,11
 131 347 131 347 131 401 c 2,12,-1
 131 549 l 2,13,14
 131 577 131 577 120 586.5 c 128,-1,15
 109 596 109 596 77 596 c 2,16,-1
 34 596 l 1,17,-1
 34 708 l 1,18,-1
 100 708 l 2,19,20
 191 708 191 708 228.5 671.5 c 128,-1,21
 266 635 266 635 266 552 c 2,22,-1
 266 427 l 2,23,24
 266 374 266 374 284.5 353.5 c 128,-1,25
 303 333 303 333 357 332 c 1,26,-1
 357 214 l 1,27,28
 303 213 303 213 284.5 192.5 c 128,-1,29
 266 172 266 172 266 119 c 2,30,-1
 266 -6 l 2,31,32
 266 -89 266 -89 228.5 -125.5 c 128,-1,33
 191 -162 191 -162 100 -162 c 2,34,-1
 34 -162 l 1,35,-1
 34 -50 l 1,0,-1
EndSplineSet
EndChar
StartChar: asciitilde
Encoding: 126 126 333
Width: 536
GlyphClass: 1
Flags: W
LayerCount: 2
Fore
SplineSet
73.5 306 m 128,-1,1
 103 348 103 348 168 348 c 0,2,3
 196 348 196 348 220 339 c 128,-1,4
 244 330 244 330 276 313 c 0,5,6
 301 299 301 299 318.5 292 c 128,-1,7
 336 285 336 285 354 285 c 0,8,9
 378 285 378 285 389.5 304 c 128,-1,10
 401 323 401 323 399 369 c 1,11,-1
 498 335 l 1,12,13
 492 253 492 253 463 211.5 c 128,-1,14
 434 170 434 170 369 170 c 0,15,16
 341 170 341 170 317 179 c 128,-1,17
 293 188 293 188 261 205 c 0,18,19
 234 219 234 219 217 225.5 c 128,-1,20
 200 232 200 232 183 232 c 0,21,22
 159 232 159 232 147.5 213 c 128,-1,23
 136 194 136 194 138 148 c 1,24,-1
 38 183 l 1,25,0
 44 264 44 264 73.5 306 c 128,-1,1
EndSplineSet
EndChar
StartChar: exclamdown
Encoding: 161 161 264
Width: 304
GlyphClass: 1
Flags: W
LayerCount: 2
Fore
SplineSet
76 3 m 1,0,-1
 105 263 l 1,1,-1
 199 263 l 1,2,-1
 229 3 l 1,3,-1
 229 -170 l 1,4,-1
 76 -170 l 1,5,-1
 76 3 l 1,0,-1
86 352 m 128,-1,7
 59 379 59 379 59 417 c 256,8,9
 59 455 59 455 86 482.5 c 128,-1,10
 113 510 113 510 151 510 c 0,11,12
 190 510 190 510 217 482.5 c 128,-1,13
 244 455 244 455 244 417 c 256,14,15
 244 379 244 379 217 352 c 128,-1,16
 190 325 190 325 151 325 c 0,17,6
 113 325 113 325 86 352 c 128,-1,7
EndSplineSet
EndChar
StartChar: cent
Encoding: 162 162 311
Width: 511
GlyphClass: 1
Flags: W
LayerCount: 2
Fore
SplineSet
86 69.5 m 128,-1,1
 29 140 29 140 29 250 c 0,2,3
 29 356 29 356 88 425.5 c 128,-1,4
 147 495 147 495 246 507 c 1,5,-1
 246 586 l 1,6,-1
 315 586 l 1,7,-1
 315 507 l 1,8,9
 375 500 375 500 424 468.5 c 128,-1,10
 473 437 473 437 499 381 c 1,11,-1
 380 339 l 1,12,13
 361 385 361 385 315 395 c 1,14,-1
 315 102 l 1,15,16
 359 109 359 109 381 148 c 1,17,-1
 498 106 l 1,18,19
 469 54 469 54 420.5 25 c 128,-1,20
 372 -4 372 -4 315 -10 c 1,21,-1
 315 -90 l 1,22,-1
 246 -90 l 1,23,-1
 246 -11 l 1,24,0
 143 -1 143 -1 86 69.5 c 128,-1,1
193.5 341.5 m 128,-1,26
 174 307 174 307 174 250 c 0,27,28
 174 191 174 191 193.5 156 c 128,-1,29
 213 121 213 121 246 108 c 1,30,-1
 246 390 l 1,31,25
 213 376 213 376 193.5 341.5 c 128,-1,26
EndSplineSet
EndChar
StartChar: sterling
Encoding: 163 163 316
Width: 635
GlyphClass: 1
Flags: W
LayerCount: 2
Fore
SplineSet
155.5 159.5 m 128,-1,1
 187 194 187 194 187 247 c 0,2,3
 187 275 187 275 175 299 c 1,4,-1
 63 299 l 1,5,-1
 63 369 l 1,6,-1
 140 369 l 1,7,8
 119 408 119 408 107.5 439.5 c 128,-1,9
 96 471 96 471 96 504 c 0,10,11
 96 587 96 587 166.5 633 c 128,-1,12
 237 679 237 679 344 679 c 0,13,14
 431 679 431 679 496 641.5 c 128,-1,15
 561 604 561 604 589 537 c 1,16,-1
 461 491 l 1,17,18
 450 529 450 529 418 547.5 c 128,-1,19
 386 566 386 566 345 566 c 0,20,21
 301 566 301 566 273 546 c 128,-1,22
 245 526 245 526 245 493 c 0,23,24
 245 468 245 468 254.5 445.5 c 128,-1,25
 264 423 264 423 283 387 c 2,26,-1
 293 369 l 1,27,-1
 460 369 l 1,28,-1
 460 299 l 1,29,-1
 326 299 l 1,30,31
 334 278 334 278 334 252 c 0,32,33
 334 212 334 212 305.5 176 c 128,-1,34
 277 140 277 140 231 111 c 1,35,36
 263 129 263 129 311 129 c 0,37,38
 339 129 339 129 389 117 c 0,39,40
 433 106 433 106 458 106 c 0,41,42
 508 106 508 106 562 136 c 1,43,-1
 603 22 l 1,44,45
 567 5 567 5 530 -3.5 c 128,-1,46
 493 -12 493 -12 448 -12 c 0,47,48
 424 -12 424 -12 401.5 -7.5 c 128,-1,49
 379 -3 379 -3 346 6 c 0,50,51
 314 15 314 15 292.5 19.5 c 128,-1,52
 271 24 271 24 249 24 c 0,53,54
 181 24 181 24 114 -12 c 1,55,-1
 63 96 l 1,56,0
 124 125 124 125 155.5 159.5 c 128,-1,1
EndSplineSet
EndChar
StartChar: currency
Encoding: 164 164 312
Width: 594
GlyphClass: 1
Flags: W
LayerCount: 2
Fore
SplineSet
53 128 m 1,0,-1
 120 194 l 1,1,2
 78 252 78 252 78 321 c 256,3,4
 78 390 78 390 120 448 c 1,5,-1
 53 514 l 1,6,-1
 103 564 l 1,7,-1
 169 497 l 1,8,9
 227 539 227 539 297 539 c 0,10,11
 368 539 368 539 424 497 c 1,12,-1
 491 564 l 1,13,-1
 541 514 l 1,14,-1
 474 448 l 1,15,16
 516 388 516 388 516 321 c 256,17,18
 516 254 516 254 474 194 c 1,19,-1
 541 128 l 1,20,-1
 491 78 l 1,21,-1
 424 145 l 1,22,23
 368 103 368 103 297 103 c 0,24,25
 227 103 227 103 169 145 c 1,26,-1
 103 78 l 1,27,-1
 53 128 l 1,0,-1
371.5 246.5 m 128,-1,29
 402 277 402 277 402 321 c 256,30,31
 402 365 402 365 371.5 395.5 c 128,-1,32
 341 426 341 426 297 426 c 256,33,34
 253 426 253 426 222 395.5 c 128,-1,35
 191 365 191 365 191 321 c 256,36,37
 191 277 191 277 222 246.5 c 128,-1,38
 253 216 253 216 297 216 c 256,39,28
 341 216 341 216 371.5 246.5 c 128,-1,29
EndSplineSet
EndChar
StartChar: yen
Encoding: 165 165 317
Width: 653
GlyphClass: 1
Flags: W
LayerCount: 2
Fore
SplineSet
253 77 m 1,0,-1
 121 77 l 1,1,-1
 121 147 l 1,2,-1
 253 147 l 1,3,-1
 253 214 l 1,4,-1
 121 214 l 1,5,-1
 121 284 l 1,6,-1
 238 284 l 1,7,-1
 0 668 l 1,8,-1
 171 668 l 1,9,-1
 326 401 l 1,10,-1
 480 668 l 1,11,-1
 653 668 l 1,12,-1
 415 284 l 1,13,-1
 533 284 l 1,14,-1
 533 214 l 1,15,-1
 400 214 l 1,16,-1
 400 147 l 1,17,-1
 533 147 l 1,18,-1
 533 77 l 1,19,-1
 400 77 l 1,20,-1
 400 0 l 1,21,-1
 253 0 l 1,22,-1
 253 77 l 1,0,-1
EndSplineSet
EndChar
StartChar: brokenbar
Encoding: 166 166 306
Width: 255
GlyphClass: 1
Flags: W
LayerCount: 2
Fore
SplineSet
59 233 m 1,0,-1
 195 233 l 1,1,-1
 195 -162 l 1,2,-1
 59 -162 l 1,3,-1
 59 233 l 1,0,-1
59 838 m 1,4,-1
 195 838 l 1,5,-1
 195 443 l 1,6,-1
 59 443 l 1,7,-1
 59 838 l 1,4,-1
EndSplineSet
EndChar
StartChar: section
Encoding: 167 167 300
Width: 556
GlyphClass: 1
Flags: W
LayerCount: 2
Fore
SplineSet
137 -137 m 128,-1,1
 83 -101 83 -101 60 -36 c 1,2,-1
 182 7 l 1,3,4
 201 -63 201 -63 273 -63 c 0,5,6
 307 -63 307 -63 328 -48.5 c 128,-1,7
 349 -34 349 -34 349 -14 c 0,8,9
 349 5 349 5 330 22.5 c 128,-1,10
 311 40 311 40 271 60 c 2,11,-1
 163 112 l 2,12,13
 89 149 89 149 53.5 189.5 c 128,-1,14
 18 230 18 230 18 288 c 0,15,16
 18 364 18 364 104 418 c 1,17,18
 67 461 67 461 67 512 c 0,19,20
 67 562 67 562 95.5 600 c 128,-1,21
 124 638 124 638 174 659.5 c 128,-1,22
 224 681 224 681 287 681 c 0,23,24
 366 681 366 681 420 645 c 128,-1,25
 474 609 474 609 497 544 c 1,26,-1
 375 501 l 1,27,28
 356 571 356 571 284 571 c 0,29,30
 249 571 249 571 228.5 556.5 c 128,-1,31
 208 542 208 542 208 522 c 0,32,33
 208 503 208 503 227 485.5 c 128,-1,34
 246 468 246 468 286 448 c 2,35,-1
 394 396 l 2,36,37
 468 359 468 359 503.5 318.5 c 128,-1,38
 539 278 539 278 539 220 c 0,39,40
 539 144 539 144 453 90 c 1,41,42
 490 47 490 47 490 -4 c 0,43,44
 490 -54 490 -54 461.5 -92 c 128,-1,45
 433 -130 433 -130 383 -151.5 c 128,-1,46
 333 -173 333 -173 270 -173 c 0,47,0
 191 -173 191 -173 137 -137 c 128,-1,1
392 182.5 m 128,-1,49
 401 194 401 194 401 210 c 0,50,51
 401 232 401 232 385 247 c 128,-1,52
 369 262 369 262 333 280 c 2,53,-1
 194 349 l 1,54,55
 174 337 174 337 165 325.5 c 128,-1,56
 156 314 156 314 156 298 c 0,57,58
 156 276 156 276 172 261 c 128,-1,59
 188 246 188 246 224 228 c 2,60,-1
 363 159 l 1,61,48
 383 171 383 171 392 182.5 c 128,-1,49
EndSplineSet
EndChar
StartChar: copyright
Encoding: 169 169 301
Width: 798
GlyphClass: 1
Flags: W
LayerCount: 2
Fore
SplineSet
225 33.5 m 128,-1,1
 145 80 145 80 98.5 160 c 128,-1,2
 52 240 52 240 52 334 c 256,3,4
 52 428 52 428 98.5 508 c 128,-1,5
 145 588 145 588 225 634.5 c 128,-1,6
 305 681 305 681 399 681 c 256,7,8
 493 681 493 681 573 634.5 c 128,-1,9
 653 588 653 588 699.5 508 c 128,-1,10
 746 428 746 428 746 334 c 256,11,12
 746 240 746 240 699.5 160 c 128,-1,13
 653 80 653 80 573 33.5 c 128,-1,14
 493 -13 493 -13 399 -13 c 256,15,0
 305 -13 305 -13 225 33.5 c 128,-1,1
267 195 m 128,-1,17
 219 247 219 247 219 335 c 0,18,19
 219 422 219 422 269 474 c 128,-1,20
 319 526 319 526 401 526 c 0,21,22
 453 526 453 526 496 503.5 c 128,-1,23
 539 481 539 481 562 434 c 1,24,-1
 473 401 l 1,25,26
 456 445 456 445 406 445 c 0,27,28
 371 445 371 445 348.5 418 c 128,-1,29
 326 391 326 391 326 335 c 0,30,31
 326 278 326 278 349 251 c 128,-1,32
 372 224 372 224 406 224 c 0,33,34
 455 224 455 224 475 260 c 1,35,-1
 561 228 l 1,36,37
 536 185 536 185 493 164 c 128,-1,38
 450 143 450 143 401 143 c 0,39,16
 315 143 315 143 267 195 c 128,-1,17
538.5 92.5 m 128,-1,41
 602 130 602 130 639.5 194 c 128,-1,42
 677 258 677 258 677 334 c 256,43,44
 677 410 677 410 639.5 474 c 128,-1,45
 602 538 602 538 538.5 575.5 c 128,-1,46
 475 613 475 613 399 613 c 256,47,48
 323 613 323 613 259.5 575.5 c 128,-1,49
 196 538 196 538 158.5 474 c 128,-1,50
 121 410 121 410 121 334 c 256,51,52
 121 258 121 258 158.5 194 c 128,-1,53
 196 130 196 130 259.5 92.5 c 128,-1,54
 323 55 323 55 399 55 c 256,55,40
 475 55 475 55 538.5 92.5 c 128,-1,41
EndSplineSet
EndChar
StartChar: ordfeminine
Encoding: 170 170 223
Width: 391
GlyphClass: 1
Flags: W
LayerCount: 2
Fore
SplineSet
81.5 418.5 m 128,-1,1
 53 443 53 443 53 479 c 0,2,3
 53 519 53 519 76 540 c 128,-1,4
 99 561 99 561 131.5 569 c 128,-1,5
 164 577 164 577 217 583 c 0,6,7
 224 583 224 583 238 585 c 1,8,9
 238 604 238 604 228.5 613.5 c 128,-1,10
 219 623 219 623 196 623 c 0,11,12
 180 623 180 623 168.5 617 c 128,-1,13
 157 611 157 611 154 599 c 1,14,-1
 71 628 l 1,15,16
 100 688 100 688 207 688 c 0,17,18
 270 688 270 688 301 662 c 128,-1,19
 332 636 332 636 332 576 c 2,20,-1
 332 512 l 2,21,22
 332 447 332 447 338 400 c 1,23,-1
 258 400 l 1,24,-1
 249 435 l 1,25,26
 224 394 224 394 159 394 c 0,27,0
 110 394 110 394 81.5 418.5 c 128,-1,1
225.5 475.5 m 128,-1,29
 240 488 240 488 240 509 c 2,30,-1
 240 525 l 1,31,32
 190 524 190 524 171 515 c 128,-1,33
 152 506 152 506 152 488 c 0,34,35
 152 477 152 477 161 470 c 128,-1,36
 170 463 170 463 187 463 c 0,37,28
 211 463 211 463 225.5 475.5 c 128,-1,29
EndSplineSet
EndChar
StartChar: guillemotleft
Encoding: 171 171 289
Width: 652
GlyphClass: 1
Flags: W
LayerCount: 2
Fore
SplineSet
289 250 m 1,0,-1
 437 460 l 1,1,-1
 599 460 l 1,2,-1
 450 250 l 1,3,-1
 599 40 l 1,4,-1
 437 40 l 1,5,-1
 289 250 l 1,0,-1
53 250 m 1,6,-1
 201 460 l 1,7,-1
 363 460 l 1,8,-1
 214 250 l 1,9,-1
 363 40 l 1,10,-1
 201 40 l 1,11,-1
 53 250 l 1,6,-1
EndSplineSet
EndChar
StartChar: logicalnot
Encoding: 172 172 332
Width: 616
GlyphClass: 1
Flags: W
LayerCount: 2
Fore
SplineSet
442 298 m 1,0,-1
 53 298 l 1,1,-1
 53 418 l 1,2,-1
 563 418 l 1,3,-1
 563 61 l 1,4,-1
 442 61 l 1,5,-1
 442 298 l 1,0,-1
EndSplineSet
EndChar
StartChar: registered
Encoding: 174 174 302
Width: 798
GlyphClass: 1
Flags: W
LayerCount: 2
Fore
SplineSet
225 33.5 m 128,-1,1
 145 80 145 80 98.5 160 c 128,-1,2
 52 240 52 240 52 334 c 256,3,4
 52 428 52 428 98.5 508 c 128,-1,5
 145 588 145 588 225 634.5 c 128,-1,6
 305 681 305 681 399 681 c 256,7,8
 493 681 493 681 573 634.5 c 128,-1,9
 653 588 653 588 699.5 508 c 128,-1,10
 746 428 746 428 746 334 c 256,11,12
 746 240 746 240 699.5 160 c 128,-1,13
 653 80 653 80 573 33.5 c 128,-1,14
 493 -13 493 -13 399 -13 c 256,15,0
 305 -13 305 -13 225 33.5 c 128,-1,1
538.5 92.5 m 128,-1,17
 602 130 602 130 639.5 194 c 128,-1,18
 677 258 677 258 677 334 c 256,19,20
 677 410 677 410 639.5 474 c 128,-1,21
 602 538 602 538 538.5 575.5 c 128,-1,22
 475 613 475 613 399 613 c 256,23,24
 323 613 323 613 259.5 575.5 c 128,-1,25
 196 538 196 538 158.5 474 c 128,-1,26
 121 410 121 410 121 334 c 256,27,28
 121 258 121 258 158.5 194 c 128,-1,29
 196 130 196 130 259.5 92.5 c 128,-1,30
 323 55 323 55 399 55 c 256,31,16
 475 55 475 55 538.5 92.5 c 128,-1,17
245 529 m 1,32,-1
 396 529 l 2,33,34
 474 529 474 529 516 504 c 128,-1,35
 558 479 558 479 558 415 c 0,36,37
 558 378 558 378 537.5 350 c 128,-1,38
 517 322 517 322 471 310 c 1,39,-1
 578 162 l 1,40,-1
 474 162 l 1,41,-1
 373 300 l 1,42,-1
 339 300 l 1,43,-1
 339 162 l 1,44,-1
 245 162 l 1,45,-1
 245 529 l 1,32,-1
444 381.5 m 128,-1,47
 462 391 462 391 462 414 c 0,48,49
 462 438 462 438 444 446.5 c 128,-1,50
 426 455 426 455 391 455 c 2,51,-1
 339 455 l 1,52,-1
 339 372 l 1,53,-1
 392 372 l 2,54,46
 426 372 426 372 444 381.5 c 128,-1,47
EndSplineSet
EndChar
StartChar: degree
Encoding: 176 176 304
Width: 396
GlyphClass: 1
Flags: W
LayerCount: 2
Fore
SplineSet
119 384.5 m 128,-1,1
 83 406 83 406 61.5 442.5 c 128,-1,2
 40 479 40 479 40 522 c 256,3,4
 40 565 40 565 61.5 601 c 128,-1,5
 83 637 83 637 119 658.5 c 128,-1,6
 155 680 155 680 198 680 c 256,7,8
 241 680 241 680 277.5 658.5 c 128,-1,9
 314 637 314 637 335 601 c 128,-1,10
 356 565 356 565 356 522 c 256,11,12
 356 479 356 479 335 442.5 c 128,-1,13
 314 406 314 406 277.5 384.5 c 128,-1,14
 241 363 241 363 198 363 c 256,15,0
 155 363 155 363 119 384.5 c 128,-1,1
250 470.5 m 128,-1,17
 271 492 271 492 271 522 c 256,18,19
 271 552 271 552 250 573.5 c 128,-1,20
 229 595 229 595 198 595 c 0,21,22
 168 595 168 595 146.5 573.5 c 128,-1,23
 125 552 125 552 125 522 c 256,24,25
 125 492 125 492 146.5 470.5 c 128,-1,26
 168 449 168 449 198 449 c 0,27,16
 229 449 229 449 250 470.5 c 128,-1,17
EndSplineSet
EndChar
StartChar: plusminus
Encoding: 177 177 330
Width: 612
GlyphClass: 1
Flags: W
LayerCount: 2
Fore
SplineSet
246 281 m 1,0,-1
 53 281 l 1,1,-1
 53 385 l 1,2,-1
 246 385 l 1,3,-1
 246 496 l 1,4,-1
 366 496 l 1,5,-1
 366 385 l 1,6,-1
 559 385 l 1,7,-1
 559 281 l 1,8,-1
 366 281 l 1,9,-1
 366 171 l 1,10,-1
 246 171 l 1,11,-1
 246 281 l 1,0,-1
53 120 m 1,12,-1
 559 120 l 1,13,-1
 559 0 l 1,14,-1
 53 0 l 1,15,-1
 53 120 l 1,12,-1
EndSplineSet
EndChar
StartChar: uni00B2
Encoding: 178 178 254
Width: 403
GlyphClass: 1
Flags: W
LayerCount: 2
Fore
SplineSet
203 594.5 m 128,-1,1
 251 638 251 638 251 675 c 0,2,3
 251 694 251 694 238.5 704 c 128,-1,4
 226 714 226 714 206 714 c 0,5,6
 184 714 184 714 169.5 701.5 c 128,-1,7
 155 689 155 689 151 669 c 1,8,-1
 64 699 l 1,9,10
 79 741 79 741 117 763.5 c 128,-1,11
 155 786 155 786 210 786 c 0,12,13
 272 786 272 786 310.5 759 c 128,-1,14
 349 732 349 732 349 679 c 0,15,16
 349 628 349 628 310 585.5 c 128,-1,17
 271 543 271 543 185 485 c 1,18,-1
 349 485 l 1,19,-1
 349 403 l 1,20,-1
 53 403 l 1,21,-1
 53 480 l 1,22,0
 155 551 155 551 203 594.5 c 128,-1,1
EndSplineSet
EndChar
StartChar: uni00B3
Encoding: 179 179 255
Width: 408
GlyphClass: 1
Flags: W
LayerCount: 2
Fore
SplineSet
109.5 418 m 128,-1,1
 71 440 71 440 53 480 c 1,2,-1
 139 511 l 1,3,4
 146 491 146 491 162.5 480 c 128,-1,5
 179 469 179 469 202 469 c 0,6,7
 227 469 227 469 241.5 481.5 c 128,-1,8
 256 494 256 494 256 513 c 0,9,10
 256 535 256 535 235 546 c 128,-1,11
 214 557 214 557 165 556 c 1,12,-1
 165 635 l 1,13,14
 210 635 210 635 229 645 c 128,-1,15
 248 655 248 655 248 676 c 0,16,17
 248 695 248 695 234 704.5 c 128,-1,18
 220 714 220 714 199 714 c 0,19,20
 179 714 179 714 164 704.5 c 128,-1,21
 149 695 149 695 143 677 c 1,22,-1
 58 708 l 1,23,24
 74 746 74 746 111.5 766 c 128,-1,25
 149 786 149 786 203 786 c 0,26,27
 266 786 266 786 305.5 759 c 128,-1,28
 345 732 345 732 345 684 c 0,29,30
 345 656 345 656 331 634 c 128,-1,31
 317 612 317 612 296 601 c 1,32,33
 324 591 324 591 339.5 567 c 128,-1,34
 355 543 355 543 355 511 c 0,35,36
 355 460 355 460 312 428 c 128,-1,37
 269 396 269 396 206 396 c 0,38,0
 148 396 148 396 109.5 418 c 128,-1,1
EndSplineSet
EndChar
StartChar: paragraph
Encoding: 182 182 299
Width: 522
GlyphClass: 1
Flags: W
LayerCount: 2
Fore
SplineSet
69.5 362 m 128,-1,1
 29 413 29 413 29 479 c 0,2,3
 29 530 29 530 54.5 573.5 c 128,-1,4
 80 617 80 617 123.5 642.5 c 128,-1,5
 167 668 167 668 218 668 c 2,6,-1
 496 668 l 1,7,-1
 496 601 l 1,8,-1
 450 601 l 1,9,-1
 450 -162 l 1,10,-1
 357 -162 l 1,11,-1
 357 601 l 1,12,-1
 265 601 l 1,13,-1
 265 -162 l 1,14,-1
 172 -162 l 1,15,-1
 172 296 l 1,16,0
 110 311 110 311 69.5 362 c 128,-1,1
EndSplineSet
EndChar
StartChar: uni00B9
Encoding: 185 185 253
Width: 286
GlyphClass: 1
Flags: W
LayerCount: 2
Fore
SplineSet
137 653 m 1,0,-1
 53 653 l 1,1,-1
 53 733 l 1,2,3
 101 732 101 732 125.5 743 c 128,-1,4
 150 754 150 754 157 779 c 1,5,-1
 233 779 l 1,6,-1
 233 403 l 1,7,-1
 137 403 l 1,8,-1
 137 653 l 1,0,-1
EndSplineSet
EndChar
StartChar: ordmasculine
Encoding: 186 186 224
Width: 404
GlyphClass: 1
Flags: W
LayerCount: 2
Fore
SplineSet
94.5 431.5 m 128,-1,1
 52 469 52 469 52 541 c 256,2,3
 52 613 52 613 94.5 650.5 c 128,-1,4
 137 688 137 688 202 688 c 256,5,6
 267 688 267 688 309.5 650.5 c 128,-1,7
 352 613 352 613 352 541 c 256,8,9
 352 469 352 469 309.5 431.5 c 128,-1,10
 267 394 267 394 202 394 c 256,11,0
 137 394 137 394 94.5 431.5 c 128,-1,1
239.5 486.5 m 128,-1,13
 254 506 254 506 254 541 c 256,14,15
 254 576 254 576 239.5 595.5 c 128,-1,16
 225 615 225 615 202 615 c 256,17,18
 179 615 179 615 164.5 595.5 c 128,-1,19
 150 576 150 576 150 541 c 256,20,21
 150 506 150 506 164.5 486.5 c 128,-1,22
 179 467 179 467 202 467 c 256,23,12
 225 467 225 467 239.5 486.5 c 128,-1,13
EndSplineSet
EndChar
StartChar: guillemotright
Encoding: 187 187 290
Width: 652
GlyphClass: 1
Flags: W
LayerCount: 2
Fore
SplineSet
438 250 m 1,0,-1
 289 460 l 1,1,-1
 451 460 l 1,2,-1
 599 250 l 1,3,-1
 451 40 l 1,4,-1
 289 40 l 1,5,-1
 438 250 l 1,0,-1
202 250 m 1,6,-1
 53 460 l 1,7,-1
 215 460 l 1,8,-1
 363 250 l 1,9,-1
 215 40 l 1,10,-1
 53 40 l 1,11,-1
 202 250 l 1,6,-1
EndSplineSet
EndChar
StartChar: onequarter
Encoding: 188 188 251
Width: 847
GlyphClass: 3
Flags: W
LayerCount: 2
Fore
SplineSet
579 668 m 1,0,-1
 700 668 l 1,1,-1
 232 0 l 1,2,-1
 111 0 l 1,3,-1
 579 668 l 1,0,-1
137 541 m 1,4,-1
 53 541 l 1,5,-1
 53 623 l 1,6,7
 99 623 99 623 123.5 631.5 c 128,-1,8
 148 640 148 640 157 668 c 1,9,-1
 233 668 l 1,10,-1
 233 293 l 1,11,-1
 137 293 l 1,12,-1
 137 541 l 1,4,-1
639 158 m 1,13,-1
 639 261 l 1,14,-1
 556 158 l 1,15,-1
 639 158 l 1,13,-1
639 76 m 1,16,-1
 458 76 l 1,17,-1
 458 150 l 1,18,-1
 639 375 l 1,19,-1
 735 375 l 1,20,-1
 735 158 l 1,21,-1
 794 158 l 1,22,-1
 794 76 l 1,23,-1
 735 76 l 1,24,-1
 735 0 l 1,25,-1
 639 0 l 1,26,-1
 639 76 l 1,16,-1
EndSplineSet
Ligature2: "'frac' Diagonal Fractions in Latin lookup 7 subtable" one slash four
EndChar
StartChar: onehalf
Encoding: 189 189 250
Width: 854
GlyphClass: 3
Flags: W
LayerCount: 2
Fore
SplineSet
579 668 m 1,0,-1
 700 668 l 1,1,-1
 232 0 l 1,2,-1
 111 0 l 1,3,-1
 579 668 l 1,0,-1
137 541 m 1,4,-1
 53 541 l 1,5,-1
 53 623 l 1,6,7
 99 623 99 623 123.5 631.5 c 128,-1,8
 148 640 148 640 157 668 c 1,9,-1
 233 668 l 1,10,-1
 233 293 l 1,11,-1
 137 293 l 1,12,-1
 137 541 l 1,4,-1
618 160 m 128,-1,14
 654 187 654 187 678 215 c 128,-1,15
 702 243 702 243 702 268 c 0,16,17
 702 289 702 289 689 300 c 128,-1,18
 676 311 676 311 656 311 c 0,19,20
 634 311 634 311 620 298.5 c 128,-1,21
 606 286 606 286 601 265 c 1,22,-1
 514 296 l 1,23,24
 529 337 529 337 567 359.5 c 128,-1,25
 605 382 605 382 660 382 c 0,26,27
 723 382 723 382 761.5 354.5 c 128,-1,28
 800 327 800 327 800 275 c 0,29,30
 800 224 800 224 761 182.5 c 128,-1,31
 722 141 722 141 636 82 c 1,32,-1
 800 82 l 1,33,-1
 800 0 l 1,34,-1
 504 0 l 1,35,-1
 504 77 l 1,36,13
 582 133 582 133 618 160 c 128,-1,14
EndSplineSet
Ligature2: "'frac' Diagonal Fractions in Latin lookup 7 subtable" one slash two
EndChar
StartChar: threequarters
Encoding: 190 190 252
Width: 923
GlyphClass: 3
Flags: W
LayerCount: 2
Fore
SplineSet
654 668 m 1,0,-1
 775 668 l 1,1,-1
 307 0 l 1,2,-1
 186 0 l 1,3,-1
 654 668 l 1,0,-1
108.5 312 m 128,-1,5
 70 334 70 334 53 373 c 1,6,-1
 139 403 l 1,7,8
 147 383 147 383 163.5 372.5 c 128,-1,9
 180 362 180 362 202 362 c 0,10,11
 228 362 228 362 242 373.5 c 128,-1,12
 256 385 256 385 256 404 c 0,13,14
 256 429 256 429 235 439.5 c 128,-1,15
 214 450 214 450 165 450 c 1,16,-1
 165 527 l 1,17,18
 209 527 209 527 228.5 537.5 c 128,-1,19
 248 548 248 548 248 570 c 0,20,21
 248 588 248 588 233.5 597.5 c 128,-1,22
 219 607 219 607 199 607 c 0,23,24
 180 607 180 607 164.5 597.5 c 128,-1,25
 149 588 149 588 143 570 c 1,26,-1
 58 601 l 1,27,28
 75 639 75 639 113 659 c 128,-1,29
 151 679 151 679 206 679 c 0,30,31
 267 679 267 679 306 652 c 128,-1,32
 345 625 345 625 345 577 c 0,33,34
 345 549 345 549 331 526.5 c 128,-1,35
 317 504 317 504 296 494 c 1,36,37
 324 484 324 484 339.5 460 c 128,-1,38
 355 436 355 436 355 404 c 0,39,40
 355 351 355 351 310.5 320.5 c 128,-1,41
 266 290 266 290 201 290 c 0,42,4
 147 290 147 290 108.5 312 c 128,-1,5
715 76 m 1,43,-1
 533 76 l 1,44,-1
 533 150 l 1,45,-1
 715 375 l 1,46,-1
 811 375 l 1,47,-1
 811 158 l 1,48,-1
 870 158 l 1,49,-1
 870 76 l 1,50,-1
 811 76 l 1,51,-1
 811 0 l 1,52,-1
 715 0 l 1,53,-1
 715 76 l 1,43,-1
715 158 m 1,54,-1
 715 261 l 1,55,-1
 631 158 l 1,56,-1
 715 158 l 1,54,-1
EndSplineSet
Ligature2: "'frac' Diagonal Fractions in Latin lookup 7 subtable" three slash four
EndChar
StartChar: questiondown
Encoding: 191 191 266
Width: 529
GlyphClass: 1
Flags: W
LayerCount: 2
Fore
SplineSet
145.5 -163 m 128,-1,1
 89 -144 89 -144 54.5 -105 c 128,-1,2
 20 -66 20 -66 20 -10 c 256,3,4
 20 46 20 46 50.5 84.5 c 128,-1,5
 81 123 81 123 146 156 c 0,6,7
 199 182 199 182 220 203 c 128,-1,8
 241 224 241 224 241 253 c 2,9,-1
 241 272 l 1,10,-1
 384 272 l 1,11,-1
 384 252 l 2,12,13
 384 190 384 190 358 153 c 128,-1,14
 332 116 332 116 261 80 c 0,15,16
 208 54 208 54 186.5 36 c 128,-1,17
 165 18 165 18 165 -4 c 0,18,19
 165 -33 165 -33 194.5 -50.5 c 128,-1,20
 224 -68 224 -68 274 -68 c 0,21,22
 322 -68 322 -68 355.5 -48 c 128,-1,23
 389 -28 389 -28 401 10 c 1,24,-1
 529 -36 l 1,25,26
 504 -106 504 -106 435 -144 c 128,-1,27
 366 -182 366 -182 268 -182 c 0,28,0
 202 -182 202 -182 145.5 -163 c 128,-1,1
246 352 m 128,-1,30
 219 379 219 379 219 417 c 256,31,32
 219 455 219 455 246 482.5 c 128,-1,33
 273 510 273 510 311 510 c 0,34,35
 350 510 350 510 377 482.5 c 128,-1,36
 404 455 404 455 404 417 c 256,37,38
 404 379 404 379 377 352 c 128,-1,39
 350 325 350 325 311 325 c 0,40,29
 273 325 273 325 246 352 c 128,-1,30
EndSplineSet
EndChar
StartChar: Aring
Encoding: 197 197 10
Width: 680
GlyphClass: 2
Flags: W
AnchorPoint: "Anchor-2" 674 10 basechar 0
AnchorPoint: "Anchor-1" 340 857 basechar 0
AnchorPoint: "Anchor-0" 340 0 basechar 0
LayerCount: 2
Fore
SplineSet
221 680.5 m 128,-1,1
 212 704 212 704 212 729 c 0,2,3
 212 782 212 782 249.5 819.5 c 128,-1,4
 287 857 287 857 340 857 c 256,5,6
 393 857 393 857 430.5 819.5 c 128,-1,7
 468 782 468 782 468 729 c 0,8,9
 468 704 468 704 459 680.5 c 128,-1,10
 450 657 450 657 433 640 c 1,11,-1
 674 0 l 1,12,-1
 513 0 l 1,13,-1
 472 123 l 1,14,-1
 208 123 l 1,15,-1
 167 0 l 1,16,-1
 6 0 l 1,17,-1
 247 640 l 1,18,0
 230 657 230 657 221 680.5 c 128,-1,1
431 244 m 1,19,-1
 339 512 l 1,20,-1
 248 244 l 1,21,-1
 431 244 l 1,19,-1
374 695 m 128,-1,23
 388 709 388 709 388 729 c 256,24,25
 388 749 388 749 374 763 c 128,-1,26
 360 777 360 777 340 777 c 256,27,28
 320 777 320 777 306 763 c 128,-1,29
 292 749 292 749 292 729 c 256,30,31
 292 709 292 709 306 695 c 128,-1,32
 320 681 320 681 340 681 c 256,33,22
 360 681 360 681 374 695 c 128,-1,23
EndSplineSet
EndChar
StartChar: AE
Encoding: 198 198 12
Width: 969
GlyphClass: 2
Flags: W
AnchorPoint: "Anchor-1" 516 668 basechar 0
AnchorPoint: "Anchor-0" 516 0 basechar 0
LayerCount: 2
Fore
SplineSet
374 668 m 1,0,-1
 934 668 l 1,1,-1
 934 538 l 1,2,-1
 608 538 l 1,3,-1
 608 408 l 1,4,-1
 802 408 l 1,5,-1
 802 279 l 1,6,-1
 608 279 l 1,7,-1
 608 130 l 1,8,-1
 934 130 l 1,9,-1
 934 0 l 1,10,-1
 460 0 l 1,11,-1
 460 123 l 1,12,-1
 231 123 l 1,13,-1
 165 0 l 1,14,-1
 0 0 l 1,15,-1
 374 668 l 1,0,-1
460 244 m 1,16,-1
 460 548 l 1,17,-1
 296 244 l 1,18,-1
 460 244 l 1,16,-1
EndSplineSet
EndChar
StartChar: Ccedilla
Encoding: 199 199 17
Width: 659
GlyphClass: 2
Flags: W
AnchorPoint: "Anchor-1" 364 668 basechar 0
LayerCount: 2
Fore
SplineSet
265 -172 m 1,1,-1
 281 -125 l 1,2,3
 309 -138 309 -138 341 -138 c 0,4,5
 362 -138 362 -138 374.5 -131 c 128,-1,6
 387 -124 387 -124 387 -110 c 0,7,8
 387 -98 387 -98 376.5 -90.5 c 128,-1,9
 366 -83 366 -83 349 -83 c 0,10,11
 337 -83 337 -83 322 -88 c 0,12,13
 311 -92 311 -92 302.5 -85.5 c 128,-1,14
 294 -79 294 -79 294 -69 c 0,15,16
 294 -64 294 -64 297 -59 c 2,17,-1
 327 -11 l 1,18,19
 235 -4 235 -4 168.5 40.5 c 128,-1,20
 102 85 102 85 67 160 c 128,-1,21
 32 235 32 235 32 334 c 0,22,23
 32 439 32 439 73 517 c 128,-1,24
 114 595 114 595 189.5 637.5 c 128,-1,25
 265 680 265 680 366 680 c 0,26,27
 457 680 457 680 527.5 639 c 128,-1,28
 598 598 598 598 637 526 c 1,29,-1
 506 478 l 1,30,31
 484 518 484 518 445.5 538 c 128,-1,32
 407 558 407 558 361 558 c 0,33,34
 312 558 312 558 272.5 531.5 c 128,-1,35
 233 505 233 505 210.5 454 c 128,-1,36
 188 403 188 403 188 334 c 0,37,38
 188 264 188 264 210.5 213.5 c 128,-1,39
 233 163 233 163 273 136.5 c 128,-1,40
 313 110 313 110 363 110 c 0,41,42
 409 110 409 110 449 129 c 128,-1,43
 489 148 489 148 511 189 c 1,44,-1
 641 142 l 1,45,46
 603 74 603 74 535 33.5 c 128,-1,47
 467 -7 467 -7 381 -11 c 1,48,-1
 359 -48 l 1,49,50
 377 -44 377 -44 392 -44 c 0,51,52
 425 -44 425 -44 450 -60 c 128,-1,53
 475 -76 475 -76 475 -107 c 0,54,55
 475 -145 475 -145 440 -165.5 c 128,-1,56
 405 -186 405 -186 353 -186 c 0,57,0
 305 -186 305 -186 265 -172 c 1,1,-1
EndSplineSet
EndChar
StartChar: multiply
Encoding: 215 215 322
Width: 536
GlyphClass: 1
Flags: W
LayerCount: 2
Fore
SplineSet
45 110 m 1,0,-1
 184 248 l 1,1,-1
 42 388 l 1,2,-1
 128 474 l 1,3,-1
 269 332 l 1,4,-1
 408 474 l 1,5,-1
 494 388 l 1,6,-1
 353 248 l 1,7,-1
 491 110 l 1,8,-1
 406 25 l 1,9,-1
 269 163 l 1,10,-1
 131 25 l 1,11,-1
 45 110 l 1,0,-1
EndSplineSet
EndChar
StartChar: Oslash
Encoding: 216 216 68
Width: 748
GlyphClass: 2
Flags: W
AnchorPoint: "Anchor-3" 731 668 basechar 0
AnchorPoint: "Anchor-1" 374 668 basechar 0
AnchorPoint: "Anchor-0" 374 0 basechar 0
LayerCount: 2
Fore
SplineSet
173 46 m 1,1,-1
 124 -11 l 1,2,-1
 70 35 l 1,3,-1
 119 92 l 1,4,5
 77 138 77 138 54.5 199.5 c 128,-1,6
 32 261 32 261 32 334 c 0,7,8
 32 436 32 436 75.5 514.5 c 128,-1,9
 119 593 119 593 196.5 636.5 c 128,-1,10
 274 680 274 680 374 680 c 0,11,12
 490 680 490 680 576 622 c 1,13,-1
 624 678 l 1,14,-1
 677 633 l 1,15,-1
 629 576 l 1,16,17
 671 530 671 530 693.5 468.5 c 128,-1,18
 716 407 716 407 716 334 c 0,19,20
 716 232 716 232 672.5 153.5 c 128,-1,21
 629 75 629 75 551.5 31.5 c 128,-1,22
 474 -12 474 -12 374 -12 c 0,23,0
 258 -12 258 -12 173 46 c 1,1,-1
468 136 m 128,-1,25
 510 162 510 162 534.5 212.5 c 128,-1,26
 559 263 559 263 559 334 c 0,27,28
 559 412 559 412 530 462 c 1,29,-1
 262 150 l 1,30,31
 308 110 308 110 374 110 c 0,32,24
 426 110 426 110 468 136 c 128,-1,25
217 205 m 1,34,-1
 486 518 l 1,35,36
 440 558 440 558 374 558 c 0,37,38
 322 558 322 558 280 532 c 128,-1,39
 238 506 238 506 213.5 455.5 c 128,-1,40
 189 405 189 405 189 334 c 0,41,33
 189 261 189 261 217 205 c 1,34,-1
EndSplineSet
EndChar
StartChar: Thorn
Encoding: 222 222 72
Width: 630
GlyphClass: 2
Flags: W
AnchorPoint: "Anchor-1" 319 668 basechar 0
AnchorPoint: "Anchor-0" 319 0 basechar 0
LayerCount: 2
Fore
SplineSet
59 668 m 1,0,-1
 207 668 l 1,1,-1
 207 557 l 1,2,-1
 348 557 l 2,3,4
 464 557 464 557 536.5 503 c 128,-1,5
 609 449 609 449 609 341 c 256,6,7
 609 233 609 233 536.5 179 c 128,-1,8
 464 125 464 125 348 125 c 2,9,-1
 207 125 l 1,10,-1
 207 0 l 1,11,-1
 59 0 l 1,12,-1
 59 668 l 1,0,-1
424.5 272 m 128,-1,14
 454 294 454 294 454 341 c 0,15,16
 454 387 454 387 424.5 409 c 128,-1,17
 395 431 395 431 345 431 c 2,18,-1
 207 431 l 1,19,-1
 207 250 l 1,20,-1
 345 250 l 2,21,13
 395 250 395 250 424.5 272 c 128,-1,14
EndSplineSet
EndChar
StartChar: germandbls
Encoding: 223 223 193
Width: 623
GlyphClass: 1
Flags: W
LayerCount: 2
Fore
SplineSet
325 106 m 0,1,2
 381 106 381 106 417.5 131 c 128,-1,3
 454 156 454 156 454 211 c 0,4,5
 454 272 454 272 409.5 303.5 c 128,-1,6
 365 335 365 335 292 335 c 2,7,-1
 279 335 l 1,8,-1
 279 447 l 1,9,10
 387 444 387 444 387 512 c 0,11,12
 387 541 387 541 365 558.5 c 128,-1,13
 343 576 343 576 301 576 c 0,14,15
 247 576 247 576 224.5 547.5 c 128,-1,16
 202 519 202 519 202 457 c 2,17,-1
 202 0 l 1,18,-1
 59 0 l 1,19,-1
 59 463 l 2,20,21
 59 578 59 578 120 629 c 128,-1,22
 181 680 181 680 299 680 c 0,23,24
 391 680 391 680 449.5 637 c 128,-1,25
 508 594 508 594 508 517 c 0,26,27
 508 480 508 480 492 450.5 c 128,-1,28
 476 421 476 421 453 403 c 1,29,30
 518 387 518 387 559 333.5 c 128,-1,31
 600 280 600 280 600 204 c 0,32,33
 600 95 600 95 531.5 41.5 c 128,-1,34
 463 -12 463 -12 354 -12 c 0,35,36
 323 -12 323 -12 296 -8 c 1,37,-1
 259 114 l 1,38,0
 299 106 299 106 325 106 c 0,1,2
EndSplineSet
EndChar
StartChar: ae
Encoding: 230 230 122
Width: 879
GlyphClass: 2
Flags: W
AnchorPoint: "Anchor-1" 441 496 basechar 0
AnchorPoint: "Anchor-0" 441 0 basechar 0
LayerCount: 2
Fore
SplineSet
78 28 m 128,-1,1
 24 68 24 68 24 134 c 0,2,3
 24 216 24 216 109 257.5 c 128,-1,4
 194 299 194 299 359 300 c 1,5,-1
 359 326 l 2,6,7
 359 369 359 369 335.5 390.5 c 128,-1,8
 312 412 312 412 268 412 c 0,9,10
 233 412 233 412 209 396 c 128,-1,11
 185 380 185 380 178 350 c 1,12,-1
 57 392 l 1,13,14
 81 445 81 445 138 477 c 128,-1,15
 195 509 195 509 274 509 c 0,16,17
 390 509 390 509 440 447 c 1,18,19
 472 477 472 477 515 493 c 128,-1,20
 558 509 558 509 606 509 c 0,21,22
 685 509 685 509 743.5 470.5 c 128,-1,23
 802 432 802 432 831.5 364.5 c 128,-1,24
 861 297 861 297 856 212 c 1,25,-1
 486 212 l 1,26,27
 495 151 495 151 529 125 c 128,-1,28
 563 99 563 99 608 99 c 0,29,30
 643 99 643 99 669 109.5 c 128,-1,31
 695 120 695 120 710 138 c 1,32,-1
 825 97 l 1,33,34
 789 44 789 44 732 16 c 128,-1,35
 675 -12 675 -12 611 -12 c 0,36,37
 545 -12 545 -12 494.5 10.5 c 128,-1,38
 444 33 444 33 410 74 c 1,39,40
 382 33 382 33 332 10.5 c 128,-1,41
 282 -12 282 -12 211 -12 c 0,42,0
 132 -12 132 -12 78 28 c 128,-1,1
329 114.5 m 128,-1,44
 359 142 359 142 359 209 c 2,45,-1
 359 213 l 1,46,47
 257 213 257 213 214 196 c 128,-1,48
 171 179 171 179 171 143 c 0,49,50
 171 118 171 118 191.5 102.5 c 128,-1,51
 212 87 212 87 246 87 c 0,52,43
 299 87 299 87 329 114.5 c 128,-1,44
690 374.5 m 128,-1,54
 658 402 658 402 609 402 c 0,55,56
 564 402 564 402 530.5 378.5 c 128,-1,57
 497 355 497 355 487 299 c 1,58,-1
 723 299 l 1,59,53
 722 347 722 347 690 374.5 c 128,-1,54
EndSplineSet
EndChar
StartChar: ccedilla
Encoding: 231 231 127
Width: 511
GlyphClass: 2
Flags: W
AnchorPoint: "Anchor-1" 289 496 basechar 0
LayerCount: 2
Fore
SplineSet
182 -172 m 1,1,-1
 198 -125 l 1,2,3
 209 -130 209 -130 226 -134 c 128,-1,4
 243 -138 243 -138 259 -138 c 0,5,6
 279 -138 279 -138 291.5 -131 c 128,-1,7
 304 -124 304 -124 304 -110 c 0,8,9
 304 -98 304 -98 294 -90.5 c 128,-1,10
 284 -83 284 -83 267 -83 c 0,11,12
 254 -83 254 -83 239 -88 c 0,13,14
 228 -92 228 -92 219.5 -85.5 c 128,-1,15
 211 -79 211 -79 211 -69 c 0,16,17
 211 -64 211 -64 214 -59 c 2,18,-1
 244 -10 l 1,19,20
 142 0 142 0 85.5 70 c 128,-1,21
 29 140 29 140 29 250 c 0,22,23
 29 327 29 327 60.5 385.5 c 128,-1,24
 92 444 92 444 149.5 476.5 c 128,-1,25
 207 509 207 509 281 509 c 0,26,27
 351 509 351 509 409.5 478 c 128,-1,28
 468 447 468 447 499 382 c 1,29,-1
 380 339 l 1,30,31
 368 369 368 369 343.5 383.5 c 128,-1,32
 319 398 319 398 288 398 c 0,33,34
 240 398 240 398 207 362 c 128,-1,35
 174 326 174 326 174 250 c 0,36,37
 174 173 174 173 207 136 c 128,-1,38
 240 99 240 99 288 99 c 0,39,40
 320 99 320 99 343.5 112.5 c 128,-1,41
 367 126 367 126 381 149 c 1,42,-1
 498 107 l 1,43,44
 466 50 466 50 413 21 c 128,-1,45
 360 -8 360 -8 299 -11 c 1,46,-1
 276 -48 l 1,47,48
 294 -44 294 -44 309 -44 c 0,49,50
 343 -44 343 -44 368 -60 c 128,-1,51
 393 -76 393 -76 393 -107 c 0,52,53
 393 -145 393 -145 357.5 -165.5 c 128,-1,54
 322 -186 322 -186 270 -186 c 0,55,0
 224 -186 224 -186 182 -172 c 1,1,-1
EndSplineSet
EndChar
StartChar: eth
Encoding: 240 240 132
Width: 589
GlyphClass: 2
Flags: W
AnchorPoint: "Anchor-1" 295 796 basechar 0
AnchorPoint: "Anchor-0" 295 0 basechar 0
LayerCount: 2
Fore
SplineSet
153.5 17 m 128,-1,1
 95 46 95 46 62 98.5 c 128,-1,2
 29 151 29 151 29 220 c 0,3,4
 29 286 29 286 60 338.5 c 128,-1,5
 91 391 91 391 143.5 421 c 128,-1,6
 196 451 196 451 256 451 c 0,7,8
 350 451 350 451 404 395 c 1,9,10
 403 495 403 495 341 552 c 1,11,-1
 276 486 l 1,12,-1
 230 531 l 1,13,-1
 285 586 l 1,14,15
 237 608 237 608 168 608 c 1,16,-1
 168 723 l 1,17,18
 293 723 293 723 373 676 c 1,19,-1
 428 730 l 1,20,-1
 474 684 l 1,21,-1
 427 638 l 1,22,23
 483 595 483 595 517 510 c 128,-1,24
 551 425 551 425 551 318 c 0,25,26
 551 170 551 170 486.5 79 c 128,-1,27
 422 -12 422 -12 287 -12 c 0,28,0
 212 -12 212 -12 153.5 17 c 128,-1,1
370 128.5 m 128,-1,30
 401 163 401 163 401 219 c 256,31,32
 401 275 401 275 369.5 309 c 128,-1,33
 338 343 338 343 287 343 c 256,34,35
 236 343 236 343 205.5 308.5 c 128,-1,36
 175 274 175 274 175 219 c 0,37,38
 175 162 175 162 205.5 128 c 128,-1,39
 236 94 236 94 287 94 c 0,40,29
 339 94 339 94 370 128.5 c 128,-1,30
EndSplineSet
EndChar
StartChar: divide
Encoding: 247 247 323
Width: 594
GlyphClass: 1
Flags: W
LayerCount: 2
Fore
SplineSet
42 308 m 1,0,-1
 552 308 l 1,1,-1
 552 188 l 1,2,-1
 42 188 l 1,3,-1
 42 308 l 1,0,-1
243.5 15 m 128,-1,5
 221 38 221 38 221 70 c 0,6,7
 221 101 221 101 244 123.5 c 128,-1,8
 267 146 267 146 298 146 c 256,9,10
 329 146 329 146 352 123.5 c 128,-1,11
 375 101 375 101 375 70 c 0,12,13
 375 38 375 38 352.5 15 c 128,-1,14
 330 -8 330 -8 298 -8 c 256,15,4
 266 -8 266 -8 243.5 15 c 128,-1,5
243.5 372.5 m 128,-1,17
 221 395 221 395 221 427 c 256,18,19
 221 459 221 459 243.5 481.5 c 128,-1,20
 266 504 266 504 298 504 c 256,21,22
 330 504 330 504 352.5 481.5 c 128,-1,23
 375 459 375 459 375 427 c 256,24,25
 375 395 375 395 352.5 372.5 c 128,-1,26
 330 350 330 350 298 350 c 256,27,16
 266 350 266 350 243.5 372.5 c 128,-1,17
EndSplineSet
EndChar
StartChar: oslash
Encoding: 248 248 179
Width: 577
GlyphClass: 2
Flags: W
AnchorPoint: "Anchor-3" 553 496 basechar 0
AnchorPoint: "Anchor-1" 288 496 basechar 0
AnchorPoint: "Anchor-0" 288 0 basechar 0
LayerCount: 2
Fore
SplineSet
211.5 -2.5 m 128,-1,1
 174 7 174 7 143 26 c 1,2,-1
 100 -24 l 1,3,-1
 46 21 l 1,4,-1
 89 70 l 1,5,6
 29 138 29 138 29 249 c 0,7,8
 29 335 29 335 64.5 393.5 c 128,-1,9
 100 452 100 452 159 480.5 c 128,-1,10
 218 509 218 509 288 509 c 0,11,12
 373 509 373 509 434 471 c 1,13,-1
 477 520 l 1,14,-1
 530 475 l 1,15,-1
 488 426 l 1,16,17
 547 359 547 359 547 249 c 0,18,19
 547 163 547 163 511.5 104 c 128,-1,20
 476 45 476 45 417 16.5 c 128,-1,21
 358 -12 358 -12 288 -12 c 0,22,0
 249 -12 249 -12 211.5 -2.5 c 128,-1,1
371 135 m 128,-1,24
 403 171 403 171 403 249 c 0,25,26
 403 289 403 289 393 316 c 1,27,-1
 223 119 l 1,28,29
 249 99 249 99 288 99 c 0,30,23
 339 99 339 99 371 135 c 128,-1,24
184 180 m 1,32,-1
 354 378 l 1,33,34
 327 398 327 398 288 398 c 0,35,36
 237 398 237 398 205.5 362 c 128,-1,37
 174 326 174 326 174 249 c 0,38,31
 174 207 174 207 184 180 c 1,32,-1
EndSplineSet
EndChar
StartChar: thorn
Encoding: 254 254 183
Width: 597
GlyphClass: 2
Flags: W
AnchorPoint: "Anchor-1" 299 496 basechar 0
AnchorPoint: "Anchor-0" 299 0 basechar 0
LayerCount: 2
Fore
SplineSet
56 708 m 1,0,-1
 197 708 l 1,1,-1
 197 426 l 1,2,3
 220 465 220 465 262.5 487 c 128,-1,4
 305 509 305 509 350 509 c 0,5,6
 413 509 413 509 462.5 477 c 128,-1,7
 512 445 512 445 540 385.5 c 128,-1,8
 568 326 568 326 568 247 c 256,9,10
 568 168 568 168 540 109 c 128,-1,11
 512 50 512 50 462.5 19 c 128,-1,12
 413 -12 413 -12 350 -12 c 0,13,14
 305 -12 305 -12 262.5 10 c 128,-1,15
 220 32 220 32 197 71 c 1,16,-1
 197 -162 l 1,17,-1
 56 -162 l 1,18,-1
 56 708 l 1,0,-1
387.5 138 m 128,-1,20
 420 177 420 177 420 247 c 0,21,22
 420 316 420 316 387.5 357 c 128,-1,23
 355 398 355 398 306 398 c 0,24,25
 255 398 255 398 223 361 c 128,-1,26
 191 324 191 324 191 250 c 0,27,28
 191 175 191 175 223 137 c 128,-1,29
 255 99 255 99 306 99 c 0,30,19
 355 99 355 99 387.5 138 c 128,-1,20
EndSplineSet
EndChar
StartChar: Aogonek
Encoding: 260 260 9
Width: 680
GlyphClass: 2
Flags: W
AnchorPoint: "Anchor-1" 340 668 basechar 0
AnchorPoint: "Anchor-0" 340 0 basechar 0
LayerCount: 2
Fore
SplineSet
496.5 -147.5 m 128,-1,1
 463 -121 463 -121 463 -86 c 0,2,3
 463 -29 463 -29 530 0 c 1,4,-1
 513 0 l 1,5,-1
 472 123 l 1,6,-1
 208 123 l 1,7,-1
 167 0 l 1,8,-1
 6 0 l 1,9,-1
 258 668 l 1,10,-1
 422 668 l 1,11,-1
 674 0 l 1,12,13
 640 -6 640 -6 610 -25.5 c 128,-1,14
 580 -45 580 -45 580 -69 c 0,15,16
 580 -86 580 -86 593.5 -93.5 c 128,-1,17
 607 -101 607 -101 627 -101 c 0,18,19
 639 -101 639 -101 652.5 -97.5 c 128,-1,20
 666 -94 666 -94 674 -92 c 1,21,-1
 674 -164 l 1,22,23
 663 -168 663 -168 639.5 -171 c 128,-1,24
 616 -174 616 -174 598 -174 c 0,25,0
 530 -174 530 -174 496.5 -147.5 c 128,-1,1
431 244 m 1,26,-1
 339 512 l 1,27,-1
 248 244 l 1,28,-1
 431 244 l 1,26,-1
EndSplineSet
EndChar
StartChar: aogonek
Encoding: 261 261 119
Width: 553
GlyphClass: 2
Flags: W
AnchorPoint: "Anchor-1" 275 496 basechar 0
AnchorPoint: "Anchor-0" 275 0 basechar 0
LayerCount: 2
Fore
SplineSet
333 -147.5 m 128,-1,1
 300 -121 300 -121 300 -86 c 0,2,3
 300 -28 300 -28 378 9 c 1,4,-1
 362 61 l 1,5,6
 310 -12 310 -12 196 -12 c 0,7,8
 123 -12 123 -12 73.5 27.5 c 128,-1,9
 24 67 24 67 24 133 c 0,10,11
 24 216 24 216 110 257.5 c 128,-1,12
 196 299 196 299 359 311 c 1,13,-1
 359 326 l 2,14,15
 359 412 359 412 267 412 c 0,16,17
 232 412 232 412 208 396 c 128,-1,18
 184 380 184 380 177 350 c 1,19,-1
 57 392 l 1,20,21
 81 445 81 445 138 477 c 128,-1,22
 195 509 195 509 274 509 c 0,23,24
 384 509 384 509 439 460 c 128,-1,25
 494 411 494 411 494 303 c 2,26,-1
 494 193 l 2,27,28
 494 144 494 144 499 89 c 128,-1,29
 504 34 504 34 511 0 c 1,30,31
 465 -11 465 -11 441.5 -30 c 128,-1,32
 418 -49 418 -49 418 -69 c 0,33,34
 418 -101 418 -101 464 -101 c 0,35,36
 484 -101 484 -101 511 -92 c 1,37,-1
 511 -164 l 1,38,39
 499 -168 499 -168 476 -171 c 128,-1,40
 453 -174 453 -174 435 -174 c 0,41,0
 366 -174 366 -174 333 -147.5 c 128,-1,1
329.5 113 m 128,-1,43
 359 140 359 140 359 204 c 2,44,-1
 359 224 l 1,45,46
 265 218 265 218 218 199 c 128,-1,47
 171 180 171 180 171 143 c 0,48,49
 171 118 171 118 192 102 c 128,-1,50
 213 86 213 86 247 86 c 0,51,42
 300 86 300 86 329.5 113 c 128,-1,43
EndSplineSet
EndChar
StartChar: Dcroat
Encoding: 272 272 21
Width: 709
GlyphClass: 1
Flags: W
LayerCount: 2
Fore
SplineSet
79 285 m 1,0,-1
 13 285 l 1,1,-1
 13 406 l 1,2,-1
 79 406 l 1,3,-1
 79 668 l 1,4,-1
 294 668 l 2,5,6
 475 668 475 668 576 588.5 c 128,-1,7
 677 509 677 509 677 334 c 0,8,9
 677 0 677 0 294 0 c 2,10,-1
 79 0 l 1,11,-1
 79 285 l 1,0,-1
418 142 m 128,-1,13
 468 159 468 159 496.5 205 c 128,-1,14
 525 251 525 251 525 334 c 0,15,16
 525 455 525 455 465.5 500 c 128,-1,17
 406 545 406 545 296 545 c 2,18,-1
 227 545 l 1,19,-1
 227 406 l 1,20,-1
 373 406 l 1,21,-1
 373 285 l 1,22,-1
 227 285 l 1,23,-1
 227 125 l 1,24,-1
 296 125 l 2,25,12
 368 125 368 125 418 142 c 128,-1,13
EndSplineSet
EndChar
StartChar: dcroat
Encoding: 273 273 131
Width: 597
GlyphClass: 1
Flags: W
LayerCount: 2
Fore
SplineSet
135 20 m 128,-1,1
 85 52 85 52 57 112 c 128,-1,2
 29 172 29 172 29 251 c 256,3,4
 29 330 29 330 57 388.5 c 128,-1,5
 85 447 85 447 134.5 478 c 128,-1,6
 184 509 184 509 247 509 c 0,7,8
 293 509 293 509 335 487.5 c 128,-1,9
 377 466 377 466 400 426 c 1,10,-1
 400 545 l 1,11,-1
 264 545 l 1,12,-1
 264 622 l 1,13,-1
 400 622 l 1,14,-1
 400 708 l 1,15,-1
 541 708 l 1,16,-1
 541 622 l 1,17,-1
 626 622 l 1,18,-1
 626 545 l 1,19,-1
 541 545 l 1,20,-1
 541 193 l 2,21,22
 541 91 541 91 558 0 c 1,23,-1
 424 0 l 1,24,-1
 404 65 l 1,25,26
 373 26 373 26 332.5 7 c 128,-1,27
 292 -12 292 -12 247 -12 c 0,28,0
 185 -12 185 -12 135 20 c 128,-1,1
374.5 136 m 128,-1,30
 406 173 406 173 406 249 c 0,31,32
 406 323 406 323 374 360.5 c 128,-1,33
 342 398 342 398 292 398 c 256,34,35
 242 398 242 398 209.5 359 c 128,-1,36
 177 320 177 320 177 251 c 0,37,38
 177 181 177 181 209.5 140 c 128,-1,39
 242 99 242 99 292 99 c 0,40,29
 343 99 343 99 374.5 136 c 128,-1,30
EndSplineSet
EndChar
StartChar: Eogonek
Encoding: 280 280 31
Width: 599
GlyphClass: 2
Flags: W
AnchorPoint: "Anchor-1" 289 668 basechar 0
AnchorPoint: "Anchor-0" 300 0 basechar 0
LayerCount: 2
Fore
SplineSet
59 668 m 1,0,-1
 560 668 l 1,1,-1
 560 538 l 1,2,-1
 207 538 l 1,3,-1
 207 408 l 1,4,-1
 432 408 l 1,5,-1
 432 279 l 1,6,-1
 207 279 l 1,7,-1
 207 130 l 1,8,-1
 564 130 l 1,9,-1
 564 0 l 1,10,11
 529 -6 529 -6 499.5 -25.5 c 128,-1,12
 470 -45 470 -45 470 -69 c 0,13,14
 470 -86 470 -86 483.5 -93.5 c 128,-1,15
 497 -101 497 -101 517 -101 c 0,16,17
 528 -101 528 -101 541.5 -97.5 c 128,-1,18
 555 -94 555 -94 564 -92 c 1,19,-1
 564 -164 l 1,20,21
 552 -168 552 -168 529 -171 c 128,-1,22
 506 -174 506 -174 488 -174 c 0,23,24
 420 -174 420 -174 386.5 -147.5 c 128,-1,25
 353 -121 353 -121 353 -86 c 0,26,27
 353 -29 353 -29 419 0 c 1,28,-1
 59 0 l 1,29,-1
 59 668 l 1,0,-1
EndSplineSet
EndChar
StartChar: eogonek
Encoding: 281 281 141
Width: 564
GlyphClass: 2
Flags: W
AnchorPoint: "Anchor-1" 297 496 basechar 0
AnchorPoint: "Anchor-0" 284 0 basechar 0
LayerCount: 2
Fore
SplineSet
289 -147 m 128,-1,1
 257 -120 257 -120 257 -77 c 0,2,3
 257 -40 257 -40 279 -11 c 1,4,5
 205 -8 205 -8 148.5 24.5 c 128,-1,6
 92 57 92 57 60.5 115 c 128,-1,7
 29 173 29 173 29 250 c 256,8,9
 29 327 29 327 64 386 c 128,-1,10
 99 445 99 445 159 477 c 128,-1,11
 219 509 219 509 291 509 c 0,12,13
 371 509 371 509 430 470.5 c 128,-1,14
 489 432 489 432 518.5 364 c 128,-1,15
 548 296 548 296 542 211 c 1,16,-1
 169 211 l 1,17,18
 179 154 179 154 213.5 126.5 c 128,-1,19
 248 99 248 99 293 99 c 0,20,21
 362 99 362 99 396 138 c 1,22,-1
 511 97 l 1,23,24
 480 53 480 53 434 25 c 0,25,26
 407 6 407 6 390.5 -15 c 128,-1,27
 374 -36 374 -36 374 -60 c 0,28,29
 374 -82 374 -82 387.5 -91.5 c 128,-1,30
 401 -101 401 -101 421 -101 c 0,31,32
 432 -101 432 -101 445.5 -97.5 c 128,-1,33
 459 -94 459 -94 468 -92 c 1,34,-1
 468 -164 l 1,35,36
 456 -168 456 -168 432.5 -171 c 128,-1,37
 409 -174 409 -174 391 -174 c 0,38,0
 321 -174 321 -174 289 -147 c 128,-1,1
374.5 374 m 128,-1,40
 343 402 343 402 295 402 c 256,41,42
 247 402 247 402 213 377.5 c 128,-1,43
 179 353 179 353 168 299 c 1,44,-1
 409 299 l 1,45,39
 406 346 406 346 374.5 374 c 128,-1,40
EndSplineSet
EndChar
StartChar: Hbar
Encoding: 294 294 38
Width: 702
GlyphClass: 1
Flags: W
LayerCount: 2
Fore
SplineSet
59 502 m 1,0,-1
 11 502 l 1,1,-1
 11 595 l 1,2,-1
 59 595 l 1,3,-1
 59 668 l 1,4,-1
 207 668 l 1,5,-1
 207 595 l 1,6,-1
 494 595 l 1,7,-1
 494 668 l 1,8,-1
 642 668 l 1,9,-1
 642 595 l 1,10,-1
 691 595 l 1,11,-1
 691 502 l 1,12,-1
 642 502 l 1,13,-1
 642 0 l 1,14,-1
 494 0 l 1,15,-1
 494 279 l 1,16,-1
 207 279 l 1,17,-1
 207 0 l 1,18,-1
 59 0 l 1,19,-1
 59 502 l 1,0,-1
494 408 m 1,20,-1
 494 502 l 1,21,-1
 207 502 l 1,22,-1
 207 408 l 1,23,-1
 494 408 l 1,20,-1
EndSplineSet
EndChar
StartChar: hbar
Encoding: 295 295 148
Width: 572
GlyphClass: 1
Flags: W
LayerCount: 2
Fore
SplineSet
56 545 m 1,0,-1
 -29 545 l 1,1,-1
 -29 622 l 1,2,-1
 56 622 l 1,3,-1
 56 708 l 1,4,-1
 197 708 l 1,5,-1
 197 622 l 1,6,-1
 334 622 l 1,7,-1
 334 545 l 1,8,-1
 197 545 l 1,9,-1
 197 429 l 1,10,11
 217 462 217 462 257.5 485.5 c 128,-1,12
 298 509 298 509 351 509 c 0,13,14
 443 509 443 509 480.5 458 c 128,-1,15
 518 407 518 407 518 304 c 2,16,-1
 518 0 l 1,17,-1
 377 0 l 1,18,-1
 377 268 l 2,19,20
 377 311 377 311 372 338 c 128,-1,21
 367 365 367 365 349 381.5 c 128,-1,22
 331 398 331 398 295 398 c 0,23,24
 197 398 197 398 197 257 c 2,25,-1
 197 0 l 1,26,-1
 56 0 l 1,27,-1
 56 545 l 1,0,-1
EndSplineSet
EndChar
StartChar: Iogonek
Encoding: 302 302 47
Width: 426
GlyphClass: 2
Flags: W
AnchorPoint: "Anchor-1" 213 668 basechar 0
AnchorPoint: "Anchor-0" 213 0 basechar 0
LayerCount: 2
Fore
SplineSet
46 109 m 1,0,-1
 139 109 l 1,1,-1
 139 559 l 1,2,-1
 46 559 l 1,3,-1
 46 668 l 1,4,-1
 380 668 l 1,5,-1
 380 559 l 1,6,-1
 287 559 l 1,7,-1
 287 109 l 1,8,-1
 380 109 l 1,9,-1
 380 0 l 1,10,11
 345 -6 345 -6 315.5 -25.5 c 128,-1,12
 286 -45 286 -45 286 -69 c 0,13,14
 286 -86 286 -86 299.5 -93.5 c 128,-1,15
 313 -101 313 -101 333 -101 c 0,16,17
 345 -101 345 -101 358.5 -97.5 c 128,-1,18
 372 -94 372 -94 380 -92 c 1,19,-1
 380 -164 l 1,20,21
 368 -168 368 -168 345 -171 c 128,-1,22
 322 -174 322 -174 304 -174 c 0,23,24
 236 -174 236 -174 202.5 -147.5 c 128,-1,25
 169 -121 169 -121 169 -86 c 0,26,27
 169 -29 169 -29 235 0 c 1,28,-1
 46 0 l 1,29,-1
 46 109 l 1,0,-1
EndSplineSet
EndChar
StartChar: iogonek
Encoding: 303 303 156
Width: 302
GlyphClass: 2
Flags: W
AnchorPoint: "Anchor-1" 165 751 basechar 0
AnchorPoint: "Anchor-0" 133 0 basechar 0
LayerCount: 2
Fore
SplineSet
105 605 m 128,-1,1
 80 630 80 630 80 666 c 0,2,3
 80 701 80 701 105 726 c 128,-1,4
 130 751 130 751 165 751 c 0,5,6
 201 751 201 751 226 726 c 128,-1,7
 251 701 251 701 251 666 c 0,8,9
 251 630 251 630 226 605 c 128,-1,10
 201 580 201 580 165 580 c 0,11,0
 130 580 130 580 105 605 c 128,-1,1
66 -147.5 m 128,-1,13
 33 -121 33 -121 33 -86 c 0,14,15
 33 -57 33 -57 52.5 -34 c 128,-1,16
 72 -11 72 -11 102 5 c 1,17,-1
 102 389 l 1,18,-1
 21 389 l 1,19,-1
 21 496 l 1,20,-1
 244 496 l 1,21,-1
 244 0 l 1,22,23
 197 -11 197 -11 173.5 -30 c 128,-1,24
 150 -49 150 -49 150 -69 c 0,25,26
 150 -86 150 -86 163.5 -93.5 c 128,-1,27
 177 -101 177 -101 197 -101 c 0,28,29
 214 -101 214 -101 244 -92 c 1,30,-1
 244 -164 l 1,31,32
 232 -168 232 -168 208.5 -171 c 128,-1,33
 185 -174 185 -174 167 -174 c 0,34,12
 99 -174 99 -174 66 -147.5 c 128,-1,13
EndSplineSet
EndChar
StartChar: dotlessi
Encoding: 305 305 150
Width: 302
GlyphClass: 2
Flags: W
AnchorPoint: "Anchor-2" 244 10 basechar 0
AnchorPoint: "Anchor-1" 165 496 basechar 0
AnchorPoint: "Anchor-0" 133 0 basechar 0
LayerCount: 2
Fore
SplineSet
102 389 m 1,0,-1
 21 389 l 1,1,-1
 21 496 l 1,2,-1
 244 496 l 1,3,-1
 244 0 l 1,4,-1
 102 0 l 1,5,-1
 102 389 l 1,0,-1
EndSplineSet
EndChar
StartChar: Lslash
Encoding: 321 321 55
Width: 582
GlyphClass: 1
Flags: W
LayerCount: 2
Fore
SplineSet
89 230 m 1,0,-1
 11 183 l 1,1,-1
 11 297 l 1,2,-1
 89 344 l 1,3,-1
 89 668 l 1,4,-1
 237 668 l 1,5,-1
 237 433 l 1,6,-1
 398 528 l 1,7,-1
 398 414 l 1,8,-1
 237 319 l 1,9,-1
 237 130 l 1,10,-1
 564 130 l 1,11,-1
 564 0 l 1,12,-1
 89 0 l 1,13,-1
 89 230 l 1,0,-1
EndSplineSet
EndChar
StartChar: lslash
Encoding: 322 322 166
Width: 350
GlyphClass: 1
Flags: W
LayerCount: 2
Fore
SplineSet
135 11 m 128,-1,1
 102 22 102 22 87.5 51 c 128,-1,2
 73 80 73 80 73 137 c 2,3,-1
 73 256 l 1,4,-1
 26 229 l 1,5,-1
 26 338 l 1,6,-1
 73 364 l 1,7,-1
 73 708 l 1,8,-1
 214 708 l 1,9,-1
 214 442 l 1,10,-1
 312 496 l 1,11,-1
 312 388 l 1,12,-1
 214 334 l 1,13,-1
 214 178 l 2,14,15
 214 151 214 151 218.5 138 c 128,-1,16
 223 125 223 125 236 120.5 c 128,-1,17
 249 116 249 116 277 116 c 2,18,-1
 320 116 l 1,19,-1
 320 0 l 1,20,-1
 230 0 l 2,21,0
 168 0 168 0 135 11 c 128,-1,1
EndSplineSet
EndChar
StartChar: OE
Encoding: 338 338 70
Width: 1025
GlyphClass: 2
Flags: W
AnchorPoint: "Anchor-1" 518 668 basechar 0
AnchorPoint: "Anchor-0" 518 0 basechar 0
LayerCount: 2
Fore
SplineSet
184.5 31.5 m 128,-1,1
 112 75 112 75 72 153.5 c 128,-1,2
 32 232 32 232 32 334 c 256,3,4
 32 436 32 436 72 514.5 c 128,-1,5
 112 593 112 593 184.5 636.5 c 128,-1,6
 257 680 257 680 350 680 c 0,7,8
 448 680 448 680 521 626 c 1,9,-1
 521 668 l 1,10,-1
 986 668 l 1,11,-1
 986 538 l 1,12,-1
 659 538 l 1,13,-1
 659 408 l 1,14,-1
 858 408 l 1,15,-1
 858 279 l 1,16,-1
 659 279 l 1,17,-1
 659 130 l 1,18,-1
 990 130 l 1,19,-1
 990 0 l 1,20,-1
 521 0 l 1,21,-1
 521 42 l 1,22,23
 448 -12 448 -12 350 -12 c 0,24,0
 257 -12 257 -12 184.5 31.5 c 128,-1,1
474.5 165.5 m 128,-1,26
 521 221 521 221 521 334 c 256,27,28
 521 447 521 447 474.5 502.5 c 128,-1,29
 428 558 428 558 355 558 c 0,30,31
 281 558 281 558 235 503 c 128,-1,32
 189 448 189 448 189 334 c 256,33,34
 189 220 189 220 235 165 c 128,-1,35
 281 110 281 110 355 110 c 0,36,25
 428 110 428 110 474.5 165.5 c 128,-1,26
EndSplineSet
EndChar
StartChar: oe
Encoding: 339 339 181
Width: 937
GlyphClass: 2
Flags: W
AnchorPoint: "Anchor-1" 469 496 basechar 0
AnchorPoint: "Anchor-0" 469 0 basechar 0
LayerCount: 2
Fore
SplineSet
558 8.5 m 128,-1,1
 508 29 508 29 474 68 c 1,2,3
 440 28 440 28 391.5 8 c 128,-1,4
 343 -12 343 -12 288 -12 c 0,5,6
 218 -12 218 -12 159 17 c 128,-1,7
 100 46 100 46 64.5 104.5 c 128,-1,8
 29 163 29 163 29 249 c 256,9,10
 29 335 29 335 64.5 393.5 c 128,-1,11
 100 452 100 452 159 480.5 c 128,-1,12
 218 509 218 509 288 509 c 0,13,14
 344 509 344 509 393 488.5 c 128,-1,15
 442 468 442 468 476 428 c 1,16,17
 511 467 511 467 559.5 488 c 128,-1,18
 608 509 608 509 664 509 c 0,19,20
 739 509 739 509 796 474.5 c 128,-1,21
 853 440 853 440 884 379 c 128,-1,22
 915 318 915 318 915 240 c 0,23,24
 915 221 915 221 914 211 c 1,25,-1
 541 211 l 1,26,27
 552 154 552 154 586.5 126.5 c 128,-1,28
 621 99 621 99 666 99 c 0,29,30
 701 99 701 99 727 109.5 c 128,-1,31
 753 120 753 120 768 138 c 1,32,-1
 883 97 l 1,33,34
 847 44 847 44 790 16 c 128,-1,35
 733 -12 733 -12 669 -12 c 0,36,0
 608 -12 608 -12 558 8.5 c 128,-1,1
370.5 136 m 128,-1,38
 402 173 402 173 402 249 c 0,39,40
 402 326 402 326 370.5 362 c 128,-1,41
 339 398 339 398 288 398 c 256,42,43
 237 398 237 398 205.5 362 c 128,-1,44
 174 326 174 326 174 249 c 0,45,46
 174 173 174 173 205.5 136 c 128,-1,47
 237 99 237 99 288 99 c 256,48,37
 339 99 339 99 370.5 136 c 128,-1,38
747 374.5 m 128,-1,50
 716 402 716 402 667 402 c 0,51,52
 619 402 619 402 585 377.5 c 128,-1,53
 551 353 551 353 541 299 c 1,54,-1
 781 299 l 1,55,49
 778 347 778 347 747 374.5 c 128,-1,50
EndSplineSet
EndChar
StartChar: Scedilla
Encoding: 350 350 80
Width: 611
GlyphClass: 2
Flags: W
AnchorPoint: "Anchor-1" 305 668 basechar 0
LayerCount: 2
Fore
SplineSet
208 -172 m 1,1,-1
 224 -125 l 1,2,3
 235 -130 235 -130 252 -134 c 128,-1,4
 269 -138 269 -138 284 -138 c 0,5,6
 305 -138 305 -138 317.5 -131 c 128,-1,7
 330 -124 330 -124 330 -110 c 0,8,9
 330 -98 330 -98 319.5 -90.5 c 128,-1,10
 309 -83 309 -83 293 -83 c 0,11,12
 280 -83 280 -83 265 -88 c 0,13,14
 254 -92 254 -92 245.5 -85.5 c 128,-1,15
 237 -79 237 -79 237 -69 c 0,16,17
 237 -64 237 -64 240 -59 c 2,18,-1
 270 -10 l 1,19,20
 179 -2 179 -2 115.5 40.5 c 128,-1,21
 52 83 52 83 25 155 c 1,22,-1
 159 204 l 1,23,24
 172 159 172 159 213.5 133.5 c 128,-1,25
 255 108 255 108 312 108 c 0,26,27
 366 108 366 108 401.5 128 c 128,-1,28
 437 148 437 148 437 189 c 0,29,30
 437 223 437 223 410.5 241.5 c 128,-1,31
 384 260 384 260 320 273 c 2,32,-1
 237 290 l 2,33,34
 41 329 41 329 41 476 c 0,35,36
 41 538 41 538 77.5 584 c 128,-1,37
 114 630 114 630 176.5 655 c 128,-1,38
 239 680 239 680 315 680 c 0,39,40
 400 680 400 680 468.5 644.5 c 128,-1,41
 537 609 537 609 567 538 c 1,42,-1
 433 489 l 1,43,44
 419 523 419 523 384.5 542 c 128,-1,45
 350 561 350 561 303 561 c 0,46,47
 252 561 252 561 220.5 542 c 128,-1,48
 189 523 189 523 189 489 c 0,49,50
 189 435 189 435 270 418 c 2,51,-1
 360 399 l 2,52,53
 470 377 470 377 527.5 335 c 128,-1,54
 585 293 585 293 585 206 c 0,55,56
 585 141 585 141 549.5 92.5 c 128,-1,57
 514 44 514 44 454.5 17.5 c 128,-1,58
 395 -9 395 -9 324 -12 c 1,59,-1
 302 -48 l 1,60,61
 320 -44 320 -44 335 -44 c 0,62,63
 368 -44 368 -44 393 -60 c 128,-1,64
 418 -76 418 -76 418 -107 c 0,65,66
 418 -145 418 -145 383 -165.5 c 128,-1,67
 348 -186 348 -186 296 -186 c 0,68,0
 248 -186 248 -186 208 -172 c 1,1,-1
EndSplineSet
Substitution2: "'locl' Localized Forms in Latin lookup 4 subtable" uni0218
AlternateSubs2: "'aalt' Access All Alternates in Latin lookup 0 subtable" uni0218
EndChar
StartChar: scedilla
Encoding: 351 351 191
Width: 510
GlyphClass: 2
Flags: W
AnchorPoint: "Anchor-1" 260 496 basechar 0
LayerCount: 2
Fore
SplineSet
168 -172 m 1,1,-1
 183 -125 l 1,2,3
 194 -130 194 -130 211 -134 c 128,-1,4
 228 -138 228 -138 244 -138 c 0,5,6
 264 -138 264 -138 276.5 -131 c 128,-1,7
 289 -124 289 -124 289 -110 c 0,8,9
 289 -98 289 -98 279 -90.5 c 128,-1,10
 269 -83 269 -83 252 -83 c 0,11,12
 241 -83 241 -83 224 -88 c 0,13,14
 213 -92 213 -92 205 -85.5 c 128,-1,15
 197 -79 197 -79 197 -69 c 0,16,17
 197 -64 197 -64 200 -59 c 2,18,-1
 229 -12 l 1,19,20
 154 -7 154 -7 98.5 26 c 128,-1,21
 43 59 43 59 18 114 c 1,22,-1
 140 158 l 1,23,24
 149 127 149 127 183 109 c 128,-1,25
 217 91 217 91 261 91 c 0,26,27
 301 91 301 91 328.5 105 c 128,-1,28
 356 119 356 119 356 144 c 0,29,30
 356 163 356 163 338 174.5 c 128,-1,31
 320 186 320 186 276 194 c 2,32,-1
 195 208 l 2,33,34
 121 222 121 222 78.5 258 c 128,-1,35
 36 294 36 294 36 353 c 0,36,37
 36 402 36 402 66.5 437.5 c 128,-1,38
 97 473 97 473 148 491 c 128,-1,39
 199 509 199 509 258 509 c 0,40,41
 334 509 334 509 392.5 481.5 c 128,-1,42
 451 454 451 454 477 396 c 1,43,-1
 356 352 l 1,44,45
 334 406 334 406 254 406 c 0,46,47
 215 406 215 406 193 393.5 c 128,-1,48
 171 381 171 381 171 360 c 0,49,50
 171 342 171 342 185.5 332 c 128,-1,51
 200 322 200 322 235 316 c 2,52,-1
 319 300 l 2,53,54
 410 283 410 283 451 250 c 128,-1,55
 492 217 492 217 492 153 c 0,56,57
 492 79 492 79 434 36 c 128,-1,58
 376 -7 376 -7 283 -12 c 1,59,-1
 261 -48 l 1,60,61
 281 -44 281 -44 295 -44 c 0,62,63
 328 -44 328 -44 353 -60 c 128,-1,64
 378 -76 378 -76 378 -107 c 0,65,66
 378 -145 378 -145 343 -165.5 c 128,-1,67
 308 -186 308 -186 256 -186 c 0,68,0
 208 -186 208 -186 168 -172 c 1,1,-1
EndSplineSet
Substitution2: "'locl' Localized Forms in Latin lookup 4 subtable" uni0219
AlternateSubs2: "'aalt' Access All Alternates in Latin lookup 0 subtable" uni0219
EndChar
StartChar: uni0162
Encoding: 354 354 85
Width: 609
GlyphClass: 2
Flags: W
AnchorPoint: "Anchor-1" 304 668 basechar 0
LayerCount: 2
Fore
SplineSet
230 538 m 1,0,-1
 14 538 l 1,1,-1
 14 668 l 1,2,-1
 594 668 l 1,3,-1
 594 538 l 1,4,-1
 378 538 l 1,5,-1
 378 0 l 1,6,-1
 333 0 l 1,7,-1
 303 -48 l 1,8,9
 321 -44 321 -44 336 -44 c 0,10,11
 369 -44 369 -44 394.5 -60 c 128,-1,12
 420 -76 420 -76 420 -107 c 0,13,14
 420 -145 420 -145 384.5 -165.5 c 128,-1,15
 349 -186 349 -186 297 -186 c 0,16,17
 251 -186 251 -186 209 -172 c 1,18,-1
 225 -125 l 1,19,20
 236 -130 236 -130 253 -134 c 128,-1,21
 270 -138 270 -138 285 -138 c 0,22,23
 306 -138 306 -138 318.5 -131 c 128,-1,24
 331 -124 331 -124 331 -110 c 0,25,26
 331 -98 331 -98 321 -90.5 c 128,-1,27
 311 -83 311 -83 294 -83 c 0,28,29
 281 -83 281 -83 266 -88 c 0,30,31
 255 -92 255 -92 246.5 -85.5 c 128,-1,32
 238 -79 238 -79 238 -69 c 0,33,34
 238 -64 238 -64 241 -59 c 2,35,-1
 278 0 l 1,36,-1
 230 0 l 1,37,-1
 230 538 l 1,0,-1
EndSplineSet
Substitution2: "'locl' Localized Forms in Latin lookup 4 subtable" uni021A
AlternateSubs2: "'aalt' Access All Alternates in Latin lookup 0 subtable" uni021A
EndChar
StartChar: uni0163
Encoding: 355 355 196
Width: 377
GlyphClass: 2
Flags: W
AnchorPoint: "Anchor-3" 255 552 basechar 0
AnchorPoint: "Anchor-1" 183 496 basechar 0
LayerCount: 2
Fore
SplineSet
116 -172 m 1,1,-1
 132 -125 l 1,2,3
 142 -130 142 -130 159 -134 c 128,-1,4
 176 -138 176 -138 192 -138 c 0,5,6
 213 -138 213 -138 225.5 -131 c 128,-1,7
 238 -124 238 -124 238 -110 c 0,8,9
 238 -98 238 -98 227.5 -90.5 c 128,-1,10
 217 -83 217 -83 200 -83 c 0,11,12
 189 -83 189 -83 172 -88 c 0,13,14
 162 -92 162 -92 153.5 -85 c 128,-1,15
 145 -78 145 -78 145 -69 c 0,16,17
 145 -64 145 -64 148 -59 c 2,18,-1
 187 4 l 1,19,20
 135 12 135 12 114.5 41 c 128,-1,21
 94 70 94 70 94 138 c 2,22,-1
 94 388 l 1,23,-1
 12 388 l 1,24,-1
 12 496 l 1,25,-1
 94 496 l 1,26,-1
 94 620 l 1,27,-1
 235 620 l 1,28,-1
 235 496 l 1,29,-1
 342 496 l 1,30,-1
 342 388 l 1,31,-1
 235 388 l 1,32,-1
 235 173 l 2,33,34
 235 138 235 138 247.5 127 c 128,-1,35
 260 116 260 116 297 116 c 2,36,-1
 342 116 l 1,37,-1
 342 0 l 1,38,-1
 251 0 l 1,39,-1
 239 0 l 1,40,-1
 209 -48 l 1,41,42
 229 -44 229 -44 243 -44 c 0,43,44
 276 -44 276 -44 301 -60 c 128,-1,45
 326 -76 326 -76 326 -107 c 0,46,47
 326 -145 326 -145 291 -165.5 c 128,-1,48
 256 -186 256 -186 204 -186 c 0,49,0
 156 -186 156 -186 116 -172 c 1,1,-1
EndSplineSet
Substitution2: "'locl' Localized Forms in Latin lookup 4 subtable" uni021B
AlternateSubs2: "'aalt' Access All Alternates in Latin lookup 0 subtable" uni021B
EndChar
StartChar: Uring
Encoding: 366 366 95
Width: 686
GlyphClass: 2
Flags: W
AnchorPoint: "Anchor-3" 658 668 basechar 0
AnchorPoint: "Anchor-2" 549 10 basechar 0
AnchorPoint: "Anchor-1" 345 915 basechar 0
AnchorPoint: "Anchor-0" 345 0 basechar 0
LayerCount: 2
Fore
SplineSet
124.5 61 m 128,-1,1
 58 134 58 134 58 290 c 2,2,-1
 58 668 l 1,3,-1
 206 668 l 1,4,-1
 206 274 l 2,5,6
 206 186 206 186 238 148 c 128,-1,7
 270 110 270 110 344 110 c 256,8,9
 418 110 418 110 449 147.5 c 128,-1,10
 480 185 480 185 480 274 c 2,11,-1
 480 668 l 1,12,-1
 628 668 l 1,13,-1
 628 290 l 2,14,15
 628 134 628 134 561 61 c 128,-1,16
 494 -12 494 -12 343 -12 c 0,17,0
 191 -12 191 -12 124.5 61 c 128,-1,1
280.5 676 m 128,-1,19
 251 693 251 693 233.5 722.5 c 128,-1,20
 216 752 216 752 216 787 c 256,21,22
 216 822 216 822 233.5 851.5 c 128,-1,23
 251 881 251 881 280.5 898 c 128,-1,24
 310 915 310 915 345 915 c 0,25,26
 398 915 398 915 435.5 877.5 c 128,-1,27
 473 840 473 840 473 787 c 256,28,29
 473 734 473 734 435.5 696.5 c 128,-1,30
 398 659 398 659 345 659 c 0,31,18
 310 659 310 659 280.5 676 c 128,-1,19
378 753 m 128,-1,33
 392 767 392 767 392 787 c 256,34,35
 392 807 392 807 378 821 c 128,-1,36
 364 835 364 835 345 835 c 0,37,38
 325 835 325 835 311 821 c 128,-1,39
 297 807 297 807 297 787 c 256,40,41
 297 767 297 767 311 753 c 128,-1,42
 325 739 325 739 345 739 c 0,43,32
 364 739 364 739 378 753 c 128,-1,33
EndSplineSet
EndChar
StartChar: Uogonek
Encoding: 370 370 94
Width: 686
GlyphClass: 2
Flags: W
AnchorPoint: "Anchor-3" 658 668 basechar 0
AnchorPoint: "Anchor-1" 344 668 basechar 0
AnchorPoint: "Anchor-0" 345 0 basechar 0
LayerCount: 2
Fore
SplineSet
370 -147 m 128,-1,1
 338 -120 338 -120 338 -77 c 0,2,3
 338 -42 338 -42 359 -12 c 1,4,5
 255 -13 255 -13 189.5 16 c 128,-1,6
 124 45 124 45 91 111.5 c 128,-1,7
 58 178 58 178 58 290 c 2,8,-1
 58 668 l 1,9,-1
 206 668 l 1,10,-1
 206 274 l 2,11,12
 206 186 206 186 238 148 c 128,-1,13
 270 110 270 110 344 110 c 256,14,15
 418 110 418 110 449 147.5 c 128,-1,16
 480 185 480 185 480 274 c 2,17,-1
 480 668 l 1,18,-1
 628 668 l 1,19,-1
 628 290 l 2,20,21
 628 190 628 190 601 125 c 128,-1,22
 574 60 574 60 518 26 c 0,23,24
 490 10 490 10 472.5 -12.5 c 128,-1,25
 455 -35 455 -35 455 -60 c 0,26,27
 455 -82 455 -82 468 -91.5 c 128,-1,28
 481 -101 481 -101 501 -101 c 0,29,30
 513 -101 513 -101 526.5 -97.5 c 128,-1,31
 540 -94 540 -94 549 -92 c 1,32,-1
 549 -164 l 1,33,34
 536 -168 536 -168 513 -171 c 128,-1,35
 490 -174 490 -174 472 -174 c 0,36,0
 402 -174 402 -174 370 -147 c 128,-1,1
EndSplineSet
EndChar
StartChar: uogonek
Encoding: 371 371 205
Width: 568
GlyphClass: 2
Flags: W
AnchorPoint: "Anchor-3" 546 496 basechar 0
AnchorPoint: "Anchor-1" 284 496 basechar 0
AnchorPoint: "Anchor-0" 284 0 basechar 0
LayerCount: 2
Fore
SplineSet
92.5 39.5 m 128,-1,1
 54 91 54 91 54 195 c 2,2,-1
 54 496 l 1,3,-1
 195 496 l 1,4,-1
 195 231 l 2,5,6
 195 187 195 187 200 160 c 128,-1,7
 205 133 205 133 222.5 116 c 128,-1,8
 240 99 240 99 276 99 c 0,9,10
 325 99 325 99 347.5 130.5 c 128,-1,11
 370 162 370 162 370 233 c 2,12,-1
 370 496 l 1,13,-1
 512 496 l 1,14,-1
 512 0 l 1,15,16
 465 -11 465 -11 441.5 -30 c 128,-1,17
 418 -49 418 -49 418 -69 c 0,18,19
 418 -86 418 -86 431.5 -93.5 c 128,-1,20
 445 -101 445 -101 465 -101 c 0,21,22
 482 -101 482 -101 512 -92 c 1,23,-1
 512 -164 l 1,24,25
 500 -168 500 -168 476.5 -171 c 128,-1,26
 453 -174 453 -174 435 -174 c 0,27,28
 367 -174 367 -174 334 -147.5 c 128,-1,29
 301 -121 301 -121 301 -86 c 0,30,31
 301 -52 301 -52 325.5 -27.5 c 128,-1,32
 350 -3 350 -3 387 13 c 1,33,-1
 370 70 l 1,34,35
 346 30 346 30 312 9 c 128,-1,36
 278 -12 278 -12 224 -12 c 0,37,0
 131 -12 131 -12 92.5 39.5 c 128,-1,1
EndSplineSet
EndChar
StartChar: florin
Encoding: 402 402 295
Width: 377
GlyphClass: 1
Flags: W
LayerCount: 2
Fore
SplineSet
21 -164 m 1,1,-1
 21 -40 l 1,2,3
 38 -43 38 -43 49 -43 c 0,4,5
 78 -43 78 -43 90.5 -26 c 128,-1,6
 103 -9 103 -9 103 29 c 2,7,-1
 103 389 l 1,8,-1
 21 389 l 1,9,-1
 21 496 l 1,10,-1
 103 496 l 1,11,-1
 103 577 l 2,12,13
 103 634 103 634 121.5 666 c 128,-1,14
 140 698 140 698 179 711.5 c 128,-1,15
 218 725 218 725 285 725 c 2,16,-1
 352 725 l 1,17,-1
 352 612 l 1,18,-1
 308 612 l 2,19,20
 269 612 269 612 256.5 603 c 128,-1,21
 244 594 244 594 244 565 c 2,22,-1
 244 496 l 1,23,-1
 352 496 l 1,24,-1
 352 389 l 1,25,-1
 244 389 l 1,26,-1
 244 -18 l 2,27,28
 244 -97 244 -97 204 -135 c 128,-1,29
 164 -173 164 -173 95 -173 c 0,30,0
 59 -173 59 -173 21 -164 c 1,1,-1
EndSplineSet
EndChar
StartChar: uni0237
Encoding: 567 567 159
Width: 259
GlyphClass: 2
Flags: W
AnchorPoint: "Anchor-1" 131 496 basechar 0
AnchorPoint: "Anchor-0" 129 -251 basechar 0
LayerCount: 2
Fore
SplineSet
-69 -49 m 1,0,-1
 -13 -49 l 2,1,2
 31 -49 31 -49 45.5 -37 c 128,-1,3
 60 -25 60 -25 60 10 c 2,4,-1
 60 496 l 1,5,-1
 201 496 l 1,6,-1
 201 -10 l 2,7,8
 201 -95 201 -95 153.5 -128.5 c 128,-1,9
 106 -162 106 -162 12 -162 c 2,10,-1
 -69 -162 l 1,11,-1
 -69 -49 l 1,0,-1
EndSplineSet
EndChar
StartChar: gravecomb
Encoding: 768 768 349
Width: 0
GlyphClass: 4
Flags: W
AnchorPoint: "Anchor-5" 195 724 basemark 0
AnchorPoint: "Anchor-5" 195 496 mark 0
AnchorPoint: "Anchor-1" 195 496 mark 0
LayerCount: 2
Fore
SplineSet
52 645 m 128,-1,1
 44 658 44 658 44 673 c 0,2,3
 44 695 44 695 58.5 709 c 128,-1,4
 73 723 73 723 96 723 c 0,5,6
 112 723 112 723 124 715.5 c 128,-1,7
 136 708 136 708 150 691 c 2,8,-1
 245 574 l 1,9,-1
 138 574 l 1,10,-1
 82 616 l 2,11,0
 60 632 60 632 52 645 c 128,-1,1
EndSplineSet
Substitution2: "Single Substitution lookup 13 subtable" gravecomb.case
Substitution2: "'case' Case-Sensitive Forms in Latin lookup 11 subtable" gravecomb.case
AlternateSubs2: "'aalt' Access All Alternates in Latin lookup 0 subtable" gravecomb.case
EndChar
StartChar: acutecomb
Encoding: 769 769 351
Width: 0
GlyphClass: 4
Flags: W
AnchorPoint: "Anchor-5" 95 724 basemark 0
AnchorPoint: "Anchor-5" 95 496 mark 0
AnchorPoint: "Anchor-1" 95 496 mark 0
LayerCount: 2
Fore
SplineSet
165 715.5 m 128,-1,1
 177 723 177 723 194 723 c 0,2,3
 217 723 217 723 231 709 c 128,-1,4
 245 695 245 695 245 673 c 0,5,6
 245 658 245 658 237 645 c 128,-1,7
 229 632 229 632 208 616 c 2,8,-1
 151 574 l 1,9,-1
 44 574 l 1,10,-1
 140 691 l 2,11,0
 153 708 153 708 165 715.5 c 128,-1,1
EndSplineSet
Substitution2: "Single Substitution lookup 13 subtable" acutecomb.case
Substitution2: "'case' Case-Sensitive Forms in Latin lookup 11 subtable" acutecomb.case
AlternateSubs2: "'aalt' Access All Alternates in Latin lookup 0 subtable" acutecomb.case
EndChar
StartChar: uni0302
Encoding: 770 770 356
Width: 0
GlyphClass: 4
Flags: W
AnchorPoint: "Anchor-5" 236 721 basemark 0
AnchorPoint: "Anchor-5" 236 496 mark 0
AnchorPoint: "Anchor-1" 236 496 mark 0
LayerCount: 2
Fore
SplineSet
236 721 m 0,1,2
 263 721 263 721 286 701 c 2,3,-1
 426 574 l 1,4,-1
 304 574 l 1,5,-1
 236 635 l 1,6,-1
 168 574 l 1,7,-1
 44 574 l 1,8,-1
 186 701 l 2,9,0
 208 721 208 721 236 721 c 0,1,2
EndSplineSet
Substitution2: "Single Substitution lookup 13 subtable" uni0302.case
Substitution2: "'case' Case-Sensitive Forms in Latin lookup 11 subtable" uni0302.case
AlternateSubs2: "'aalt' Access All Alternates in Latin lookup 0 subtable" uni0302.case
EndChar
StartChar: tildecomb
Encoding: 771 771 364
Width: 0
GlyphClass: 4
Flags: W
AnchorPoint: "Anchor-5" 226 688 basemark 0
AnchorPoint: "Anchor-5" 226 496 mark 0
AnchorPoint: "Anchor-1" 226 496 mark 0
LayerCount: 2
Fore
SplineSet
256 576.5 m 128,-1,1
 238 583 238 583 217 594 c 0,2,3
 189 609 189 609 172 609 c 256,4,5
 155 609 155 609 143.5 600 c 128,-1,6
 132 591 132 591 129 574 c 1,7,-1
 44 574 l 1,8,9
 53 629 53 629 84 658.5 c 128,-1,10
 115 688 115 688 166 688 c 0,11,12
 188 688 188 688 204.5 682 c 128,-1,13
 221 676 221 676 241 664 c 0,14,15
 270 646 270 646 290 646 c 0,16,17
 303 646 303 646 312.5 651.5 c 128,-1,18
 322 657 322 657 333 668 c 0,19,20
 350 688 350 688 368 688 c 0,21,22
 385 688 385 688 396.5 676.5 c 128,-1,23
 408 665 408 665 408 649 c 0,24,25
 408 629 408 629 391.5 611 c 128,-1,26
 375 593 375 593 349.5 581.5 c 128,-1,27
 324 570 324 570 299 570 c 256,28,0
 274 570 274 570 256 576.5 c 128,-1,1
EndSplineSet
Substitution2: "Single Substitution lookup 13 subtable" tildecomb.case
Substitution2: "'case' Case-Sensitive Forms in Latin lookup 11 subtable" tildecomb.case
AlternateSubs2: "'aalt' Access All Alternates in Latin lookup 0 subtable" tildecomb.case
EndChar
StartChar: uni0306
Encoding: 774 774 360
Width: 0
GlyphClass: 4
Flags: W
AnchorPoint: "Anchor-5" 191 689 basemark 0
AnchorPoint: "Anchor-5" 191 496 mark 0
AnchorPoint: "Anchor-1" 191 496 mark 0
LayerCount: 2
Fore
SplineSet
91 598.5 m 128,-1,1
 54 633 54 633 44 689 c 1,2,-1
 127 689 l 1,3,4
 132 671 132 671 149.5 657.5 c 128,-1,5
 167 644 167 644 190 644 c 0,6,7
 214 644 214 644 232 657.5 c 128,-1,8
 250 671 250 671 255 689 c 1,9,-1
 337 689 l 1,10,11
 328 633 328 633 290.5 598.5 c 128,-1,12
 253 564 253 564 190 564 c 0,13,0
 128 564 128 564 91 598.5 c 128,-1,1
EndSplineSet
Substitution2: "Single Substitution lookup 13 subtable" uni0306.case
Substitution2: "'case' Case-Sensitive Forms in Latin lookup 11 subtable" uni0306.case
AlternateSubs2: "'aalt' Access All Alternates in Latin lookup 0 subtable" uni0306.case
EndChar
StartChar: uni0307
Encoding: 775 775 346
Width: 0
GlyphClass: 4
Flags: W
AnchorPoint: "Anchor-5" 116 718 basemark 0
AnchorPoint: "Anchor-5" 116 496 mark 0
AnchorPoint: "Anchor-1" 116 496 mark 0
LayerCount: 2
Fore
SplineSet
65.5 596 m 128,-1,1
 44 617 44 617 44 647 c 0,2,3
 44 676 44 676 65.5 697 c 128,-1,4
 87 718 87 718 116 718 c 256,5,6
 145 718 145 718 166.5 697 c 128,-1,7
 188 676 188 676 188 647 c 0,8,9
 188 617 188 617 166.5 596 c 128,-1,10
 145 575 145 575 116 575 c 256,11,0
 87 575 87 575 65.5 596 c 128,-1,1
EndSplineSet
Substitution2: "Single Substitution lookup 13 subtable" uni0307.case
Substitution2: "'case' Case-Sensitive Forms in Latin lookup 11 subtable" uni0307.case
AlternateSubs2: "'aalt' Access All Alternates in Latin lookup 0 subtable" uni0307.case
EndChar
StartChar: uni0308
Encoding: 776 776 344
Width: 0
GlyphClass: 4
Flags: W
AnchorPoint: "Anchor-5" 218 718 basemark 0
AnchorPoint: "Anchor-5" 218 496 mark 0
AnchorPoint: "Anchor-1" 218 496 mark 0
LayerCount: 2
Fore
SplineSet
268 596 m 128,-1,1
 247 617 247 617 247 647 c 0,2,3
 247 676 247 676 268 697 c 128,-1,4
 289 718 289 718 319 718 c 0,5,6
 348 718 348 718 369 697 c 128,-1,7
 390 676 390 676 390 647 c 0,8,9
 390 617 390 617 369 596 c 128,-1,10
 348 575 348 575 319 575 c 0,11,0
 289 575 289 575 268 596 c 128,-1,1
65.5 596 m 128,-1,13
 44 617 44 617 44 647 c 0,14,15
 44 676 44 676 65.5 697 c 128,-1,16
 87 718 87 718 116 718 c 256,17,18
 145 718 145 718 166.5 697 c 128,-1,19
 188 676 188 676 188 647 c 0,20,21
 188 617 188 617 166.5 596 c 128,-1,22
 145 575 145 575 116 575 c 256,23,12
 87 575 87 575 65.5 596 c 128,-1,13
EndSplineSet
Substitution2: "Single Substitution lookup 13 subtable" uni0308.case
Substitution2: "'case' Case-Sensitive Forms in Latin lookup 11 subtable" uni0308.case
AlternateSubs2: "'aalt' Access All Alternates in Latin lookup 0 subtable" uni0308.case
EndChar
StartChar: uni030A
Encoding: 778 778 362
Width: 0
GlyphClass: 4
Flags: W
AnchorPoint: "Anchor-5" 173 796 basemark 0
AnchorPoint: "Anchor-5" 173 496 mark 0
AnchorPoint: "Anchor-1" 173 496 mark 0
LayerCount: 2
Fore
SplineSet
108.5 557 m 128,-1,1
 79 574 79 574 61.5 603.5 c 128,-1,2
 44 633 44 633 44 668 c 256,3,4
 44 703 44 703 61.5 732.5 c 128,-1,5
 79 762 79 762 108.5 779 c 128,-1,6
 138 796 138 796 173 796 c 0,7,8
 226 796 226 796 263.5 758.5 c 128,-1,9
 301 721 301 721 301 668 c 256,10,11
 301 615 301 615 263.5 577.5 c 128,-1,12
 226 540 226 540 173 540 c 0,13,0
 138 540 138 540 108.5 557 c 128,-1,1
206 633.5 m 128,-1,15
 220 648 220 648 220 668 c 256,16,17
 220 688 220 688 206 702.5 c 128,-1,18
 192 717 192 717 173 717 c 0,19,20
 153 717 153 717 139 702.5 c 128,-1,21
 125 688 125 688 125 668 c 256,22,23
 125 648 125 648 139 633.5 c 128,-1,24
 153 619 153 619 173 619 c 0,25,14
 192 619 192 619 206 633.5 c 128,-1,15
EndSplineSet
Substitution2: "Single Substitution lookup 13 subtable" uni030A.case
Substitution2: "'case' Case-Sensitive Forms in Latin lookup 11 subtable" uni030A.case
AlternateSubs2: "'aalt' Access All Alternates in Latin lookup 0 subtable" uni030A.case
EndChar
StartChar: uni030B
Encoding: 779 779 353
Width: 0
GlyphClass: 4
Flags: W
AnchorPoint: "Anchor-5" 290 723 basemark 0
AnchorPoint: "Anchor-5" 194 496 mark 0
AnchorPoint: "Anchor-1" 194 496 mark 0
LayerCount: 2
Fore
SplineSet
165 715.5 m 128,-1,1
 177 723 177 723 194 723 c 0,2,3
 217 723 217 723 231.5 708.5 c 128,-1,4
 246 694 246 694 246 675 c 0,5,6
 246 659 246 659 237.5 645.5 c 128,-1,7
 229 632 229 632 207 616 c 2,8,-1
 151 574 l 1,9,-1
 44 574 l 1,10,-1
 140 691 l 2,11,0
 153 708 153 708 165 715.5 c 128,-1,1
359.5 715.5 m 128,-1,13
 371 723 371 723 388 723 c 0,14,15
 411 723 411 723 425.5 708.5 c 128,-1,16
 440 694 440 694 440 675 c 0,17,18
 440 659 440 659 431.5 645.5 c 128,-1,19
 423 632 423 632 402 616 c 2,20,-1
 345 574 l 1,21,-1
 239 574 l 1,22,-1
 334 691 l 2,23,12
 348 708 348 708 359.5 715.5 c 128,-1,13
EndSplineSet
Substitution2: "Single Substitution lookup 13 subtable" uni030B.case
Substitution2: "'case' Case-Sensitive Forms in Latin lookup 11 subtable" uni030B.case
AlternateSubs2: "'aalt' Access All Alternates in Latin lookup 0 subtable" uni030B.case
EndChar
StartChar: uni0312
Encoding: 786 786 368
Width: 0
GlyphClass: 4
Flags: W
AnchorPoint: "Anchor-5" 150 774 basemark 0
AnchorPoint: "Anchor-5" 138 496 mark 0
AnchorPoint: "Anchor-1" 138 496 mark 0
LayerCount: 2
Fore
SplineSet
44 664 m 0,1,2
 44 712 44 712 87 743 c 128,-1,3
 130 774 130 774 205 774 c 1,4,-1
 255 731 l 1,5,6
 209 731 209 731 181.5 715 c 128,-1,7
 154 699 154 699 154 668 c 0,8,9
 154 648 154 648 172 631.5 c 128,-1,10
 190 615 190 615 219 608 c 1,11,-1
 124 570 l 1,12,0
 44 603 44 603 44 664 c 0,1,2
EndSplineSet
EndChar
StartChar: uni0326
Encoding: 806 806 369
Width: 0
GlyphClass: 4
Flags: W
AnchorPoint: "Anchor-4" 156 -251 basemark 0
AnchorPoint: "Anchor-4" 156 0 mark 0
AnchorPoint: "Anchor-0" 156 0 mark 0
LayerCount: 2
Fore
SplineSet
117.5 -192 m 128,-1,1
 145 -176 145 -176 145 -145 c 0,2,3
 145 -125 145 -125 127 -108.5 c 128,-1,4
 109 -92 109 -92 80 -85 c 1,5,-1
 175 -47 l 1,6,7
 255 -80 255 -80 255 -141 c 0,8,9
 255 -189 255 -189 212 -220 c 128,-1,10
 169 -251 169 -251 94 -251 c 1,11,-1
 44 -208 l 1,12,0
 90 -208 90 -208 117.5 -192 c 128,-1,1
EndSplineSet
EndChar
StartChar: uni0327
Encoding: 807 807 370
Width: 0
GlyphClass: 4
Flags: W
AnchorPoint: "Anchor-4" 141 -186 basemark 0
AnchorPoint: "Anchor-4" 141 0 mark 0
AnchorPoint: "Anchor-0" 141 0 mark 0
LayerCount: 2
Fore
SplineSet
44 -172 m 1,1,-1
 60 -125 l 1,2,3
 71 -130 71 -130 88 -134 c 128,-1,4
 105 -138 105 -138 120 -138 c 0,5,6
 141 -138 141 -138 153.5 -131 c 128,-1,7
 166 -124 166 -124 166 -110 c 0,8,9
 166 -98 166 -98 155.5 -90.5 c 128,-1,10
 145 -83 145 -83 129 -83 c 0,11,12
 116 -83 116 -83 101 -88 c 0,13,14
 90 -92 90 -92 81.5 -85.5 c 128,-1,15
 73 -79 73 -79 73 -69 c 0,16,17
 73 -64 73 -64 76 -59 c 2,18,-1
 128 25 l 1,19,-1
 168 1 l 1,20,-1
 138 -48 l 1,21,22
 156 -44 156 -44 171 -44 c 0,23,24
 204 -44 204 -44 229.5 -60 c 128,-1,25
 255 -76 255 -76 255 -107 c 0,26,27
 255 -145 255 -145 219.5 -165.5 c 128,-1,28
 184 -186 184 -186 132 -186 c 0,29,0
 86 -186 86 -186 44 -172 c 1,1,-1
EndSplineSet
EndChar
StartChar: uni0328
Encoding: 808 808 371
Width: 0
GlyphClass: 4
Flags: W
AnchorPoint: "Anchor-2" 255 10 mark 0
LayerCount: 2
Fore
SplineSet
77 -147.5 m 128,-1,1
 44 -121 44 -121 44 -86 c 0,2,3
 44 -50 44 -50 71.5 -24.5 c 128,-1,4
 99 1 99 1 138 16 c 1,5,-1
 255 0 l 1,6,7
 209 -11 209 -11 185 -30 c 128,-1,8
 161 -49 161 -49 161 -69 c 0,9,10
 161 -86 161 -86 174.5 -93.5 c 128,-1,11
 188 -101 188 -101 208 -101 c 256,12,13
 228 -101 228 -101 255 -92 c 1,14,-1
 255 -164 l 1,15,16
 243 -168 243 -168 220 -171 c 128,-1,17
 197 -174 197 -174 179 -174 c 0,18,0
 110 -174 110 -174 77 -147.5 c 128,-1,1
EndSplineSet
Substitution2: "Single Substitution lookup 13 subtable" uni0328.case
Substitution2: "'case' Case-Sensitive Forms in Latin lookup 11 subtable" uni0328.case
AlternateSubs2: "'aalt' Access All Alternates in Latin lookup 0 subtable" uni0328.case
EndChar
StartChar: uni0394
Encoding: 916 916 225
Width: 680
GlyphClass: 1
Flags: W
LayerCount: 2
Fore
SplineSet
258 668 m 1,0,-1
 422 668 l 1,1,-1
 674 0 l 1,2,-1
 6 0 l 1,3,-1
 258 668 l 1,0,-1
473 121 m 1,4,-1
 339 512 l 1,5,-1
 207 121 l 1,6,-1
 473 121 l 1,4,-1
EndSplineSet
EndChar
StartChar: uni03A9
Encoding: 937 937 226
Width: 650
GlyphClass: 1
Flags: W
LayerCount: 2
Fore
SplineSet
32 110 m 1,0,-1
 171 110 l 1,1,-1
 171 138 l 1,2,3
 108 177 108 177 70 243 c 128,-1,4
 32 309 32 309 32 386 c 0,5,6
 32 466 32 466 71.5 533.5 c 128,-1,7
 111 601 111 601 178 640.5 c 128,-1,8
 245 680 245 680 325 680 c 256,9,10
 405 680 405 680 472 640.5 c 128,-1,11
 539 601 539 601 578.5 533.5 c 128,-1,12
 618 466 618 466 618 386 c 0,13,14
 618 309 618 309 580 243 c 128,-1,15
 542 177 542 177 479 138 c 1,16,-1
 479 110 l 1,17,-1
 618 110 l 1,18,-1
 618 0 l 1,19,-1
 355 0 l 1,20,-1
 355 215 l 1,21,22
 419 226 419 226 462 275.5 c 128,-1,23
 505 325 505 325 505 391 c 0,24,25
 505 440 505 440 480.5 481 c 128,-1,26
 456 522 456 522 415 546.5 c 128,-1,27
 374 571 374 571 325 571 c 256,28,29
 276 571 276 571 235 546.5 c 128,-1,30
 194 522 194 522 170 481 c 128,-1,31
 146 440 146 440 146 391 c 0,32,33
 146 325 146 325 188.5 275.5 c 128,-1,34
 231 226 231 226 295 215 c 1,35,-1
 295 0 l 1,36,-1
 32 0 l 1,37,-1
 32 110 l 1,0,-1
EndSplineSet
EndChar
StartChar: uni03BC
Encoding: 956 956 227
Width: 604
GlyphClass: 1
Flags: W
LayerCount: 2
Fore
SplineSet
56 496 m 1,0,-1
 197 496 l 1,1,-1
 197 224 l 2,2,3
 197 175 197 175 204 148.5 c 128,-1,4
 211 122 211 122 228.5 110.5 c 128,-1,5
 246 99 246 99 277 99 c 0,6,7
 327 99 327 99 349.5 129 c 128,-1,8
 372 159 372 159 372 229 c 2,9,-1
 372 496 l 1,10,-1
 514 496 l 1,11,-1
 514 178 l 2,12,13
 514 139 514 139 525 127.5 c 128,-1,14
 536 116 536 116 570 116 c 2,15,-1
 584 116 l 1,16,-1
 584 0 l 1,17,-1
 515 0 l 2,18,19
 455 0 455 0 425.5 14 c 128,-1,20
 396 28 396 28 383 59 c 1,21,22
 359 19 359 19 334 3.5 c 128,-1,23
 309 -12 309 -12 278 -12 c 0,24,25
 231 -12 231 -12 197 22 c 1,26,-1
 197 -162 l 1,27,-1
 56 -162 l 1,28,-1
 56 496 l 1,0,-1
EndSplineSet
EndChar
StartChar: pi
Encoding: 960 960 228
Width: 627
GlyphClass: 1
Flags: W
LayerCount: 2
Fore
SplineSet
101 385 m 1,0,-1
 12 385 l 1,1,-1
 12 496 l 1,2,-1
 592 496 l 1,3,-1
 592 385 l 1,4,-1
 504 385 l 1,5,-1
 504 149 l 2,6,7
 504 119 504 119 515 109.5 c 128,-1,8
 526 100 526 100 559 100 c 2,9,-1
 592 100 l 1,10,-1
 592 0 l 1,11,-1
 518 0 l 2,12,13
 465 0 465 0 436.5 9.5 c 128,-1,14
 408 19 408 19 395.5 44 c 128,-1,15
 383 69 383 69 383 119 c 2,16,-1
 383 385 l 1,17,-1
 222 385 l 1,18,-1
 222 0 l 1,19,-1
 101 0 l 1,20,-1
 101 385 l 1,0,-1
EndSplineSet
EndChar
StartChar: uni1E9E
Encoding: 7838 7838 82
Width: 683
GlyphClass: 1
Flags: W
LayerCount: 2
Fore
SplineSet
323.5 21.5 m 128,-1,1
 274 55 274 55 253 107 c 1,2,-1
 370 150 l 1,3,4
 378 128 378 128 396.5 116 c 128,-1,5
 415 104 415 104 441 104 c 0,6,7
 472 104 472 104 494 127.5 c 128,-1,8
 516 151 516 151 516 192 c 0,9,10
 516 234 516 234 493.5 256.5 c 128,-1,11
 471 279 471 279 437 279 c 0,12,13
 417 279 417 279 394 270 c 1,14,-1
 342 359 l 1,15,-1
 493 555 l 1,16,17
 422 566 422 566 373 566 c 0,18,19
 287 566 287 566 246.5 529 c 128,-1,20
 206 492 206 492 206 417 c 2,21,-1
 206 0 l 1,22,-1
 58 0 l 1,23,-1
 58 448 l 2,24,25
 58 564 58 564 124 622 c 128,-1,26
 190 680 190 680 336 680 c 0,27,28
 412 680 412 680 478.5 672 c 128,-1,29
 545 664 545 664 616 646 c 1,30,-1
 616 532 l 1,31,-1
 491 371 l 1,32,33
 566 363 566 363 613 313 c 128,-1,34
 660 263 660 263 660 188 c 0,35,36
 660 128 660 128 631 82.5 c 128,-1,37
 602 37 602 37 555 12.5 c 128,-1,38
 508 -12 508 -12 454 -12 c 0,39,0
 373 -12 373 -12 323.5 21.5 c 128,-1,1
EndSplineSet
EndChar
StartChar: endash
Encoding: 8211 8211 274
Width: 501
GlyphClass: 1
Flags: W
LayerCount: 2
Fore
SplineSet
40 309 m 1,0,-1
 462 309 l 1,1,-1
 462 189 l 1,2,-1
 40 189 l 1,3,-1
 40 309 l 1,0,-1
EndSplineSet
EndChar
StartChar: quoteleft
Encoding: 8216 8216 287
Width: 271
GlyphClass: 1
Flags: W
LayerCount: 2
Fore
SplineSet
70 378 m 128,-1,1
 43 405 43 405 43 444 c 0,2,3
 43 462 43 462 49 478 c 2,4,-1
 124 668 l 1,5,-1
 208 668 l 1,6,-1
 156 533 l 1,7,8
 187 526 187 526 207.5 501 c 128,-1,9
 228 476 228 476 228 443 c 0,10,11
 228 405 228 405 200.5 378 c 128,-1,12
 173 351 173 351 135 351 c 256,13,0
 97 351 97 351 70 378 c 128,-1,1
EndSplineSet
EndChar
StartChar: quoteright
Encoding: 8217 8217 288
Width: 271
GlyphClass: 1
Flags: W
LayerCount: 2
Fore
SplineSet
63 530 m 128,-1,1
 43 555 43 555 43 588 c 0,2,3
 43 626 43 626 70.5 653 c 128,-1,4
 98 680 98 680 136 680 c 256,5,6
 174 680 174 680 201 653 c 128,-1,7
 228 626 228 626 228 587 c 0,8,9
 228 570 228 570 222 553 c 2,10,-1
 147 363 l 1,11,-1
 63 363 l 1,12,-1
 115 498 l 1,13,0
 83 505 83 505 63 530 c 128,-1,1
EndSplineSet
EndChar
StartChar: quotesinglbase
Encoding: 8218 8218 283
Width: 271
GlyphClass: 1
Flags: W
LayerCount: 2
Fore
SplineSet
63 23 m 128,-1,1
 43 48 43 48 43 81 c 0,2,3
 43 119 43 119 70.5 146 c 128,-1,4
 98 173 98 173 136 173 c 256,5,6
 174 173 174 173 201 146 c 128,-1,7
 228 119 228 119 228 80 c 0,8,9
 228 63 228 63 222 46 c 2,10,-1
 147 -144 l 1,11,-1
 63 -144 l 1,12,-1
 115 -9 l 1,13,0
 83 -2 83 -2 63 23 c 128,-1,1
EndSplineSet
EndChar
StartChar: quotedblleft
Encoding: 8220 8220 285
Width: 483
GlyphClass: 1
Flags: W
LayerCount: 2
Fore
SplineSet
282 378 m 128,-1,1
 255 405 255 405 255 444 c 0,2,3
 255 462 255 462 261 478 c 2,4,-1
 335 668 l 1,5,-1
 420 668 l 1,6,-1
 368 533 l 1,7,8
 399 526 399 526 419.5 501 c 128,-1,9
 440 476 440 476 440 443 c 0,10,11
 440 405 440 405 412.5 378 c 128,-1,12
 385 351 385 351 347 351 c 256,13,0
 309 351 309 351 282 378 c 128,-1,1
70 378 m 128,-1,15
 43 405 43 405 43 444 c 0,16,17
 43 462 43 462 49 478 c 2,18,-1
 124 668 l 1,19,-1
 208 668 l 1,20,-1
 156 533 l 1,21,22
 187 526 187 526 207.5 501 c 128,-1,23
 228 476 228 476 228 443 c 0,24,25
 228 405 228 405 200.5 378 c 128,-1,26
 173 351 173 351 135 351 c 256,27,14
 97 351 97 351 70 378 c 128,-1,15
EndSplineSet
EndChar
StartChar: quotedblright
Encoding: 8221 8221 286
Width: 483
GlyphClass: 1
Flags: W
LayerCount: 2
Fore
SplineSet
275 530 m 128,-1,1
 255 555 255 555 255 588 c 0,2,3
 255 626 255 626 282 653 c 128,-1,4
 309 680 309 680 348 680 c 0,5,6
 386 680 386 680 413 653 c 128,-1,7
 440 626 440 626 440 587 c 0,8,9
 440 570 440 570 434 553 c 2,10,-1
 359 363 l 1,11,-1
 274 363 l 1,12,-1
 327 498 l 1,13,0
 295 505 295 505 275 530 c 128,-1,1
63 530 m 128,-1,15
 43 555 43 555 43 588 c 0,16,17
 43 626 43 626 70.5 653 c 128,-1,18
 98 680 98 680 136 680 c 256,19,20
 174 680 174 680 201 653 c 128,-1,21
 228 626 228 626 228 587 c 0,22,23
 228 570 228 570 222 553 c 2,24,-1
 147 363 l 1,25,-1
 63 363 l 1,26,-1
 115 498 l 1,27,14
 83 505 83 505 63 530 c 128,-1,15
EndSplineSet
EndChar
StartChar: quotedblbase
Encoding: 8222 8222 284
Width: 483
GlyphClass: 1
Flags: W
LayerCount: 2
Fore
SplineSet
275 23 m 128,-1,1
 255 48 255 48 255 81 c 0,2,3
 255 119 255 119 282 146 c 128,-1,4
 309 173 309 173 348 173 c 0,5,6
 386 173 386 173 413 146 c 128,-1,7
 440 119 440 119 440 80 c 0,8,9
 440 63 440 63 434 46 c 2,10,-1
 359 -144 l 1,11,-1
 274 -144 l 1,12,-1
 327 -9 l 1,13,0
 295 -2 295 -2 275 23 c 128,-1,1
63 23 m 128,-1,15
 43 48 43 48 43 81 c 0,16,17
 43 119 43 119 70.5 146 c 128,-1,18
 98 173 98 173 136 173 c 256,19,20
 174 173 174 173 201 146 c 128,-1,21
 228 119 228 119 228 80 c 0,22,23
 228 63 228 63 222 46 c 2,24,-1
 147 -144 l 1,25,-1
 63 -144 l 1,26,-1
 115 -9 l 1,27,14
 83 -2 83 -2 63 23 c 128,-1,15
EndSplineSet
EndChar
StartChar: dagger
Encoding: 8224 8224 307
Width: 584
GlyphClass: 1
Flags: W
LayerCount: 2
Fore
SplineSet
225 386 m 1,0,-1
 40 386 l 1,1,-1
 40 496 l 1,2,-1
 225 496 l 1,3,-1
 225 668 l 1,4,-1
 359 668 l 1,5,-1
 359 496 l 1,6,-1
 544 496 l 1,7,-1
 544 386 l 1,8,-1
 359 386 l 1,9,-1
 359 0 l 1,10,-1
 225 0 l 1,11,-1
 225 386 l 1,0,-1
EndSplineSet
EndChar
StartChar: perthousand
Encoding: 8240 8240 342
Width: 1401
GlyphClass: 1
Flags: W
LayerCount: 2
Fore
SplineSet
657 668 m 1,0,-1
 778 668 l 1,1,-1
 311 0 l 1,2,-1
 190 0 l 1,3,-1
 657 668 l 1,0,-1
126 315.5 m 128,-1,5
 81 342 81 342 55 387 c 128,-1,6
 29 432 29 432 29 485 c 256,7,8
 29 538 29 538 55 582.5 c 128,-1,9
 81 627 81 627 126 653.5 c 128,-1,10
 171 680 171 680 224 680 c 256,11,12
 277 680 277 680 322 653.5 c 128,-1,13
 367 627 367 627 393 582.5 c 128,-1,14
 419 538 419 538 419 485 c 256,15,16
 419 432 419 432 393 387 c 128,-1,17
 367 342 367 342 322 315.5 c 128,-1,18
 277 289 277 289 224 289 c 256,19,4
 171 289 171 289 126 315.5 c 128,-1,5
283 425.5 m 128,-1,21
 307 450 307 450 307 485 c 256,22,23
 307 520 307 520 283 544 c 128,-1,24
 259 568 259 568 224 568 c 0,25,26
 190 568 190 568 165.5 544 c 128,-1,27
 141 520 141 520 141 485 c 256,28,29
 141 450 141 450 165 425.5 c 128,-1,30
 189 401 189 401 224 401 c 256,31,20
 259 401 259 401 283 425.5 c 128,-1,21
649 14.5 m 128,-1,33
 604 41 604 41 578 86 c 128,-1,34
 552 131 552 131 552 184 c 256,35,36
 552 237 552 237 578 281.5 c 128,-1,37
 604 326 604 326 649 352.5 c 128,-1,38
 694 379 694 379 747 379 c 256,39,40
 800 379 800 379 844.5 352.5 c 128,-1,41
 889 326 889 326 915 281.5 c 128,-1,42
 941 237 941 237 941 184 c 256,43,44
 941 131 941 131 915 86 c 128,-1,45
 889 41 889 41 844.5 14.5 c 128,-1,46
 800 -12 800 -12 747 -12 c 256,47,32
 694 -12 694 -12 649 14.5 c 128,-1,33
805 124.5 m 128,-1,49
 829 149 829 149 829 184 c 0,50,51
 829 218 829 218 805 242.5 c 128,-1,52
 781 267 781 267 747 267 c 256,53,54
 713 267 713 267 688.5 243 c 128,-1,55
 664 219 664 219 664 184 c 256,56,57
 664 149 664 149 688 124.5 c 128,-1,58
 712 100 712 100 747 100 c 0,59,48
 781 100 781 100 805 124.5 c 128,-1,49
1079 14.5 m 128,-1,61
 1034 41 1034 41 1008 86 c 128,-1,62
 982 131 982 131 982 184 c 256,63,64
 982 237 982 237 1008 281.5 c 128,-1,65
 1034 326 1034 326 1079 352.5 c 128,-1,66
 1124 379 1124 379 1177 379 c 256,67,68
 1230 379 1230 379 1275 352.5 c 128,-1,69
 1320 326 1320 326 1346 281.5 c 128,-1,70
 1372 237 1372 237 1372 184 c 256,71,72
 1372 131 1372 131 1346 86 c 128,-1,73
 1320 41 1320 41 1275 14.5 c 128,-1,74
 1230 -12 1230 -12 1177 -12 c 256,75,60
 1124 -12 1124 -12 1079 14.5 c 128,-1,61
1236 124.5 m 128,-1,77
 1260 149 1260 149 1260 184 c 256,78,79
 1260 219 1260 219 1236 243 c 128,-1,80
 1212 267 1212 267 1177 267 c 0,81,82
 1143 267 1143 267 1118.5 243 c 128,-1,83
 1094 219 1094 219 1094 184 c 256,84,85
 1094 149 1094 149 1118 124.5 c 128,-1,86
 1142 100 1142 100 1177 100 c 256,87,76
 1212 100 1212 100 1236 124.5 c 128,-1,77
EndSplineSet
EndChar
StartChar: guilsinglright
Encoding: 8250 8250 292
Width: 396
GlyphClass: 1
Flags: W
LayerCount: 2
Fore
SplineSet
192 250 m 1,0,-1
 44 460 l 1,1,-1
 206 460 l 1,2,-1
 353 250 l 1,3,-1
 205 40 l 1,4,-1
 43 40 l 1,5,-1
 192 250 l 1,0,-1
EndSplineSet
EndChar
StartChar: Euro
Encoding: 8364 8364 314
Width: 678
GlyphClass: 1
Flags: W
LayerCount: 2
Fore
SplineSet
203.5 55.5 m 128,-1,1
 130 123 130 123 106 232 c 1,2,-1
 7 232 l 1,3,-1
 46 303 l 1,4,-1
 97 303 l 1,5,6
 96 314 96 314 96 335 c 0,7,8
 96 357 96 357 97 368 c 1,9,-1
 7 368 l 1,10,-1
 45 438 l 1,11,-1
 107 438 l 1,12,13
 133 556 133 556 212.5 618 c 128,-1,14
 292 680 292 680 398 680 c 0,15,16
 481 680 481 680 545 638.5 c 128,-1,17
 609 597 609 597 644 525 c 1,18,-1
 523 481 l 1,19,20
 504 519 504 519 469.5 538.5 c 128,-1,21
 435 558 435 558 393 558 c 0,22,23
 343 558 343 558 306 527.5 c 128,-1,24
 269 497 269 497 251 438 c 1,25,-1
 447 438 l 1,26,-1
 409 368 l 1,27,-1
 239 368 l 1,28,29
 238 357 238 357 238 335 c 0,30,31
 238 314 238 314 239 303 c 1,32,-1
 373 303 l 1,33,-1
 335 232 l 1,34,-1
 252 232 l 1,35,36
 269 174 269 174 307 142 c 128,-1,37
 345 110 345 110 398 110 c 0,38,39
 438 110 438 110 473.5 128.5 c 128,-1,40
 509 147 509 147 527 186 c 1,41,-1
 647 142 l 1,42,43
 611 69 611 69 545 28.5 c 128,-1,44
 479 -12 479 -12 394 -12 c 0,45,0
 277 -12 277 -12 203.5 55.5 c 128,-1,1
EndSplineSet
EndChar
StartChar: uni20B9
Encoding: 8377 8377 315
Width: 625
GlyphClass: 1
Flags: W
LayerCount: 2
Fore
SplineSet
79 289 m 1,0,-1
 79 352 l 1,1,-1
 228 352 l 2,2,3
 316 352 316 352 332 417 c 1,4,-1
 79 417 l 1,5,-1
 79 487 l 1,6,-1
 332 487 l 1,7,8
 316 552 316 552 228 552 c 2,9,-1
 79 552 l 1,10,-1
 79 668 l 1,11,-1
 572 668 l 1,12,-1
 572 598 l 1,13,-1
 426 598 l 1,14,15
 471 553 471 553 481 487 c 1,16,-1
 572 487 l 1,17,-1
 572 417 l 1,18,-1
 481 417 l 1,19,20
 471 345 471 345 423.5 302 c 128,-1,21
 376 259 376 259 301 244 c 1,22,-1
 539 0 l 1,23,-1
 356 0 l 1,24,-1
 79 289 l 1,0,-1
EndSplineSet
EndChar
StartChar: uni2113
Encoding: 8467 8467 308
Width: 496
GlyphClass: 1
Flags: W
LayerCount: 2
Fore
SplineSet
155 28 m 128,-1,1
 108 68 108 68 108 154 c 2,2,-1
 108 162 l 1,3,-1
 43 116 l 1,4,-1
 43 219 l 1,5,-1
 108 267 l 1,6,-1
 108 461 l 2,7,8
 108 680 108 680 292 680 c 0,9,10
 367 680 367 680 409.5 641 c 128,-1,11
 452 602 452 602 452 533 c 0,12,13
 452 458 452 458 402.5 398 c 128,-1,14
 353 338 353 338 249 262 c 1,15,-1
 249 185 l 2,16,17
 249 140 249 140 264.5 121 c 128,-1,18
 280 102 280 102 312 102 c 0,19,20
 352 102 352 102 392 135 c 1,21,-1
 446 50 l 1,22,23
 418 25 418 25 376 6.5 c 128,-1,24
 334 -12 334 -12 281 -12 c 0,25,0
 202 -12 202 -12 155 28 c 128,-1,1
313 439.5 m 128,-1,27
 335 479 335 479 335 523 c 0,28,29
 335 551 335 551 324 565 c 128,-1,30
 313 579 313 579 293 579 c 0,31,32
 269 579 269 579 259 561 c 128,-1,33
 249 543 249 543 249 504 c 2,34,-1
 249 368 l 1,35,26
 291 400 291 400 313 439.5 c 128,-1,27
EndSplineSet
EndChar
StartChar: estimated
Encoding: 8494 8494 310
Width: 607
GlyphClass: 1
Flags: W
LayerCount: 2
Fore
SplineSet
174 22.5 m 128,-1,1
 114 57 114 57 78.5 117 c 128,-1,2
 43 177 43 177 43 250 c 0,3,4
 43 319 43 319 78 378.5 c 128,-1,5
 113 438 113 438 173 473.5 c 128,-1,6
 233 509 233 509 304 509 c 0,7,8
 374 509 374 509 434 474 c 128,-1,9
 494 439 494 439 529 379 c 128,-1,10
 564 319 564 319 564 249 c 1,11,-1
 175 249 l 1,12,-1
 175 100 l 1,13,14
 201 77 201 77 234.5 64.5 c 128,-1,15
 268 52 268 52 304 52 c 0,16,17
 348 52 348 52 387.5 71 c 128,-1,18
 427 90 427 90 455 123 c 1,19,-1
 517 101 l 1,20,21
 481 49 481 49 425 18.5 c 128,-1,22
 369 -12 369 -12 304 -12 c 0,23,0
 234 -12 234 -12 174 22.5 c 128,-1,1
432 309 m 1,24,-1
 432 397 l 1,25,26
 406 420 406 420 373 432.5 c 128,-1,27
 340 445 340 445 304 445 c 256,28,29
 268 445 268 445 234.5 432.5 c 128,-1,30
 201 420 201 420 175 397 c 1,31,-1
 175 309 l 1,32,-1
 432 309 l 1,24,-1
EndSplineSet
EndChar
StartChar: partialdiff
Encoding: 8706 8706 340
Width: 597
GlyphClass: 1
Flags: W
LayerCount: 2
Fore
SplineSet
166 15 m 128,-1,1
 110 42 110 42 77 95.5 c 128,-1,2
 44 149 44 149 44 224 c 0,3,4
 44 291 44 291 73 345 c 128,-1,5
 102 399 102 399 152.5 429.5 c 128,-1,6
 203 460 203 460 266 460 c 0,7,8
 323 460 323 460 364 436.5 c 128,-1,9
 405 413 405 413 425 374 c 1,10,11
 414 473 414 473 341.5 520 c 128,-1,12
 269 567 269 567 156 567 c 0,13,14
 136 567 136 567 126 566 c 1,15,-1
 126 680 l 1,16,17
 323 680 323 680 438 597 c 128,-1,18
 553 514 553 514 553 302 c 0,19,20
 552 154 552 154 486 71 c 128,-1,21
 420 -12 420 -12 290 -12 c 0,22,0
 222 -12 222 -12 166 15 c 128,-1,1
374.5 135 m 128,-1,24
 406 170 406 170 406 223 c 0,25,26
 406 277 406 277 375 312 c 128,-1,27
 344 347 344 347 296 347 c 0,28,29
 249 347 249 347 217 312 c 128,-1,30
 185 277 185 277 185 223 c 0,31,32
 185 170 185 170 217 135 c 128,-1,33
 249 100 249 100 296 100 c 256,34,23
 343 100 343 100 374.5 135 c 128,-1,24
EndSplineSet
EndChar
StartChar: product
Encoding: 8719 8719 337
Width: 609
GlyphClass: 1
Flags: W
LayerCount: 2
Fore
SplineSet
43 668 m 1,0,-1
 567 668 l 1,1,-1
 567 -162 l 1,2,-1
 446 -162 l 1,3,-1
 446 557 l 1,4,-1
 164 557 l 1,5,-1
 164 -162 l 1,6,-1
 43 -162 l 1,7,-1
 43 668 l 1,0,-1
EndSplineSet
EndChar
StartChar: summation
Encoding: 8721 8721 338
Width: 612
GlyphClass: 1
Flags: W
LayerCount: 2
Fore
SplineSet
43 -41 m 1,0,-1
 281 254 l 1,1,-1
 43 547 l 1,2,-1
 43 668 l 1,3,-1
 569 668 l 1,4,-1
 569 547 l 1,5,-1
 202 547 l 1,6,-1
 442 254 l 1,7,-1
 202 -41 l 1,8,-1
 569 -41 l 1,9,-1
 569 -162 l 1,10,-1
 43 -162 l 1,11,-1
 43 -41 l 1,0,-1
EndSplineSet
EndChar
StartChar: minus
Encoding: 8722 8722 321
Width: 594
GlyphClass: 1
Flags: W
LayerCount: 2
Fore
SplineSet
42 308 m 1,0,-1
 552 308 l 1,1,-1
 552 188 l 1,2,-1
 42 188 l 1,3,-1
 42 308 l 1,0,-1
EndSplineSet
EndChar
StartChar: radical
Encoding: 8730 8730 339
Width: 689
GlyphClass: 1
Flags: W
LayerCount: 2
Fore
SplineSet
179 101 m 1,0,-1
 43 101 l 1,1,-1
 43 225 l 1,2,-1
 265 225 l 1,3,-1
 348 19 l 1,4,-1
 511 668 l 1,5,-1
 646 668 l 1,6,-1
 438 -162 l 1,7,-1
 291 -162 l 1,8,-1
 179 101 l 1,0,-1
EndSplineSet
EndChar
StartChar: infinity
Encoding: 8734 8734 335
Width: 754
GlyphClass: 1
Flags: W
LayerCount: 2
Fore
SplineSet
127 118 m 128,-1,1
 88 138 88 138 66 174 c 128,-1,2
 44 210 44 210 44 256 c 256,3,4
 44 302 44 302 66 338 c 128,-1,5
 88 374 88 374 127 394 c 128,-1,6
 166 414 166 414 214 414 c 0,7,8
 264 414 264 414 302.5 392.5 c 128,-1,9
 341 371 341 371 377 333 c 1,10,11
 413 371 413 371 451.5 392.5 c 128,-1,12
 490 414 490 414 540 414 c 0,13,14
 588 414 588 414 627 394 c 128,-1,15
 666 374 666 374 688 338 c 128,-1,16
 710 302 710 302 710 256 c 256,17,18
 710 210 710 210 688 174 c 128,-1,19
 666 138 666 138 627 118 c 128,-1,20
 588 98 588 98 540 98 c 0,21,22
 490 98 490 98 451.5 119.5 c 128,-1,23
 413 141 413 141 377 179 c 1,24,25
 341 141 341 141 302.5 119.5 c 128,-1,26
 264 98 264 98 214 98 c 0,27,0
 166 98 166 98 127 118 c 128,-1,1
269 214.5 m 128,-1,29
 291 229 291 229 314 256 c 1,30,31
 291 283 291 283 269 297.5 c 128,-1,32
 247 312 247 312 220 312 c 256,33,34
 193 312 193 312 175.5 296 c 128,-1,35
 158 280 158 280 158 256 c 256,36,37
 158 232 158 232 175.5 216 c 128,-1,38
 193 200 193 200 220 200 c 256,39,28
 247 200 247 200 269 214.5 c 128,-1,29
578.5 216 m 128,-1,41
 596 232 596 232 596 256 c 256,42,43
 596 280 596 280 578.5 296 c 128,-1,44
 561 312 561 312 533 312 c 0,45,46
 507 312 507 312 485 297.5 c 128,-1,47
 463 283 463 283 440 256 c 1,48,49
 463 229 463 229 485 214.5 c 128,-1,50
 507 200 507 200 533 200 c 0,51,40
 561 200 561 200 578.5 216 c 128,-1,41
EndSplineSet
EndChar
StartChar: integral
Encoding: 8747 8747 336
Width: 482
GlyphClass: 1
Flags: W
LayerCount: 2
Fore
SplineSet
67 -150 m 128,-1,1
 38 -126 38 -126 38 -93 c 0,2,3
 38 -67 38 -67 53.5 -51 c 128,-1,4
 69 -35 69 -35 96 -35 c 256,5,6
 123 -35 123 -35 138 -50.5 c 128,-1,7
 153 -66 153 -66 153 -92 c 0,8,9
 153 -101 153 -101 150 -111 c 1,10,11
 163 -103 163 -103 168.5 -83 c 128,-1,12
 174 -63 174 -63 175 -21 c 2,13,-1
 181 434 l 2,14,15
 182 567 182 567 225 623.5 c 128,-1,16
 268 680 268 680 336 680 c 0,17,18
 386 680 386 680 414.5 656.5 c 128,-1,19
 443 633 443 633 443 600 c 0,20,21
 443 574 443 574 427.5 557.5 c 128,-1,22
 412 541 412 541 386 541 c 0,23,24
 358 541 358 541 343.5 557 c 128,-1,25
 329 573 329 573 329 600 c 0,26,27
 329 610 329 610 332 619 c 1,28,29
 319 611 319 611 313.5 591 c 128,-1,30
 308 571 308 571 307 528 c 2,31,-1
 301 73 l 2,32,33
 299 -60 299 -60 256 -117 c 128,-1,34
 213 -174 213 -174 145 -174 c 0,35,0
 96 -174 96 -174 67 -150 c 128,-1,1
EndSplineSet
EndChar
StartChar: approxequal
Encoding: 8776 8776 331
Width: 533
GlyphClass: 1
Flags: W
LayerCount: 2
Fore
SplineSet
75 199.5 m 128,-1,1
 105 237 105 237 166 237 c 0,2,3
 192 237 192 237 216 228.5 c 128,-1,4
 240 220 240 220 272 204 c 0,5,6
 298 191 298 191 316 184 c 128,-1,7
 334 177 334 177 351 177 c 0,8,9
 396 177 396 177 397 242 c 1,10,-1
 494 207 l 1,11,12
 488 135 488 135 458 97.5 c 128,-1,13
 428 60 428 60 367 60 c 0,14,15
 341 60 341 60 317 68.5 c 128,-1,16
 293 77 293 77 261 93 c 0,17,18
 235 106 235 106 217 113 c 128,-1,19
 199 120 199 120 182 120 c 0,20,21
 136 120 136 120 136 55 c 1,22,-1
 38 91 l 1,23,0
 45 162 45 162 75 199.5 c 128,-1,1
75 403.5 m 128,-1,25
 105 441 105 441 166 441 c 0,26,27
 192 441 192 441 216 432.5 c 128,-1,28
 240 424 240 424 272 408 c 0,29,30
 298 395 298 395 316 388 c 128,-1,31
 334 381 334 381 351 381 c 0,32,33
 396 381 396 381 397 446 c 1,34,-1
 494 411 l 1,35,36
 488 339 488 339 458 301.5 c 128,-1,37
 428 264 428 264 367 264 c 0,38,39
 341 264 341 264 317 272.5 c 128,-1,40
 293 281 293 281 261 297 c 0,41,42
 235 310 235 310 217 317 c 128,-1,43
 199 324 199 324 182 324 c 0,44,45
 136 324 136 324 136 259 c 1,46,-1
 38 294 l 1,47,24
 45 366 45 366 75 403.5 c 128,-1,25
EndSplineSet
EndChar
StartChar: lessequal
Encoding: 8804 8804 329
Width: 592
GlyphClass: 1
Flags: W
LayerCount: 2
Fore
SplineSet
43 261 m 1,0,-1
 43 378 l 1,1,-1
 549 509 l 1,2,-1
 549 386 l 1,3,-1
 207 321 l 1,4,-1
 549 253 l 1,5,-1
 549 130 l 1,6,-1
 43 261 l 1,0,-1
43 121 m 1,7,-1
 549 121 l 1,8,-1
 549 0 l 1,9,-1
 43 0 l 1,10,-1
 43 121 l 1,7,-1
EndSplineSet
EndChar
StartChar: greaterequal
Encoding: 8805 8805 328
Width: 592
GlyphClass: 1
Flags: W
LayerCount: 2
Fore
SplineSet
43 253 m 1,0,-1
 385 321 l 1,1,-1
 43 386 l 1,2,-1
 43 509 l 1,3,-1
 549 378 l 1,4,-1
 549 261 l 1,5,-1
 43 130 l 1,6,-1
 43 253 l 1,0,-1
43 121 m 1,7,-1
 549 121 l 1,8,-1
 549 0 l 1,9,-1
 43 0 l 1,10,-1
 43 121 l 1,7,-1
EndSplineSet
EndChar
StartChar: lozenge
Encoding: 9674 9674 343
Width: 600
GlyphClass: 1
Flags: W
LayerCount: 2
Fore
SplineSet
43 313 m 1,0,-1
 300 714 l 1,1,-1
 557 313 l 1,2,-1
 300 -88 l 1,3,-1
 43 313 l 1,0,-1
427 313 m 1,4,-1
 300 510 l 1,5,-1
 173 313 l 1,6,-1
 300 117 l 1,7,-1
 427 313 l 1,4,-1
EndSplineSet
EndChar
StartChar: acutecomb.case
Encoding: 65553 -1 352
Width: 0
GlyphClass: 4
Flags: W
AnchorPoint: "Anchor-5" 100 882 basemark 0
AnchorPoint: "Anchor-5" 100 668 mark 0
AnchorPoint: "Anchor-1" 100 668 mark 0
LayerCount: 2
Fore
SplineSet
206 880 m 0,1,2
 228 880 228 880 242.5 865.5 c 128,-1,3
 257 851 257 851 257 830 c 0,4,5
 257 814 257 814 249.5 802 c 128,-1,6
 242 790 242 790 219 774 c 2,7,-1
 159 733 l 1,8,-1
 44 733 l 1,9,-1
 148 849 l 2,10,0
 175 880 175 880 206 880 c 0,1,2
EndSplineSet
EndChar
StartChar: gravecomb.case
Encoding: 65552 -1 350
Width: 0
GlyphClass: 4
Flags: W
AnchorPoint: "Anchor-5" 201 882 basemark 0
AnchorPoint: "Anchor-5" 201 668 mark 0
AnchorPoint: "Anchor-1" 201 668 mark 0
LayerCount: 2
Fore
SplineSet
52 802.5 m 128,-1,1
 44 815 44 815 44 830 c 0,2,3
 44 851 44 851 58.5 865.5 c 128,-1,4
 73 880 73 880 96 880 c 0,5,6
 126 880 126 880 153 849 c 2,7,-1
 257 733 l 1,8,-1
 142 733 l 1,9,-1
 82 774 l 2,10,0
 60 790 60 790 52 802.5 c 128,-1,1
EndSplineSet
EndChar
StartChar: one.tf
Encoding: 65540 -1 240
Width: 632
GlyphClass: 1
Flags: W
LayerCount: 2
Fore
SplineSet
102 117 m 1,0,-1
 258 117 l 1,1,-1
 258 457 l 1,2,-1
 102 457 l 1,3,-1
 102 571 l 1,4,5
 161 571 161 571 194.5 577 c 128,-1,6
 228 583 228 583 252 604 c 128,-1,7
 276 625 276 625 293 668 c 1,8,-1
 399 668 l 1,9,-1
 399 117 l 1,10,-1
 532 117 l 1,11,-1
 532 0 l 1,12,-1
 102 0 l 1,13,-1
 102 117 l 1,0,-1
EndSplineSet
Substitution2: "'pnum' Proportional Numbers in Latin lookup 9 subtable" one
AlternateSubs2: "'aalt' Access All Alternates in Latin lookup 0 subtable" one
EndChar
StartChar: uni0307.case
Encoding: 65550 -1 347
Width: 0
GlyphClass: 4
Flags: W
AnchorPoint: "Anchor-5" 116 867 basemark 0
AnchorPoint: "Anchor-5" 116 668 mark 0
AnchorPoint: "Anchor-1" 116 668 mark 0
LayerCount: 2
Fore
SplineSet
65.5 744.5 m 128,-1,1
 44 766 44 766 44 795 c 256,2,3
 44 824 44 824 65.5 845.5 c 128,-1,4
 87 867 87 867 116 867 c 256,5,6
 145 867 145 867 166.5 845.5 c 128,-1,7
 188 824 188 824 188 795 c 256,8,9
 188 766 188 766 166.5 744.5 c 128,-1,10
 145 723 145 723 116 723 c 256,11,0
 87 723 87 723 65.5 744.5 c 128,-1,1
EndSplineSet
EndChar
StartChar: uni0307.large
Encoding: 65551 -1 348
Width: 0
GlyphClass: 4
Flags: W
AnchorPoint: "Anchor-5" 130 751 basemark 0
AnchorPoint: "Anchor-5" 130 496 mark 0
AnchorPoint: "Anchor-1" 130 496 mark 0
LayerCount: 2
Fore
SplineSet
69 605 m 128,-1,1
 44 630 44 630 44 666 c 0,2,3
 44 701 44 701 69 726 c 128,-1,4
 94 751 94 751 130 751 c 0,5,6
 165 751 165 751 190 726 c 128,-1,7
 215 701 215 701 215 666 c 0,8,9
 215 630 215 630 190 605 c 128,-1,10
 165 580 165 580 130 580 c 0,11,0
 94 580 94 580 69 605 c 128,-1,1
EndSplineSet
EndChar
StartChar: uni030A.case
Encoding: 65559 -1 363
Width: 0
GlyphClass: 4
Flags: W
AnchorPoint: "Anchor-5" 173 857 basemark 0
AnchorPoint: "Anchor-5" 173 668 mark 0
AnchorPoint: "Anchor-1" 173 668 mark 0
LayerCount: 2
Fore
SplineSet
81.5 638.5 m 128,-1,1
 44 676 44 676 44 729 c 256,2,3
 44 782 44 782 81.5 819.5 c 128,-1,4
 119 857 119 857 173 857 c 0,5,6
 226 857 226 857 263.5 819.5 c 128,-1,7
 301 782 301 782 301 729 c 256,8,9
 301 676 301 676 263.5 638.5 c 128,-1,10
 226 601 226 601 173 601 c 0,11,0
 119 601 119 601 81.5 638.5 c 128,-1,1
206 695 m 128,-1,13
 220 709 220 709 220 729 c 256,14,15
 220 749 220 749 206 763 c 128,-1,16
 192 777 192 777 173 777 c 0,17,18
 153 777 153 777 139 763 c 128,-1,19
 125 749 125 749 125 729 c 256,20,21
 125 709 125 709 139 695 c 128,-1,22
 153 681 153 681 173 681 c 0,23,12
 192 681 192 681 206 695 c 128,-1,13
EndSplineSet
EndChar
StartChar: uni030C.alt
Encoding: 65555 -1 355
Width: 0
GlyphClass: 4
Flags: W
AnchorPoint: "Anchor-3" 24 496 mark 0
LayerCount: 2
Fore
SplineSet
87 706 m 128,-1,1
 102 718 102 718 122 718 c 0,2,3
 145 718 145 718 159.5 702.5 c 128,-1,4
 174 687 174 687 174 667 c 0,5,6
 174 653 174 653 164 630 c 2,7,-1
 119 527 l 1,8,-1
 44 527 l 1,9,-1
 69 674 l 2,10,0
 72 694 72 694 87 706 c 128,-1,1
EndSplineSet
EndChar
StartChar: uni0328.alt
Encoding: 65562 -1 372
Width: 0
GlyphClass: 4
Flags: W
AnchorPoint: "Anchor-2" 256 10 mark 0
LayerCount: 2
Fore
SplineSet
76 -147 m 128,-1,1
 44 -120 44 -120 44 -77 c 0,2,3
 44 -35 44 -35 70.5 -5 c 128,-1,4
 97 25 97 25 132 38 c 1,5,-1
 241 38 l 1,6,7
 204 14 204 14 182.5 -8.5 c 128,-1,8
 161 -31 161 -31 161 -60 c 0,9,10
 161 -82 161 -82 174.5 -91.5 c 128,-1,11
 188 -101 188 -101 208 -101 c 0,12,13
 220 -101 220 -101 233.5 -97.5 c 128,-1,14
 247 -94 247 -94 255 -92 c 1,15,-1
 255 -164 l 1,16,17
 243 -168 243 -168 220 -171 c 128,-1,18
 197 -174 197 -174 179 -174 c 0,19,0
 108 -174 108 -174 76 -147 c 128,-1,1
EndSplineSet
EndChar
StartChar: uni0328.case
Encoding: 65563 -1 373
Width: 0
GlyphClass: 4
Flags: W
AnchorPoint: "Anchor-2" 255 10 mark 0
LayerCount: 2
Fore
SplineSet
77.5 -147.5 m 128,-1,1
 44 -121 44 -121 44 -86 c 0,2,3
 44 -53 44 -53 68 -28.5 c 128,-1,4
 92 -4 92 -4 135 9 c 1,5,-1
 255 0 l 1,6,7
 221 -6 221 -6 191 -25.5 c 128,-1,8
 161 -45 161 -45 161 -69 c 0,9,10
 161 -86 161 -86 174.5 -93.5 c 128,-1,11
 188 -101 188 -101 208 -101 c 0,12,13
 220 -101 220 -101 233.5 -97.5 c 128,-1,14
 247 -94 247 -94 255 -92 c 1,15,-1
 255 -164 l 1,16,17
 244 -168 244 -168 220.5 -171 c 128,-1,18
 197 -174 197 -174 179 -174 c 0,19,0
 111 -174 111 -174 77.5 -147.5 c 128,-1,1
EndSplineSet
EndChar
